<svg xmlns="http://www.w3.org/2000/svg" viewBox="0 0 171.08 114.39"><defs><style>.cls-1{fill:none;stroke:#5b5b5b;stroke-miterlimit:10;}.cls-2{fill:#fff;}.cls-3{fill:#0061e6;}.cls-4{fill:#ff9501;}.cls-5{fill:#01a616;}</style></defs><title>country-india</title><g id="Layer_2" data-name="Layer 2"><g id="Layer_1-2" data-name="Layer 1"><rect class="cls-1" x="0.5" y="0.5" width="170.08" height="113.39"/><rect class="cls-2" x="0.5" y="0.5" width="170.08" height="113.38"/><path class="cls-3" d="M102.55,57.19a17,17,0,1,1-17-17,17,17,0,0,1,17,17ZM85.27,60.24l-.26,0-.52,2.88-2.77,8.59q.47.12.93.21a.95.95,0,0,1,1.88.25c.31,0,.63,0,.94,0l-.45-9,.25-2.93Zm-1.78,2.59,1-2.76L84.24,60,83,62.62,78.1,70.2c.28.16.56.31.84.44a.95.95,0,1,1,1.75.73l.91.28,1.89-8.82Zm.3-3.13-.22-.16-1.89,2.24L75,67.84c.22.22.46.43.7.64a.95.95,0,1,1,1.5,1.15c.26.18.53.35.8.51l4.12-8,1.68-2.41ZM81,61.05l2.25-1.89L83,59l-2.4,1.68-8,4.11c.16.28.32.54.5.81a.95.95,0,1,1,1.15,1.5c.21.24.43.47.65.69l6-6.69Zm1.82-2.56c0-.08-.07-.17-.11-.25l-2.75,1-8.83,1.89c.09.31.18.61.28.91a.95.95,0,0,1,.73,1.75c.14.29.28.57.44.84l7.58-4.9,2.66-1.24Zm-3.13-.25,2.89-.51a2.51,2.51,0,0,1,0-.27l-2.92.25-9-.45c0,.32,0,.63,0,1a.93.93,0,0,1,1.06.81,1,1,0,0,1-.81,1.07c.06.3.13.61.21.92l8.59-2.77Zm2.85-1.31a2.51,2.51,0,0,1,0-.27l-2.89-.51-8.59-2.77c-.08.31-.15.61-.21.92a.95.95,0,0,1-.25,1.88c0,.32,0,.63,0,1l9-.46,2.92.26Zm-2.58-1.78,2.75,1c0-.09.07-.17.11-.25l-2.66-1.24-7.58-4.9c-.16.28-.3.55-.44.84a.95.95,0,0,1-.73,1.75c-.1.29-.19.6-.28.9l8.83,1.9Zm3.12.29.17-.21L81,53.34l-6-6.7c-.22.23-.44.46-.65.7a.95.95,0,1,1-1.15,1.5c-.18.27-.34.53-.5.8l8,4.12L83,55.44Zm-1.35-2.83,1.89,2.24.22-.16-1.68-2.41-4.12-8c-.27.16-.54.33-.8.51a.95.95,0,0,1-1.5,1.15c-.24.21-.48.42-.7.64l6.69,6.06Zm2.56,1.81.25-.1-1-2.76L81.6,42.74c-.31.08-.61.18-.91.28a.95.95,0,1,1-1.75.72l-.84.45L83,51.77l1.24,2.65Zm.25-3.13L85,54.18l.26,0L85,51.22l.45-9c-.31,0-.63,0-.94,0a1,1,0,0,1-.82,1.07,1,1,0,0,1-1.06-.82c-.31.06-.62.13-.93.22l2.77,8.58Zm1.31,2.86.27,0,.51-2.89,2.77-8.58c-.3-.09-.61-.16-.92-.22a.95.95,0,1,1-1.88-.25c-.31,0-.63,0-1,0l.46,9-.26,2.93Zm1.79-2.59-1,2.76.25.1,1.24-2.65L93,44.19q-.41-.24-.84-.45a.94.94,0,0,1-1.23.52A1,1,0,0,1,90.38,43c-.29-.1-.59-.2-.9-.28l-1.89,8.82Zm-.3,3.13.22.16,1.88-2.24,6.7-6.06-.7-.64a1,1,0,0,1-1.33.17.94.94,0,0,1-.17-1.32c-.26-.18-.53-.35-.8-.51l-4.12,8-1.68,2.41Zm2.84-1.35-2.25,1.89.16.21,2.41-1.68,8-4.12c-.16-.27-.33-.53-.5-.8a.95.95,0,0,1-1.16-1.5c-.2-.24-.42-.47-.64-.7l-6.05,6.7ZM88.31,55.9a1.86,1.86,0,0,1,.1.25l2.76-1,8.82-1.9a9.37,9.37,0,0,0-.28-.9A.95.95,0,0,1,99,50.6c-.14-.29-.29-.56-.44-.84L91,54.66,88.31,55.9Zm3.13.25-2.89.51a2.51,2.51,0,0,1,0,.27l2.92-.26,9,.46c0-.32,0-.63,0-1a.95.95,0,1,1-.25-1.88c-.06-.31-.13-.61-.21-.92l-8.59,2.77Zm-2.85,1.31a2.51,2.51,0,0,1,0,.27l2.89.51L100,61c.08-.31.15-.62.21-.92A1,1,0,0,1,99.42,59a1,1,0,0,1,1.07-.81c0-.32,0-.63,0-1l-9,.45-2.92-.25Zm2.58,1.78-2.76-1a2.6,2.6,0,0,1-.1.25L91,59.73l7.58,4.9c.15-.27.3-.55.44-.84A.95.95,0,0,1,99.71,62c.11-.3.2-.6.28-.91l-8.82-1.89ZM88,59l-.16.21,2.25,1.89,6.05,6.69c.22-.22.44-.45.64-.69a1,1,0,0,1-.17-1.33A.94.94,0,0,1,98,65.55c.17-.27.34-.53.5-.81l-8-4.11L88,59Zm1.35,2.83-1.88-2.24-.22.16L89,62.11l4.12,8c.27-.16.54-.33.8-.51a.95.95,0,1,1,1.5-1.15l.7-.64-6.7-6.06ZM86.83,60l-.25.11,1,2.76,1.89,8.82.9-.28a1,1,0,0,1,.52-1.24.94.94,0,0,1,1.23.51A8.37,8.37,0,0,0,93,70.2l-4.9-7.58L86.83,60Zm-.25,3.13-.51-2.88-.27,0,.26,2.93-.46,9c.32,0,.64,0,1,0a.95.95,0,0,1,1.88-.25c.31-.06.62-.13.92-.21l-2.77-8.59Z"/><rect class="cls-4" x="0.5" y="0.5" width="170.08" height="37.79"/><rect class="cls-5" x="0.5" y="76.09" width="170.08" height="37.8"/></g></g></svg>