<svg xmlns="http://www.w3.org/2000/svg" viewBox="0 0 170.08 113.38"><defs><style>.cls-1{fill:#0132bf;}.cls-1,.cls-2,.cls-5{fill-rule:evenodd;}.cls-2{fill:#01a616;}.cls-3{fill:#fff;}.cls-4{fill:#f30004;}.cls-5{fill:#ffdb00;}</style></defs><title>country-namibia</title><g id="Layer_2" data-name="Layer 2"><g id="Layer_1-2" data-name="Layer 1"><polygon class="cls-1" points="0 0 170.08 0 0 113.39 0 0"/><polygon class="cls-2" points="0 113.39 170.08 113.39 170.08 0 0 113.39"/><polygon class="cls-3" points="0 90.67 136.01 0 170.08 0 170.08 22.71 34.07 113.39 0 113.39 0 90.67"/><polygon class="cls-4" points="0 96.35 144.53 0 170.08 0 170.08 17.03 25.55 113.39 0 113.39 0 96.35"/><path class="cls-5" d="M49.21,36.3l-8.34-1.43,1.43,8.34L35.79,37.8a11.35,11.35,0,0,0,8-8l5.41,6.52ZM42.3,26.85h0a9.45,9.45,0,1,0-18.9,0h0a9.45,9.45,0,1,0,18.9,0ZM35.78,37.8l-2.93,7.94L29.91,37.8a11.45,11.45,0,0,0,5.87,0Zm-5.87,0L23.4,43.21l1.43-8.34L16.48,36.3l5.41-6.52a11.38,11.38,0,0,0,8,8Zm-8-8L14,26.85l7.94-2.94a11.45,11.45,0,0,0,0,5.87Zm0-5.87L16.48,17.4l8.35,1.43L23.4,10.48l6.51,5.41a11.39,11.39,0,0,0-8,8Zm8-8L32.85,8l2.93,7.94a11.45,11.45,0,0,0-5.87,0Zm5.88,0,6.51-5.41-1.43,8.35,8.34-1.43L43.8,23.91a11.36,11.36,0,0,0-8-8Zm8,8,8,2.94-8,2.93A11.34,11.34,0,0,0,43.8,23.91Z"/></g></g></svg>