<?xml version="1.0" encoding="utf-8"?>
<!-- Generator: Adobe Illustrator 22.0.1, SVG Export Plug-In . SVG Version: 6.00 Build 0)  -->
<svg version="1.1" id="Layer_1" xmlns="http://www.w3.org/2000/svg" xmlns:xlink="http://www.w3.org/1999/xlink" x="0px" y="0px"
	 viewBox="0 0 170.1 113.5" style="enable-background:new 0 0 170.1 113.5;" xml:space="preserve">
<style type="text/css">
	.st0{fill-rule:evenodd;clip-rule:evenodd;fill:#0132BF;}
	.st1{fill:#FFFFFF;}
	.st2{fill:#F30004;}
	.st3{fill-rule:evenodd;clip-rule:evenodd;fill:#FFFFFF;}
	.st4{fill-rule:evenodd;clip-rule:evenodd;fill:#F30004;}
</style>
<title>country-south-africa</title>
<g>
	<polygon class="st0" points="0,0 85,0 170.1,0 170.1,113.4 85,113.4 0,113.4 	"/>
	<polygon class="st1" points="170.1,99.4 106.1,56.7 170.1,14 170.1,0 149,0 85,42.7 21,0 0,0 0,14 64,56.7 0,99.4 0,113.4 
		21,113.4 85,70.7 149,113.4 170.1,113.4 	"/>
	<polygon class="st2" points="170.1,108.1 92.9,56.7 170.1,5.3 170.1,0 162.2,0 85,51.4 7.9,0 0,0 0,5.3 77.1,56.7 0,108.1 0,113.4 
		7.9,113.4 85,62 162.2,113.4 170.1,113.4 	"/>
	<polygon class="st3" points="71,0 85,0 99.1,0 99.1,38 170.1,38 170.1,75.4 99.1,75.4 99.1,113.4 85,113.4 71,113.4 71,75.4 
		0,75.4 0,38 71,38 	"/>
	<polygon class="st4" points="93.8,0 93.8,45 170.1,45 170.1,68.4 93.8,68.4 93.8,113.4 85,113.4 76.3,113.4 76.3,68.4 0,68.4 0,45 
		76.3,45 76.3,0 85,0 	"/>
</g>
</svg>
