<svg id="b4d357ff-e14c-47f2-952a-0b6867ff9ad4" data-name="Layer 1" xmlns="http://www.w3.org/2000/svg" xmlns:xlink="http://www.w3.org/1999/xlink" viewBox="0 0 170.08 113.39"><defs><style>.b4d14d18-4792-4461-9fc7-7a066777e3ac{fill:none;}.ac8688cb-295c-4127-ba62-fe16e3d6371c{clip-path:url(#f98aa691-feab-4325-8a79-72ad550d0a8d);}.f2dbf25c-d2e2-4352-b5e0-c73ad923c29d{fill:#fff;}.fb4f1040-5759-4c49-9528-13e97b81288f{fill:#f30004;}.b77065f4-efc6-44a3-ad51-9c5096ed5b3f{fill:#0132bf;}</style><clipPath id="f98aa691-feab-4325-8a79-72ad550d0a8d"><rect class="b4d14d18-4792-4461-9fc7-7a066777e3ac" width="170.08" height="113.39"/></clipPath></defs><g class="ac8688cb-295c-4127-ba62-fe16e3d6371c"><g id="a4f57dce-fc46-4252-9aca-cd2cec1c4fd0" data-name="flag-usa"><rect id="b0ee225e-6ef7-4ea7-9f93-7e6816bdf4ee" data-name="Rectangle 728" class="f2dbf25c-d2e2-4352-b5e0-c73ad923c29d" width="170.08" height="113.39"/><path id="e2a3c3fd-ebad-46a5-aaa4-4f2d67b6020e" data-name="Path 6600" class="fb4f1040-5759-4c49-9528-13e97b81288f" d="M0,104.66H170.08v8.73H0ZM0,0H170.08V8.72H0ZM0,17.44H170.08v8.73H0ZM0,34.89H170.08v8.72H0ZM0,52.33H170.08v8.73H0V52.33ZM0,69.78H170.08V78.5H0ZM0,87.22H170.08V96H0Z"/><rect id="a6ac9190-b318-4bae-8aec-67923ffcd30a" data-name="Rectangle 729" class="b77065f4-efc6-44a3-ad51-9c5096ed5b3f" width="86.17" height="61.06"/><path id="a5cc2463-0e4a-4304-a4ed-1af987046329" data-name="Path 6601" class="f2dbf25c-d2e2-4352-b5e0-c73ad923c29d" d="M79.59,17.2l-.79-2.41L78,17.2H75.48l2,1.49-.78,2.42,2-1.49,2.06,1.49-.79-2.42,2.05-1.49ZM8.64,6.45l2-1.49H8.15L7.37,2.54,6.58,5H4.05L6.1,6.45,5.32,8.86,7.37,7.37,9.42,8.86Zm14.29,0L25,5H22.44l-.78-2.41L20.87,5H18.34l2.05,1.5L19.6,8.86l2.06-1.49,2.05,1.49-.78-2.41Zm14.28,0L39.27,5H36.73l-.79-2.42L35.16,5H32.62l2.06,1.49-.79,2.41,2-1.49L38,8.86l-.79-2.41Zm14.29,0,2-1.5H51l-.78-2.41L49.44,5H46.91L49,6.45l-.78,2.41,2-1.49,2.05,1.49L51.5,6.45ZM16.16,49l2.06-1.49H15.68l-.79-2.41-.78,2.41H11.57L13.63,49l-.79,2.42,2.06-1.49,2,1.49L16.16,49Zm-.28-11.89,2-1.49H15.4l-.79-2.42-.78,2.42H11.29l2.05,1.49-.78,2.41,2-1.49,2.05,1.49-.78-2.41ZM16,25.28,18,23.79H15.47l-.78-2.41-.79,2.41H11.36l2.06,1.49-.79,2.42,2.06-1.49,2,1.49L16,25.28ZM65.79,6.44l2-1.49H65.3l-.78-2.41L63.73,5H61.2l2,1.5-.79,2.41,2.06-1.49,2,1.49-.79-2.42Zm14.28,0L82.12,5H79.59L78.8,2.54,78,5H75.48l2,1.5-.78,2.41,2-1.49,2.06,1.49-.79-2.42ZM30.24,25.29l2.05-1.5H29.76L29,21.38l-.78,2.41H25.65l2.05,1.5-.78,2.41,2-1.49L31,27.7l-.78-2.41Zm-.07,11.83,2-1.49H29.68l-.78-2.42-.79,2.42H25.58l2.05,1.49-.78,2.41,2-1.49L31,39.53ZM30.45,49l2.05-1.49H30l-.79-2.42-.78,2.42H25.86L27.91,49l-.78,2.41,2.05-1.49,2.05,1.49L30.45,49Zm-1.27-.41ZM44.74,49l2-1.49H44.25l-.78-2.42-.78,2.42H40.15L42.2,49l-.78,2.41,2-1.49,2.05,1.49L44.74,49Zm-.29-11.9,2.06-1.49H44l-.78-2.42-.79,2.42H39.86l2.06,1.49-.79,2.41L43.19,38l2.05,1.49-.79-2.41Zm.08-11.83,2-1.5H44l-.78-2.41-.79,2.41H39.94L42,25.29l-.78,2.41,2-1.49,2.05,1.49ZM15.78,12.57l2-1.49H15.3l-.79-2.41-.78,2.41H11.19l2.06,1.49L12.46,15l2-1.49,2,1.49Zm14.29,0,2-1.49H29.58L28.8,8.67,28,11.08H25.48l2.05,1.49L26.75,15l2.05-1.49L30.85,15ZM58.81,25.28l2.06-1.49H58.33l-.78-2.41-.79,2.41H54.23l2.05,1.5-.79,2.41,2.06-1.49L59.6,27.7l-.78-2.42Zm-.07,11.84,2-1.49H58.26l-.79-2.42-.78,2.42H54.15l2.05,1.49-.78,2.41,2-1.49,2.05,1.49-.78-2.41ZM59,49l2.06-1.49H58.54l-.78-2.42L57,47.53H54.43L56.49,49l-.79,2.41,2-1.49,2.06,1.49L59,49Zm14.29,0,2-1.49H72.83L72,45.11l-.78,2.42H68.72l2,1.49L70,51.43,72,49.94l2.06,1.49ZM73,37.12l2-1.49H72.54l-.78-2.41L71,35.63H68.44l2,1.49-.78,2.42,2.05-1.49,2,1.49Zm.07-11.83,2.05-1.49H72.62l-.79-2.41-.78,2.41H68.51l2,1.49-.78,2.41,2-1.49,2,1.49-.78-2.41ZM44.36,12.57l2-1.49H43.87l-.78-2.41-.79,2.41H39.77l2,1.49L41,15l2.05-1.5,2,1.5Zm14.28,0,2.06-1.49H58.16l-.79-2.41-.78,2.41H54.05l2.05,1.49L55.32,15l2-1.5L59.42,15l-.78-2.42Zm14.29,0,2-1.49H72.44l-.78-2.41-.78,2.41H68.34l2,1.49L69.61,15l2-1.5,2,1.5-.78-2.42ZM9,55.14l2.05-1.49H8.54l-.79-2.41L7,53.65H4.43l2.05,1.49L5.7,57.55l2.05-1.49,2.06,1.49L9,55.14Zm-.28-11.9,2-1.49H8.25l-.78-2.41-.79,2.41H4.15L6.2,43.24l-.78,2.41,2.05-1.49,2.05,1.49-.78-2.41Zm.07-11.83,2.06-1.49H8.33L7.54,27.5l-.78,2.42H4.22l2.05,1.49-.78,2.41,2.05-1.49,2.05,1.49-.78-2.41Zm14.29,0,2-1.49H22.62l-.79-2.42-.78,2.42H18.51l2,1.49-.78,2.41,2-1.49,2.05,1.49-.78-2.41ZM23,43.24l2.06-1.49H22.54l-.79-2.41L21,41.75H18.43l2.06,1.49-.79,2.41,2.05-1.49,2.06,1.49Zm.29,11.9,2.05-1.49H22.82L22,51.24l-.78,2.41H18.72l2.05,1.49L20,57.55,22,56.06l2.05,1.49-.78-2.41Zm14.28,0,2.06-1.49H37.11l-.79-2.41-.78,2.41H33l2.06,1.49-.79,2.41,2.06-1.49,2.05,1.49-.79-2.41Zm-.28-11.9,2-1.49H36.82L36,39.34l-.78,2.41H32.72l2.05,1.49L34,45.65l2-1.49,2.05,1.49-.78-2.41Zm.07-11.83,2.06-1.49H36.9l-.79-2.42-.78,2.42H32.79l2.06,1.49-.79,2.41,2-1.49,2.06,1.49-.79-2.41ZM8.64,18.69l2-1.49H8.16l-.79-2.42L6.59,17.2H4.05L6.1,18.69l-.78,2.42,2.05-1.5,2.05,1.5Zm14.29,0L25,17.2H22.44l-.78-2.42-.79,2.42H18.34l2.05,1.49-.79,2.42,2.06-1.5,2.05,1.5-.78-2.42ZM51.67,31.41l2-1.49H51.19L50.4,27.5l-.78,2.42H47.08l2.05,1.49-.78,2.41,2-1.49,2.05,1.49ZM51.6,43.24l2-1.49H51.11l-.78-2.41-.79,2.41H47l2.05,1.49-.78,2.41,2-1.49,2.05,1.49Zm.28,11.9,2-1.49H51.4l-.79-2.41-.78,2.41H47.29l2.05,1.49-.78,2.41,2-1.49,2,1.49-.78-2.41Zm14.29,0,2-1.49H65.68l-.78-2.41-.78,2.41H61.58l2.05,1.49-.78,2.41,2.05-1.49,2,1.49-.78-2.41Zm14.28,0,2.06-1.49H80l-.78-2.41-.79,2.41H75.86l2.06,1.49-.79,2.41,2.06-1.49,2,1.49-.79-2.41ZM65.88,43.24l2.06-1.49H65.4l-.79-2.41-.78,2.41H61.29l2.06,1.49-.79,2.41,2-1.49,2.06,1.49-.79-2.41Zm14.29,0,2-1.49H79.69l-.79-2.41-.78,2.41H75.58l2,1.49-.78,2.41,2.05-1.49,2,1.49-.78-2.41ZM66,31.41,68,29.92H65.47l-.78-2.42-.79,2.42H61.37l2.05,1.49-.78,2.41,2-1.49,2,1.49L66,31.41Zm14.28,0,2.06-1.49H79.76L79,27.5l-.79,2.42H75.65l2.06,1.49-.79,2.41L79,32.33l2,1.49-.79-2.41Zm-43-12.72,2.06-1.49H36.73l-.79-2.42-.78,2.42H32.62l2.06,1.49-.79,2.42,2-1.5L38,21.11Zm14.29,0,2-1.49H51l-.78-2.42-.79,2.42H46.91L49,18.69l-.78,2.42,2-1.5,2.05,1.5-.78-2.42Zm14.28,0,2.06-1.49H65.3l-.78-2.42-.79,2.42H61.19l2.06,1.49-.79,2.42,2.06-1.5,2,1.5Z"/></g></g></svg>