<svg xmlns="http://www.w3.org/2000/svg" viewBox="0 0 170.08 113.38"><defs><style>.cls-1{fill:#01a616;}.cls-2,.cls-5{fill:#ff9501;}.cls-3{fill:#f30004;}.cls-4{fill:#231f20;}.cls-5{fill-rule:evenodd;}</style></defs><title>country-zambia</title><g id="Layer_2" data-name="Layer 2"><g id="Layer_1-2" data-name="Layer 1"><rect class="cls-1" width="170.08" height="113.38"/><rect class="cls-2" x="149.84" y="40.49" width="20.25" height="72.89"/><rect x="129.59" y="40.49" width="20.25" height="72.89"/><rect class="cls-3" x="109.34" y="40.49" width="20.25" height="72.89"/><path class="cls-4" d="M138.16,26.11a.38.38,0,0,0,0,.15,1.64,1.64,0,0,1-.52,1.44,1.8,1.8,0,0,1-1.06.4l-.25,0a1.66,1.66,0,0,0-.57.18.8.8,0,0,0-.33.41c0,.06-.05.12-.07.17h.18a1.68,1.68,0,0,0,.84-.07,3.84,3.84,0,0,0,.42-.27c.17-.13.31-.23.45-.2h0c.12,0,.19,0,.21.17s0,.12-.09.23l0,0a1.43,1.43,0,0,1-.2.23.6.6,0,0,0-.22.31.49.49,0,0,0,.07.28.76.76,0,0,1,.06.16.25.25,0,0,1,0,.17h0a.64.64,0,0,1,.19-.08.75.75,0,0,0,.38-.24,2.08,2.08,0,0,0,.17-.28.56.56,0,0,0,0-.23.69.69,0,0,1,0-.31.23.23,0,0,1,.32-.13c.17.06.18.14.18.28h0s0,.09,0,.16a.3.3,0,0,1,0,.1c.05.22.15.6.42.72l0,0,0-.05.1-.11a.59.59,0,0,0,.26-.59,1.52,1.52,0,0,0-.21-.43c-.1-.13-.14-.19-.05-.32a3.69,3.69,0,0,1,.6-.39.17.17,0,0,1,.22.06.25.25,0,0,1,0,.07h0s0,.31,0,.39a.45.45,0,0,1,0,.13v.08H140a.57.57,0,0,1,.18,0,.47.47,0,0,0,.23,0,2,2,0,0,0,.36-.32,2.2,2.2,0,0,1,.25-.23h0c.13-.08.22-.09.31,0a.29.29,0,0,1,.07.29,1.11,1.11,0,0,1-.07.22.79.79,0,0,0-.08.41.36.36,0,0,0,.08.22.33.33,0,0,1,.08.21v.13a.12.12,0,0,1,.05-.05l.1-.05c.12-.06.29-.14.32-.31a2,2,0,0,0,0-.43,1.44,1.44,0,0,0,0-.41.31.31,0,0,1,0-.1c0-.07.16-.4.48-.34a.65.65,0,0,1,.27.09.26.26,0,0,1,.13.17s0,0,0,.05.08.35.17.38l.2.05h.22a.45.45,0,0,1,.32.37.59.59,0,0,0,.11-.38.77.77,0,0,0-.13-.47.52.52,0,0,0-.31-.22.17.17,0,0,1-.11-.09c-.05-.08-.23-.44.07-.6-.25,0-.47-.11-.53-.29a6.2,6.2,0,0,1-.07-1L142,24.73l-.34.33.14.62v0h0l.13,1.56v0c0,.08-.08.42-.37.45h-.19a3.64,3.64,0,0,0-1.25.18.17.17,0,0,1-.12,0h0s-.93-.26-1-.5a7.8,7.8,0,0,1-.09-1.22,2,2,0,0,1,.09-.77,1.43,1.43,0,0,0-.09-.8l-.3.09-.43,1.36Zm-.32.15a.54.54,0,0,1,0-.18v0l.46-1.46h0a.17.17,0,0,1,.12-.11l.53-.15a.15.15,0,0,1,.19.1s.31.83.13,1.2a1.82,1.82,0,0,0-.06.62,8.63,8.63,0,0,0,.08,1.14,3.73,3.73,0,0,0,.71.25,4.07,4.07,0,0,1,1.33-.19h.17c.05,0,.07-.11.07-.15l-.12-1.53-.15-.69a.14.14,0,0,1,0-.15l.55-.55h0s0,0,0,0a.16.16,0,0,1,.22.06L143,26a.16.16,0,0,1,0,.09,6.28,6.28,0,0,0,.05,1,1.74,1.74,0,0,0,.6.09l.24,0a.87.87,0,0,1,.6.53h0a.16.16,0,0,1-.09.21.17.17,0,0,1-.21-.09h0l-.3-.12-.05,0-.07,0h-.09l-.19,0c-.07,0-.06.09,0,.13a.91.91,0,0,1,.44.34,1.28,1.28,0,0,1,.19.65.94.94,0,0,1-.61.9h0a.11.11,0,0,1-.11,0,.17.17,0,0,1-.09-.21c.1-.25,0-.33,0-.35h-.19a1.28,1.28,0,0,1-.26-.07c-.26-.08-.35-.46-.38-.6v0a.49.49,0,0,0-.16,0s-.09.05-.1.09a2.68,2.68,0,0,1,0,.44,3.85,3.85,0,0,1-.05.5.78.78,0,0,1-.5.53l-.07,0s.05.3.06.35a.13.13,0,0,1,0,.12.16.16,0,0,1-.22.07.93.93,0,0,1-.38-.87v0a.65.65,0,0,1-.14-.37,1.17,1.17,0,0,1,.06-.48,1.71,1.71,0,0,1-.48.39.61.61,0,0,1-.4,0l-.11,0c-.05,0,0,.12.06.21h0a.11.11,0,0,1,.06.1h0a.13.13,0,0,1,0,.12.16.16,0,0,1-.22,0,1,1,0,0,1-.25-.86v-.08a.57.57,0,0,1,0-.16l-.22.13a1.7,1.7,0,0,1,.25.51.87.87,0,0,1-.34.92.22.22,0,0,0-.07.07s.09.35.11.42a.14.14,0,0,1,0,.15.14.14,0,0,1-.21.06,1,1,0,0,1-.42-.54,1.21,1.21,0,0,1-.51-.81l0,.08a2.25,2.25,0,0,1-.2.34,1,1,0,0,1-.54.36l-.13,0s0,.24,0,.24h0a.27.27,0,0,1,0,.12.17.17,0,0,1-.23,0,.58.58,0,0,1-.25-.71l0-.06,0-.09a.72.72,0,0,1-.1-.45.63.63,0,0,1,.16-.36,1.89,1.89,0,0,1-.28.17,2,2,0,0,1-1,.1h-.08a2,2,0,0,0-.21.25.16.16,0,0,1-.15.08.16.16,0,0,1-.14-.17,2.46,2.46,0,0,1,.19-.75,1.12,1.12,0,0,1,.47-.57,1.94,1.94,0,0,1,.69-.23l.27,0a1.56,1.56,0,0,0,.9-.34C137.85,27.16,137.84,26.59,137.84,26.26Z"/><path class="cls-5" d="M138,26.08c0,.29.1,1.1-.46,1.49a2.09,2.09,0,0,1-1.24.41,1.18,1.18,0,0,0-1,.69,2.53,2.53,0,0,0-.18.71s.23-.33.34-.33a2,2,0,0,0,1-.08c.38-.18.63-.48.77-.45s.14,0,0,.19-.42.36-.44.61.11.37.13.49-.19.43.18.68c0,0-.06-.33.07-.41s.44-.1.61-.36a.86.86,0,0,0,.24-.6c0-.24,0-.32.14-.28s0,.12.1.32.13.74.53.93a.92.92,0,0,0,.36.51s-.19-.47-.1-.59.52-.39.39-.84-.34-.54-.29-.61a5.23,5.23,0,0,1,.55-.35s0,.32,0,.4-.05.65.19.84c0,0-.08-.5,0-.5s.3.1.46,0,.52-.48.64-.56.16-.05.14.11a1.78,1.78,0,0,0-.16.67c0,.29.17.29.17.41s0,.58.29.76c0,0-.13-.46,0-.54s.43-.17.49-.47a2.79,2.79,0,0,0,0-.91s.08-.28.3-.24.26.09.28.15.09.47.29.53a.84.84,0,0,0,.43.05s.33.09.14.58a.74.74,0,0,0,.49-.74.79.79,0,0,0-.57-.85s-.23-.36.12-.42.24-.09.44,0,.41.15.44.24-.16-.4-.47-.44-.91,0-1-.24a6.86,6.86,0,0,1-.05-1L142,24.46l-.55.55.16.7.13,1.56s0,.3-.22.32a4.16,4.16,0,0,0-1.51.2s-.83-.23-.87-.38a6.11,6.11,0,0,1,0-1.87c.16-.31-.13-1.07-.13-1.07l-.53.14Z"/><path class="cls-5" d="M141.37,13.67c.7-.34.76-1.23,0-1.42s-1.22-.23-1.22-.23-2-1.62-3.91-.19a4,4,0,0,0-1.84,3,36.45,36.45,0,0,0-5.17-.9c-.72.13-5.64-2.2-6.38-2.55s-.84,0-.32.46S124,13.55,124,13.55s-5.13-2.36-6-2.73-2-1.12-2.09-1.12-.19.91.42,1.59,1.91,1.83,1.91,1.83a21.2,21.2,0,0,1-2.65-1.28c-.64-.46-1.59-1.54-1.79-1.41a3.69,3.69,0,0,0,1.22,2.67,6.46,6.46,0,0,0-1.7-1c-.42,0,.72,1.87,1.26,2a12.81,12.81,0,0,1-1.46-.81c-.24-.23-.18.48.15.77a6.6,6.6,0,0,0,2.83,1.78c1.66.51,2.9.94,2.9.94s-1.19.05-1.23.21.29.47,1,.63a13.49,13.49,0,0,0,2.65.18,13.75,13.75,0,0,0-2.16.53c-.14.17.78.52,1.18.6a12.7,12.7,0,0,0,3.4-.06,11.55,11.55,0,0,1-1.82.54c-.32,0,0,.35.34.44a7.09,7.09,0,0,0,2,.25,17,17,0,0,0,2.9-.53,11.87,11.87,0,0,1-2.19.94,2.81,2.81,0,0,0,2.25.63,3.86,3.86,0,0,0,2-.75,8.13,8.13,0,0,1-1.56,1.07,4.93,4.93,0,0,0,2.25,0,2,2,0,0,1-.5.45c-.21.1.88.5,2.52-.26,0,0-.56.47-.54.65s.54.24,1.13.18,1.93-.44,1.93-.44-.9.43-.8.76,1.2,1.07,3.09.52c0,0-.27.55-.09.63s.63-.65.63-.65a4.35,4.35,0,0,0-.37,1.09c0,.35-.3,1.56-.3,1.76s.44-.23.64-.5a3.37,3.37,0,0,0,.34-.74,14.66,14.66,0,0,0-.23,1.77c.06.1.58-.32.78-.69a6.49,6.49,0,0,0,.38-1s.84,1.22,1.08,1.24-.11-1-.11-1l.18-3A25.08,25.08,0,0,1,141,24.54a5.69,5.69,0,0,1,.13,2.07c0,.15.29-.18.51-.5A3.76,3.76,0,0,0,142,25a2.69,2.69,0,0,0,2.27,1.82s-1.19-1.83-1-2.07.57.38.81.51.51.19.55.09-.38-.27-.49-.41-.56-.64-.57-.92a2.64,2.64,0,0,0,1.88.86s.07,0,0-.13-.79-.74-.76-.82.2,0,.31.08a6.56,6.56,0,0,0,1.74,1c.57.1.9.11,1.05,0s-.12-.24-.56-.51a7.73,7.73,0,0,1-1.52-1.3c-.05-.16,0-.14.27,0a8.37,8.37,0,0,0,.93.48,7.4,7.4,0,0,0,2.22.78c.58,0,.75.07.83-.08s-.46-.53-.69-.77-1.09-.79-1.13-.84a.08.08,0,0,1,.1-.12c.11,0,.59.34.82.42a2.25,2.25,0,0,0,1.35.09c.61-.15.71-.18.71-.25a5.62,5.62,0,0,0-.89-.32s2-.05,2.18-.31-1.13-.46-1.13-.46,3-.1,4.33-1c0,0,.34-.22.36-.3a40,40,0,0,0,4.45-1.15,10,10,0,0,0,3.34-2.12,4.51,4.51,0,0,0,.55-.92,1.32,1.32,0,0,0-.79.17s2.28-2,2.25-2.32a2.62,2.62,0,0,0-1.69.49s2.53-2.25,2.31-2.69c0,0-2.63,1.25-3.48,1.71,0,0,2.65-2.17,2.25-2.94s-4,2.17-5.55,2.72c0,0,3.51-2.42,3.22-2.92l-1.12.51c-.39.18-6.12,2.56-6.5,2.64,0,0,1.44-1.28.78-1.44,0,0-4.07,1.27-6.16,1.7s-3.22,1.09-3.94,1.17S144,15,143,15a16.28,16.28,0,0,0-3.12.34l-.32.11s-.73-2,.44-2.17a3.78,3.78,0,0,1,.65-.07.45.45,0,0,0,.24,0,2.08,2.08,0,0,1,.27-.08S141.5,13.19,141.37,13.67Z"/><path class="cls-4" d="M141.47,13.51a.8.8,0,0,0,.28-.3.64.64,0,0,0,.08-.35.54.54,0,0,0-.13-.32.73.73,0,0,0-.38-.21c-.79-.18-1.21-.23-1.21-.23h-.05a3.21,3.21,0,0,0-3.8-.19,3.87,3.87,0,0,0-1.81,2.93v.11l-.1,0a38.43,38.43,0,0,0-5.14-.89,6.44,6.44,0,0,1-2-.6c-1.7-.69-3.91-1.73-4.39-2a1,1,0,0,0-.48-.14l0,0s0,0,0,.05a.92.92,0,0,0,.29.4c.53.49,1.53,1.72,1.54,1.72l.22.27-.32-.14s-5.14-2.37-6-2.74a16,16,0,0,1-1.49-.79,5.13,5.13,0,0,0-.55-.31s0,0,0,0a.9.9,0,0,0,0,.18h0a1.86,1.86,0,0,0,.49,1.22c.61.68,1.9,1.82,1.9,1.83s.24.21.36.31l-.44-.18a20.78,20.78,0,0,1-2.67-1.29c-.25-.18-.55-.46-.84-.72s-.77-.72-.85-.69a1.51,1.51,0,0,0,.11.71,5.17,5.17,0,0,0,.58,1.25h0a2.33,2.33,0,0,0,.53.59h0l-.1.12,0,0a6,6,0,0,0-1.6-1h0a.32.32,0,0,0,0,.15,1.49,1.49,0,0,0,.14.35,4.13,4.13,0,0,0,1,1.34l.11,0,1.13.55-1.19-.4-.11,0a9.16,9.16,0,0,1-1.38-.78h0v.07a1,1,0,0,0,.26.59l.15.14a6.34,6.34,0,0,0,2.66,1.63c1.66.5,2.89.94,2.9.94l.4.14-.42,0a4.66,4.66,0,0,0-1.16.14c0,.06.07.16.24.27a2.37,2.37,0,0,0,.7.27,9.2,9.2,0,0,0,1.12.14c.6,0,1.22,0,1.51,0l1.06,0-1.05.19a15.62,15.62,0,0,0-2.1.5l0,0a1.83,1.83,0,0,0,.22.13,4.1,4.1,0,0,0,.87.3,13.46,13.46,0,0,0,1.91.08,6.49,6.49,0,0,0,1.44-.14l.21-.05h.08l.2,0c.23,0,.27,0,.13.06s-.12.09-.33.13l-.09,0a1.54,1.54,0,0,1-.28.09c-.53.17-1.5.45-1.7.48l-.06,0,0,.05h0a.78.78,0,0,0,.37.21c.17,0,.43.11.77.16a6.51,6.51,0,0,0,1.26.09,17,17,0,0,0,2.88-.53l.7-.2-.64.35a15.66,15.66,0,0,1-2,.91,2.77,2.77,0,0,0,2,.51,3.88,3.88,0,0,0,1.9-.69l.05,0,.11.12a.11.11,0,0,1,0,0,9.94,9.94,0,0,1-1.29.94,4.29,4.29,0,0,0,1.95,0l.34-.17-.25.29a2.59,2.59,0,0,1-.45.44l.15,0a3.77,3.77,0,0,0,2.22-.41l.55-.26-.46.39s-.53.44-.51.58.11.08.27.11h0a3.27,3.27,0,0,0,.77,0c.58-.07,1.92-.44,1.92-.44l.86-.24-.8.39s-.84.41-.76.67a1.52,1.52,0,0,0,1.16.61,4.17,4.17,0,0,0,1.83-.14l.17-.05c0,.05,0,.1-.08.16s-.23.47-.12.51.52-.61.52-.61.22-.06.14.07a4.59,4.59,0,0,0-.36,1.06c0,.19-.1.61-.17,1s-.1.57-.12.7l0,0h0a2.35,2.35,0,0,0,.44-.45,3,3,0,0,0,.33-.73c.08-.19.22-.27.17.05,0,0-.27,1.48-.26,1.68l0,0,.2-.15a1.76,1.76,0,0,0,.41-.49,5.71,5.71,0,0,0,.37-.94c.06-.19,0-.19.14,0s.82,1.19,1,1.21-.2-.93-.2-.93v0h0l.18-3a2.44,2.44,0,0,0,0-.27c.05.08.1.16.14.24a24.35,24.35,0,0,1,1.15,2.32,4.76,4.76,0,0,1,.15,1.92.22.22,0,0,1,0,.08,2.7,2.7,0,0,0,.36-.45,3.65,3.65,0,0,0,.34-1c0-.16.08-.27.15,0a2.65,2.65,0,0,0,2,1.74c-.28-.45-1.1-1.78-.93-2s.23-.11.38,0a1.94,1.94,0,0,1,.27.24,1.22,1.22,0,0,0,.27.23.8.8,0,0,0,.16.08.59.59,0,0,0,.22.05s.05,0,.05,0l-.21-.13A1.17,1.17,0,0,1,144,25a4.29,4.29,0,0,1-.32-.41,1.35,1.35,0,0,1-.26-.55c0-.27,0-.26.14-.06a2.55,2.55,0,0,0,1.81.83h0a0,0,0,0,1,0,0,2.36,2.36,0,0,0-.38-.39c-.21-.2-.4-.38-.38-.47s.12-.11.23-.07l.2.1h0l.15.1a5.62,5.62,0,0,0,1.56.86,3.89,3.89,0,0,0,.67.07.54.54,0,0,0,.32-.08,0,0,0,0,0,0,0,1.08,1.08,0,0,0-.29-.19l-.26-.16c-.23-.15-.63-.46-1-.74a2.72,2.72,0,0,1-.59-.6c0-.15,0-.22.11-.23a.73.73,0,0,1,.28.11l.15.09c.13.07.28.16.77.39h0c.34.16.75.35,1.15.5a3.48,3.48,0,0,0,1,.27l.25,0c.35,0,.47,0,.51-.06s-.2-.25-.42-.43l-.26-.24a6.15,6.15,0,0,0-.82-.62c-.16-.12-.29-.2-.31-.23h0a.19.19,0,0,1,0-.1.11.11,0,0,1,0-.08h0a.12.12,0,0,1,.08-.06.12.12,0,0,1,.1,0,1.79,1.79,0,0,1,.34.16,2.85,2.85,0,0,0,.49.25,2.46,2.46,0,0,0,.51.13,2,2,0,0,0,.79,0c.31-.07.48-.12.58-.15s.07,0,.07,0-.83-.25-.83-.26l-.51-.14h.53a7.41,7.41,0,0,0,2.12-.28c.11-.16-1.08-.33-1.08-.33-.57-.14-.57-.16,0-.17,0,0,3-.09,4.29-1h0s.31-.21.32-.26a.43.43,0,0,1,0-.05H156a41,41,0,0,0,4.44-1.14,10.77,10.77,0,0,0,1.85-.95,6.55,6.55,0,0,0,1.45-1.15c.15-.2.29-.42.4-.59s.08-.15.11-.2a1,1,0,0,0-.63.15l-.1-.12a18.6,18.6,0,0,0,2.21-2.19,2.74,2.74,0,0,0-1.56.49l-.74.45.65-.58s2.19-2,2.3-2.51c-.49.23-2.63,1.26-3.38,1.66l-.74.41.65-.54s2.6-2.13,2.23-2.85c-.1-.19-.49-.06-1,.22s-1.2.69-1.87,1.12a15.4,15.4,0,0,1-2.54,1.42l-.55.2.48-.34s3.12-2.15,3.2-2.74l-1,.48c-.25.11-2.64,1.11-4.46,1.84-1,.43-1.91.77-2.06.81l-.3.07.23-.22s1.29-1.15.84-1.29c-.32.1-4.14,1.28-6.14,1.69a18.64,18.64,0,0,0-2.74.81,5.42,5.42,0,0,1-1.21.36,9.44,9.44,0,0,1-1.58,0c-.45,0-.92,0-1.34,0s-1.15,0-1.74.11a9.38,9.38,0,0,0-1.35.23l-.32.11-.07,0,0-.08s-.77-2.11.5-2.28l.42-.06a1.12,1.12,0,0,1,.25,0h0a.52.52,0,0,0,.18,0h0l.28-.09h0a.44.44,0,0,1,.3.5Zm.42-.22a1.13,1.13,0,0,1-.49.45l-.16.08a1.54,1.54,0,0,1,0-.17c.09-.34-.09-.45-.15-.48l-.24.08h0a.38.38,0,0,1-.24,0h-.25l-.41.06c-.94.13-.51,1.63-.39,2l.24-.09h0a12,12,0,0,1,1.38-.23c.6-.06,1.23-.1,1.76-.11s.9,0,1.35,0a10.26,10.26,0,0,0,1.55,0,5.48,5.48,0,0,0,1.17-.35,19.42,19.42,0,0,1,2.76-.81c2.09-.44,6.15-1.7,6.16-1.7h0c.59.13-.07.9-.48,1.32l1.69-.68c1.82-.74,4.21-1.73,4.46-1.84s1.11-.52,1.11-.52l.07,0,0,.07c.23.4-1.52,1.77-2.54,2.52.53-.28,1.13-.67,1.74-1s1.34-.85,1.88-1.13,1.1-.44,1.26-.14c.3.6-1,1.91-1.77,2.6,1.11-.56,2.89-1.4,2.89-1.41l.07,0,0,.07c.17.37-1.17,1.7-1.89,2.38A2.31,2.31,0,0,1,165.8,14h.06s0,0,0,.06c0,.31-1.31,1.53-2,2.1a1.61,1.61,0,0,1,.41,0h.08a.19.19,0,0,1,0,.08,1.16,1.16,0,0,1-.16.35c-.11.18-.26.4-.41.61a6.77,6.77,0,0,1-1.5,1.19,10.31,10.31,0,0,1-1.87,1A38.72,38.72,0,0,1,156,20.51a2,2,0,0,1-.36.3h0a9,9,0,0,1-3.78,1c.37.1.75.26.6.46s-1.19.3-1.79.33c.24.09.5.19.51.26s0,.12-.18.17-.28.08-.59.16a2.09,2.09,0,0,1-.85,0,2.68,2.68,0,0,1-.55-.14,4.67,4.67,0,0,1-.51-.25,2.44,2.44,0,0,0-.3-.16h0l.27.19a7.86,7.86,0,0,1,.84.64l.25.22c.26.23.54.47.45.64s-.24.17-.66.14l-.25,0a3.8,3.8,0,0,1-1.09-.28c-.4-.15-.81-.34-1.16-.5h0c-.5-.24-.64-.33-.77-.4l-.16-.09a.88.88,0,0,0-.2-.09s0,0,0,0a3.62,3.62,0,0,0,.55.52,8.45,8.45,0,0,0,.94.73l.26.16a1.32,1.32,0,0,1,.33.22.16.16,0,0,1,0,.26.67.67,0,0,1-.43.12,3.34,3.34,0,0,1-.7-.07,6,6,0,0,1-1.62-.88l-.14-.1h0l-.13-.06c.06.05.17.14.27.24a2,2,0,0,1,.43.47c.05.2-.08.23-.11.23h0a2.49,2.49,0,0,1-1.69-.64,1.63,1.63,0,0,0,.11.17c.12.17.26.33.32.4a1.83,1.83,0,0,0,.22.16c.17.1.33.2.29.32h0s0,0,0,0h0a.21.21,0,0,1-.22.08,1,1,0,0,1-.26-.06l-.18-.08a1.64,1.64,0,0,1-.31-.26,1.31,1.31,0,0,0-.25-.23c-.06-.05-.12-.07-.15,0-.13.19,1,2,1,2l.09.15-.17,0A2.74,2.74,0,0,1,142,25.31a2.25,2.25,0,0,1-.71,1.34.24.24,0,0,1-.09.06.1.1,0,0,1-.14,0,.14.14,0,0,1,0-.07.68.68,0,0,1,0-.19,4.79,4.79,0,0,0-.14-1.86,21.74,21.74,0,0,0-1-2c0,.91-.11,1.82-.16,2.72,0,.14.37,1.15,0,1.13s-.82-.82-1.06-1.14a4.68,4.68,0,0,1-.33.82,1.9,1.9,0,0,1-.45.53,1.5,1.5,0,0,1-.23.17c-.09.05-.16.06-.21,0h0l0,0h0a5.25,5.25,0,0,1,.11-1.16l-.09.14a2.43,2.43,0,0,1-.47.49h0l-.13.08c-.07,0-.12,0-.15,0h0a.13.13,0,0,1,0-.08,8,8,0,0,1,.14-.79c.07-.38.15-.8.16-1a2.13,2.13,0,0,1,.13-.53c-.12.12-.25.21-.34.17s-.09-.38,0-.57a4.28,4.28,0,0,1-1.74.1,1.66,1.66,0,0,1-1.28-.72c-.06-.2.13-.41.36-.57-.45.11-1.07.26-1.41.3a3.63,3.63,0,0,1-.81,0h0c-.24,0-.39-.12-.41-.25s.11-.27.24-.42a3.67,3.67,0,0,1-1.91.26,1.15,1.15,0,0,1-.22-.07c-.08,0-.12-.09-.12-.14a.13.13,0,0,1,.08-.1,1.17,1.17,0,0,0,.27-.21,6.35,6.35,0,0,1-2-.09l-.31-.06.3-.1a3.44,3.44,0,0,0,.76-.45,5.85,5.85,0,0,1-1.17.29,2.82,2.82,0,0,1-2.31-.66l-.14-.12.19,0a6.21,6.21,0,0,0,1.52-.6,12.77,12.77,0,0,1-2.23.36,6.84,6.84,0,0,1-1.29-.09,7.79,7.79,0,0,1-.78-.16.94.94,0,0,1-.45-.26h0a.25.25,0,0,1-.07-.12.12.12,0,0,1,0-.14.22.22,0,0,1,.16-.08c.12,0,.54-.13,1-.26l-.61,0a15.33,15.33,0,0,1-1.94-.09,4.33,4.33,0,0,1-.91-.32,1.37,1.37,0,0,1-.25-.15c-.08-.07-.12-.14-.09-.21h0a.05.05,0,0,1,0-.05,5.2,5.2,0,0,1,1.41-.4l-.72,0a7.74,7.74,0,0,1-1.14-.15,2.27,2.27,0,0,1-.75-.28c-.24-.15-.34-.32-.32-.44s.53-.21.91-.25c-.49-.17-1.42-.47-2.52-.81a6.43,6.43,0,0,1-2.72-1.66l-.14-.14a1.07,1.07,0,0,1-.32-.7.35.35,0,0,1,0-.15.16.16,0,0,1,.1-.11.19.19,0,0,1,.17.07,5.48,5.48,0,0,0,.83.49,6,6,0,0,1-.68-1,2.24,2.24,0,0,1-.16-.38.39.39,0,0,1,0-.29.18.18,0,0,1,.14-.06,3.2,3.2,0,0,1,1.1.57h0a4.81,4.81,0,0,1-.6-1.29,1.31,1.31,0,0,1-.08-.86l0,0h0c.17-.11.59.27,1,.7a9.34,9.34,0,0,0,.82.71,15.7,15.7,0,0,0,2.21,1.09c-.44-.39-1.15-1.06-1.57-1.52a2,2,0,0,1-.53-1.33h0a1.06,1.06,0,0,1,0-.21.26.26,0,0,1,.07-.15.11.11,0,0,1,.08,0,2.81,2.81,0,0,1,.66.34c.42.24,1,.57,1.46.78.73.32,4.54,2.07,5.67,2.59a17.6,17.6,0,0,0-1.28-1.43,1.2,1.2,0,0,1-.35-.48.22.22,0,0,1,0-.18.22.22,0,0,1,.16-.09,1.13,1.13,0,0,1,.57.15c.48.23,2.68,1.28,4.38,2a7,7,0,0,0,2,.6,33.25,33.25,0,0,1,5.11.86,4.19,4.19,0,0,1,1.88-3,3.35,3.35,0,0,1,4,.18c.09,0,.51.07,1.21.23a.86.86,0,0,1,.46.26.68.68,0,0,1,.17.42.79.79,0,0,1-.1.44Zm-28.81,0Z"/><path class="cls-4" d="M140,12.6a.73.73,0,0,0,.3.12,1.66,1.66,0,0,1,.29.08,4.26,4.26,0,0,1,.55.22c0,.05,0,.1-.07.14s-.17-.08-.53-.21-.69-.06-.54-.35Zm12.11,5.8c-.14,0-.91.08-1.3.08h-1a.52.52,0,0,1-.25.12,2.53,2.53,0,0,1-.59.09,6.42,6.42,0,0,1-3-.64c.23.15.48.31.74.46a14.57,14.57,0,0,0,5.16,1.8c.35,0,.53.07.6.24.26,0,1.54-.07,2.5-.14l1-.07v.16l-1,.07c-.91.07-2.1.16-2.5.14,0,.15-.22.3-.49.42a2.76,2.76,0,0,1-.85.24,1.5,1.5,0,0,1-.3,0,9.34,9.34,0,0,1-1.47-.32,14,14,0,0,1-1.5-.49c-.34-.15-1.14-.54-1.87-.91l1.78,1.14a10.31,10.31,0,0,0,1.55.81l.19.08-.2.07a3.21,3.21,0,0,1-1.2.08h0a8.39,8.39,0,0,0,1.82.54l.34.08c0,.06,0,.11-.05.16l-.33-.08a5.77,5.77,0,0,1-2-.69,7,7,0,0,0-.72-.15,2.86,2.86,0,0,0,1,.87,1,1,0,0,1-.07.15,3.09,3.09,0,0,1-1.19-1.08l-.25-.08-.38-.15.37.31h0c.49.39,1,.81.92,1,0,0,0,0,0,0h0c-.08.11-.33.11-.67.05s-.68-.19-1-.31a6,6,0,0,1-1-.43l-.16-.11c.28.36.49.79.14.95s-1.55-.4-2.12-.74c.12.23.34.67.52,1.07s.26.59.3.72l-.16,0a5.65,5.65,0,0,0-.29-.69c-.22-.5-.51-1.09-.58-1.21a7.08,7.08,0,0,0-1-1.13c-.21-.22-.13-.38.12-.11s.67.72.89,1l.13.08c.48.29,1.68,1,2.11.82s-1.08-1.59-1.34-1.84a1.56,1.56,0,0,1-.34-.46c-.14-.27,0-.36.16,0a1.64,1.64,0,0,0,.29.39c.14.13.43.38.75.64s.45.35.66.48a5.32,5.32,0,0,0,.92.41,8.59,8.59,0,0,0,1,.31c.27,0,.47.07.5,0s-.41-.51-.86-.87h0a4.74,4.74,0,0,1-.74-.67,8.53,8.53,0,0,1-.85-.53c-.56-.4-1.1-.84-1.51-1.2s-.79-.74-1.2-1.17l-.39-.42c.06.25.12.58.17.91s.11.78.13,1.11-.12.56-.16,0c0-.32-.07-.71-.13-1.09a9,9,0,0,0-.25-1.22l-.21-.28a4.24,4.24,0,0,0-.66-.72,9.12,9.12,0,0,0-1-.85,3.13,3.13,0,0,1-.65-.6c-.15-.18-.51-.6-.19-.68a1.65,1.65,0,0,0,.31.58,3.49,3.49,0,0,0,.63.57,10.62,10.62,0,0,1,1,.86,4.63,4.63,0,0,1,.69.76l.08.12a10.61,10.61,0,0,0,1.12.13,1.25,1.25,0,0,0,.54,0c.08-.07-.45-.33-.45-.33-.16-.08-.14-.21,0-.15,0,0,1.8.49,2.17.14s-.85-.57-.86-.57-.11-.19,0-.16h0a8.51,8.51,0,0,0,2.83.27c.44-.17-.79-.56-.79-.56-.35-.09-.24-.19,0-.16,0,0,2.43.3,2.69-.17s-.63-.35-.7-.35h0c-.19,0-.26-.14,0-.16a18,18,0,0,0,2.46-.28c.75-.17,1.92-.55,2.72-.81L154,14c.7-.22,1.3-.48,1.3-.48a1,1,0,0,0,.07.15s-.61.26-1.33.48l-.49.16c-.73.24-1.76.58-2.51.77.26.08.66.16,1.08.24a13.6,13.6,0,0,0,1.67.2c.7,0,1.92,0,1.92,0h.21l-.15.15a4.13,4.13,0,0,1-3.3.92c.36.15.68.32.68.46s0,0,0,0h0c0,.09-.23.13-.52.12s-.58,0-.93-.05L151,17c.65.22,1.24.48,1.2.66h0l0,0c-.08.14-.75.15-1.57.07a19.13,19.13,0,0,1-2.28-.35,11.45,11.45,0,0,1,1.43.87h1c.39,0,.78,0,.91,0s.28.09.4.11Zm0-2.94a6.19,6.19,0,0,1-1.31-.32v0a14.68,14.68,0,0,1-1.73.24c.17.08.26.22.13.47s-1.5.37-2.27.31c.39.18.77.45.25.65a5.34,5.34,0,0,1-2.1-.1c.22.15.34.33.13.52a.46.46,0,0,1-.22.11h0a6.82,6.82,0,0,0,4,1.21,3.1,3.1,0,0,0,.56-.08l.16-.06a21.25,21.25,0,0,0-2.1-1.19c-.1-.05,0-.21.07-.15a3,3,0,0,0,.65.2,17.7,17.7,0,0,0,2.38.38,4.46,4.46,0,0,0,1.41,0,7.22,7.22,0,0,0-2.11-.8,2.26,2.26,0,0,1-1-.44l.54.15.52.14c.43.09,1.09.18,1.67.24a8.58,8.58,0,0,0,.92.06,1.3,1.3,0,0,0,.36,0c-.06-.21-1.58-.64-1.58-.65l0-.15a4.53,4.53,0,0,0,4-.53c-.39,0-1.19,0-1.7,0a12.31,12.31,0,0,1-1.7-.21Zm-7.22,2c-.14-.09-.1-.1-.15-.1a4.64,4.64,0,0,1-1.39-.15c.13.12.21.24.08.34a1.23,1.23,0,0,1-.65.07,8.41,8.41,0,0,1-.95-.1c.15.18.36.41.58.64.4.43.87.89,1.18,1.16s1,.8,1.5,1.19a7.22,7.22,0,0,0,1.67.9,6.44,6.44,0,0,0,1.4.27,4.49,4.49,0,0,0,.91,0,10.1,10.1,0,0,1-1.35-.72c-.56-.39-4.2-2.66-4.21-2.67s-.2-.24-.17-.29l1.35.85h0s2.61,1.31,3.27,1.6a14.18,14.18,0,0,0,1.48.49,9.89,9.89,0,0,0,1.45.31,1.13,1.13,0,0,0,.26,0,2.79,2.79,0,0,0,.81-.23c.22-.1.38-.21.39-.3h0c0-.14-.15-.16-.48-.2a14.64,14.64,0,0,1-5.22-1.82,14.39,14.39,0,0,1-1.76-1.2Zm7.31,1.71a12.67,12.67,0,0,0-2.34-.22,16.86,16.86,0,0,0,2.33.38,16.94,16.94,0,0,0,2.35.08,20.67,20.67,0,0,0,2.6-.29,13.08,13.08,0,0,0,2.2-.54c.53-.2,1.27-.48,2.05-.84a14.56,14.56,0,0,0,2.25-1.28l-.09-.13a14.62,14.62,0,0,1-2.23,1.26c-.77.36-1.51.64-2,.84a13.94,13.94,0,0,1-2.18.53,22.72,22.72,0,0,1-2.57.29,18.49,18.49,0,0,1-2.34-.08ZM162,15.55l.36-.16c.83-.35,1.64-.8,1.64-.8s.05.09.08.14-.81.45-1.66.81l-.36.15a39,39,0,0,1-4.23,1.59C158,16.9,161,16,162,15.55Zm-6.48,1a11,11,0,0,0-2.77.94c.47-.1,1.75-.45,2.82-.78s2.51-.81,3.15-1.06c1.2-.45,4.16-1.88,4.17-1.88a1,1,0,0,0-.07-.15s-3,1.43-4.15,1.88c-.64.24-1.93.67-3.15,1Zm2-2.28a21.8,21.8,0,0,0-3.41,1.22c.5-.11,2.1-.58,3.46-1.07a9.88,9.88,0,0,0,2-.88l-.09-.13a9.5,9.5,0,0,1-2,.86Zm-8,7c-.14,0-.4,0-.42,0a6.77,6.77,0,0,0,2.27.64c0-.05,0-.1,0-.16a5.53,5.53,0,0,1-1.84-.49Zm-23.05-3.55c.59-.31,1-.62,1.62-.94a10.55,10.55,0,0,0,1-.62,3.19,3.19,0,0,0,2-.13l-.4.5-.1.12h.16l1.16.09a1.8,1.8,0,0,1-.2-.19l-.8,0,.5-.61.21-.26-.31.14a3.62,3.62,0,0,1-2,.26l.49-.49.18-.18-.25,0a4.07,4.07,0,0,1-2.07-.16l.55-.33.19-.11-.22,0a17.64,17.64,0,0,1-4-1.25l-.08.15c.32.16.67.3,1,.44a2.83,2.83,0,0,1-.53.22,4.63,4.63,0,0,1-1,.21h-.1l0,.1s.17.76,2,.36a4.65,4.65,0,0,1-1.32.9l-.21.08L124,16a4.21,4.21,0,0,0,2.28,0c-.39.37-1.1,1-1.1,1l-.13.11.16,0a5.48,5.48,0,0,0,1.48.06l.25-.05c-.42.26-.86.48-.86.48l-.24.12.27,0a7.69,7.69,0,0,0,2.89-.27,8.66,8.66,0,0,1-1.57.87l-.21.07.21.08a5.66,5.66,0,0,0,3.86-.19c-.54.33-1,.61-1.2.71h0l-.23.11c-.16.06-.3.13-.32.23h0c0,.1.13.2.58.29l-1.12.87.1.14,1.24-1h0a3.41,3.41,0,0,0,1.88-.4,7.51,7.51,0,0,0,2-1.34,2.41,2.41,0,0,0,.48.58l-.51.58h0s-1.78,1.1-2.39,1.39l-.6.28a12.29,12.29,0,0,0-1.35.7l.14.08A11.8,11.8,0,0,1,131.3,21l.6-.28c.44-.21,1.46-.82,2-1.17a2.55,2.55,0,0,0-.44.72l0,.07.07,0a2,2,0,0,0,2-.63c.34.36,2.09,2.31,1.27,3.58l.14.09a2.13,2.13,0,0,0-.1-2.11,2.61,2.61,0,0,0,.13-.6.77.77,0,0,1,.1-.35s.12.07.25.2a1.85,1.85,0,0,0,.56.41,2.75,2.75,0,0,0,.56.16,1.68,1.68,0,0,1,.77.3c0,.05.1.09.14.14h0a.91.91,0,0,1,.41.74H140a1,1,0,0,0-.46-.86h0l-.14-.13a1.72,1.72,0,0,0-.84-.34,4.26,4.26,0,0,1-.54-.16,1.94,1.94,0,0,1-.51-.38c-.2-.19-.34-.33-.48-.19a.85.85,0,0,0-.14.44,3.83,3.83,0,0,1-.08.42,8,8,0,0,0-1.14-1.53l-.06-.06-.05.06a2,2,0,0,1-1.85.67,9.92,9.92,0,0,1,1.25-1.59l.06-.07-.07-.05a2.22,2.22,0,0,1-.55-2.62c.2-.41.09-.55-.14-.07l0,.07a15,15,0,0,1-1.4,1.44,5.88,5.88,0,0,1-5,1.14,17.43,17.43,0,0,0,2.59-1.58c-.28-.08-.19-.09-.42.07a6.32,6.32,0,0,1-3.47.7ZM128,16.57a3.67,3.67,0,0,1-1.27.47,5.43,5.43,0,0,1-1.26,0c.11-.09,1.81-1.58,1.93-1.74a3.62,3.62,0,0,0,2,.26L129,16h0a10.39,10.39,0,0,1-1,.62Zm-2.81-2.46a19.93,19.93,0,0,0,2.65.72l-.48.29-.12.06,0,0a2.89,2.89,0,0,1-2.94.69,5.31,5.31,0,0,0,1.38-1.05l.19-.2-.27.07c-1.46.39-1.9.09-2-.08a5.29,5.29,0,0,0,.93-.21,2,2,0,0,0,.67-.31Zm-1.25,4.69,1.39-.38s.31,0,.32.07L124,19c0-.05,0-.1,0-.15Zm-2.57-1.08c.69-.19,1.16-.07,1.86-.26,0,.06.36,0,.38.08-.69.19-1.5.14-2.19.33,0-.05,0-.1-.05-.15Zm-2.36-1,1.76-.06c0,.06.22.11.23.16l-2,.06V16.7Zm-4.26-2.65c.6.34,5.17,1.7,5,2.09,0,0-4.89-1.83-5.11-2l.08-.14Zm.35-1-.12.11a2.25,2.25,0,0,0,.5.34,8.34,8.34,0,0,0,.79.38c.55.22,5.48,2.07,5.5,2.08.13-.34-4.78-2-5.43-2.23a6.29,6.29,0,0,1-.78-.37,2.25,2.25,0,0,1-.46-.31Zm3.2,0a1.13,1.13,0,0,0-.1.13c.1.07.67.31,1.35.6,1.15.48,2.62,1.06,2.66,1.07,0-.33-2.23-1.07-2.59-1.22-.68-.28-1.24-.52-1.32-.58Zm13.92,6.17a3.4,3.4,0,0,1-1.79.38c-.51-.09-.68-.12-.67-.15h0s.11-.05.22-.11l.25-.11h0a18.85,18.85,0,0,0,2.67-1.76c.44-.39.87-.85,1.16-1.16a3,3,0,0,0,.13,1.56,7.49,7.49,0,0,1-2,1.35Zm-.13,2.39c.33-.15,1.66-.87,1.67-.87s0,.1.07.14-1.34.73-1.67.87l-.07-.14Zm2.46.44c.16-.06.52-.19.79-.32a1.93,1.93,0,0,0,.4-.23l.11.12a2.31,2.31,0,0,1-.44.26c-.27.12-.67.26-.83.32l0-.15ZM138,23.68a5.48,5.48,0,0,1-.11,1.31l-.14-.06a6,6,0,0,0,.09-1.25c0-.13.16-.17.16,0Zm1.35-4.15c-.06-.31-.22-.27-.15,0s.08.43.69,1c.13.14.26.25.36.35a1.4,1.4,0,0,1,.45.57c.19.57.26.3.16,0a1.51,1.51,0,0,0-.5-.65l-.36-.35c-.57-.57-.59-.66-.65-.95Zm-4.84-4.46a.45.45,0,0,1-.18-.24l.16,0a.37.37,0,0,0,.12.15c.43.36.21.39-.1.12Zm2.64-2.91a3.2,3.2,0,0,0,.36-.19c.47-.27,1-.57,1.47.08l0,0v0s-.13.43-.81.33c-.23,0-.35-.06-.45-.08a1.51,1.51,0,0,0-.56-.06h-.41l.39-.15Zm.44-.05-.09.05a1.64,1.64,0,0,1,.27.05,3.68,3.68,0,0,0,.44.08c.42.06.56-.11.61-.18C138.39,11.62,137.94,11.88,137.54,12.11Z"/></g></g></svg>