<svg xmlns="http://www.w3.org/2000/svg" viewBox="0 0 170.08 113.39"><defs><style>.cls-1,.cls-3{fill:#fff;}.cls-2{fill:#018c04;}.cls-3,.cls-5{fill-rule:evenodd;}.cls-4{fill:#cd001f;}</style></defs><title>country-kenya</title><g id="Layer_2" data-name="Layer 2"><g id="Layer_1-2" data-name="Layer 1"><rect class="cls-1" width="170.08" height="113.39"/><rect width="170.08" height="34.02"/><rect class="cls-2" y="79.37" width="170.08" height="34.02"/><path class="cls-1" d="M65.94,91,99,33.55s4.54.23,8.74-16.44c0,0-11,10.63-10,15.85l-33,57.38Z"/><path class="cls-3" d="M65.94,91,99,33.55s4.54.23,8.74-16.44c0,0-11,10.63-10,15.85l-33,57.38Z"/><path class="cls-3" d="M104.12,91,71,33.55s-4.53.23-8.73-16.44c0,0,11,10.63,10,15.85l33,57.38Z"/><path class="cls-3" d="M104.12,91,71,33.55s-4.53.23-8.73-16.44c0,0,11,10.63,10,15.85l33,57.38Z"/><path class="cls-4" d="M0,39.69v34H71.54c3.63,9.7,9.3,17,13.42,17s9.79-7.31,13.42-17h71.7v-34H98.24c-3.67-8.89-9.29-17-13.28-17s-9.61,8.12-13.28,17Z"/><path class="cls-5" d="M71.51,40.11C69.42,45.27,68,50.63,68,54.78a54,54,0,0,0,3.57,19c2.1-4,3.43-10,3.43-16.77s-1.35-12.85-3.47-16.85ZM98.37,73.73a54.19,54.19,0,0,0,3.57-19c0-4.15-1.44-9.51-3.53-14.67-2.12,4-3.47,10.07-3.47,16.85S96.27,69.73,98.37,73.73Z"/><path class="cls-3" d="M84.37,90.58l.06-22.7V61.3s-2.84,5.39-2.84,14.46c0,11,2.78,14.82,2.78,14.82Zm0-38.32.06-22.71V23s-2.84,5.39-2.84,14.46c0,11,2.78,14.82,2.78,14.82Zm1.48,0-.06-22.71V23s2.83,5.39,2.83,14.46c0,11-2.77,14.82-2.77,14.82Zm-.74.4c1.58,0,2.85,1.79,2.85,4s-1.27,4-2.85,4-2.86-1.8-2.86-4,1.28-4,2.86-4Zm.74,37.92-.06-22.7V61.3s2.83,5.39,2.83,14.46C88.62,86.76,85.85,90.58,85.85,90.58Z"/></g></g></svg>