<?xml version="1.0" encoding="utf-8"?>
<!-- Generator: Adobe Illustrator 22.0.1, SVG Export Plug-In . SVG Version: 6.00 Build 0)  -->
<svg version="1.1" id="Layer_1" xmlns="http://www.w3.org/2000/svg" xmlns:xlink="http://www.w3.org/1999/xlink" x="0px" y="0px"
	 viewBox="0 0 169.9 113.5" style="enable-background:new 0 0 169.9 113.5;" xml:space="preserve">
<style type="text/css">
	.st0{fill:#FFFFFF;}
	.st1{fill:#F30004;}
	.st2{fill:#FFDB00;}
	.st3{fill:#00723B;}
	.st4{fill:#0132BF;}
</style>
<title>country-south-africa</title>
<g id="Layer_2_1_">
	<g id="Layer_1-2">
		<rect x="-0.1" y="0.1" class="st0" width="170.1" height="113.4"/>
		<polygon class="st1" points="90.9,37.8 34.4,0 169.9,0.1 169.9,37.8 		"/>
		<polygon class="st2" points="-0.1,99.8 -0.1,90.7 50.5,56.7 -0.1,22.9 -0.1,13.6 63.9,56.7 		"/>
		<polygon class="st3" points="-0.1,13.6 -0.1,0 20.7,0 88,45.4 169.9,45.4 169.9,68.1 88.1,68 20.6,113.4 -0.1,113.4 -0.1,99.8 
			63.9,56.7 		"/>
		<polygon class="st4" points="34.4,113.4 90.9,75.5 169.9,75.7 169.9,113.5 		"/>
		<polygon points="-0.1,22.9 50.5,56.7 -0.1,90.7 		"/>
	</g>
</g>
</svg>
