<svg xmlns="http://www.w3.org/2000/svg" viewBox="0 0 64 64"><defs><clipPath id="a"><path d="M0 0h64v64H0z"/></clipPath></defs><g clip-path="url(#a)" data-name="Group 617"><path fill="#fa8807" d="M7 34h2v18H7z" data-name="Rectangle 308"/><g data-name="Group 567"><path fill="none" stroke="#00121a" stroke-miterlimit="10" d="M5 31.5h5.5a2 2 0 0 1 2 2v19a2 2 0 0 1-2 2H5" data-name="Path 362"/><path fill="#00121a" d="M38.327 34H31l-9.525-3.029L16 33v1l5.522-1.971L31 34.979l7.327.021a3.621 3.621 0 0 1 3.655 3.155 3.474 3.474 0 0 1-.892 2.7A3.51 3.51 0 0 1 38.5 42H27v1h11.5a4.511 4.511 0 0 0 3.331-1.474 4.464 4.464 0 0 0 1.148-3.466A4.628 4.628 0 0 0 38.327 34" data-name="Path 363"/><path fill="#00121a" d="M58.719 39.115a5 5 0 0 0-6.345-3.077l-10.3 3.005.28.959 10.32-3.013a4.002 4.002 0 1 1 2.589 7.573L33.08 55.257a7.493 7.493 0 0 1-5.412.427L16 52v1l11.381 3.641a8.481 8.481 0 0 0 6.133-.484l5.212-2.513 16.924-8.16a5 5 0 0 0 3.069-6.369" data-name="Path 364"/></g><g data-name="Group 571"><path fill="none" stroke="#00121a" d="M26 27.5h29" data-name="Path 834"/><path fill="none" stroke="#00121a" d="M55.5 11v17" data-name="Line 291"/><g data-name="Group 569"><g fill="none" data-name="Intersection 4"><path d="M24 14.314V9h5.314a4.851 4.851 0 0 1 .029.534 4.809 4.809 0 0 1-4.809 4.81 4.881 4.881 0 0 1-.534-.03z"/><path fill="#00121a" d="M25 13.315A3.817 3.817 0 0 0 28.315 10H25v3.315m-.466 1.029c-.18 0-.359-.01-.534-.03V9h5.314a4.81 4.81 0 0 1-4.78 5.344z"/></g><g fill="none" data-name="Union 3"><path d="M24 9h29.009v16.031H24z"/><path fill="#00121a" d="M25 10v14.031h27.009V10H25m-1-1h29.009v16.031H24V9z"/></g><g fill="none" data-name="Intersection 6"><path d="M29.314 25.031H24v-5.314a4.851 4.851 0 0 1 .534-.029 4.809 4.809 0 0 1 4.81 4.809 4.881 4.881 0 0 1-.03.534z"/><path fill="#00121a" d="M28.315 24.031A3.817 3.817 0 0 0 25 20.716v3.315h3.315m1.029.466c0 .18-.01.359-.03.534H24v-5.314a4.81 4.81 0 0 1 5.344 4.78z"/></g><g fill="none" data-name="Intersection 8"><path d="M53.009 19.717v5.314h-5.314a4.851 4.851 0 0 1-.029-.534 4.809 4.809 0 0 1 4.809-4.81 4.881 4.881 0 0 1 .534.03z"/><path fill="#00121a" d="M52.009 20.716a3.817 3.817 0 0 0-3.315 3.315h3.315v-3.315m.466-1.029c.18 0 .359.01.534.03v5.314h-5.314a4.81 4.81 0 0 1 4.78-5.344z"/></g><g fill="none" data-name="Intersection 10"><path d="M47.695 9h5.314v5.314a4.851 4.851 0 0 1-.534.029 4.809 4.809 0 0 1-4.81-4.809 4.881 4.881 0 0 1 .03-.534z"/><path fill="#00121a" d="M48.694 10a3.817 3.817 0 0 0 3.315 3.315V10h-3.315m-1.029-.466c0-.18.01-.359.03-.534h5.314v5.314a4.81 4.81 0 0 1-5.344-4.78z"/></g><g data-name="Group 547"><ellipse cx="4.199" cy="4.199" fill="none" stroke="#00121a" stroke-miterlimit="10" data-name="Ellipse 46" rx="4.199" ry="4.199" transform="translate(34.687 12.817)"/></g></g></g></g></svg>