<svg xmlns="http://www.w3.org/2000/svg" viewBox="0 0 64 64"><defs><clipPath id="a"><path d="M0 0h64v64H0z"/></clipPath></defs><g clip-path="url(#a)" data-name="Group 718"><g data-name="Group 595"><g fill="none" data-name="Group 581"><path stroke="#707070" d="M7.5 20.5h0" data-name="Line 298"/><path stroke="#0a0a0d" d="M32 26v24" data-name="Line 301"/></g></g><g fill="none" data-name="Group 715"><g data-name="Union 4"><path d="M31.925 5a36 36 0 0 1 5.5 6.28 12.434 12.434 0 0 1 2.17 6.28c.055 9.672-7.6 8.9-7.6 8.9s-7.648.419-7.6-8.9a13.533 13.533 0 0 1 2.18-6.28A34.008 34.008 0 0 1 31.925 5z"/><path fill="#00121a" d="M31.927 6.375c-1.063 1.042-3.16 3.223-4.498 5.425-1.494 2.459-2.025 4.64-2.025 5.76v.006c-.015 2.705.656 4.76 1.995 6.106 1.694 1.703 4.007 1.789 4.453 1.789.054 0 .088-.001.093-.002l.07-.005.082.009s.112.01.3.01c.773 0 2.731-.162 4.22-1.658 1.329-1.338 1.995-3.44 1.979-6.249v-.005c0-1.633-.734-3.727-2.015-5.745-1.389-2.19-3.563-4.394-4.654-5.441M31.92 5s3.498 3.116 5.506 6.28c1.48 2.335 2.17 4.597 2.17 6.28.055 9.673-7.596 8.898-7.596 8.898s-7.648.42-7.596-8.897c0-1.507.726-3.903 2.17-6.28C28.519 8.08 31.92 5 31.92 5z"/></g><g data-name="Union 15"><path d="M31.925 5a36 36 0 0 1 5.5 6.28 12.434 12.434 0 0 1 2.17 6.28c.055 9.672-7.6 8.9-7.6 8.9s-7.648.419-7.6-8.9a13.533 13.533 0 0 1 2.18-6.28A34.008 34.008 0 0 1 31.925 5z"/><path fill="#00121a" d="M31.927 6.375c-1.063 1.042-3.16 3.223-4.498 5.425-1.494 2.459-2.025 4.64-2.025 5.76v.006c-.015 2.705.656 4.76 1.995 6.106 1.694 1.703 4.007 1.789 4.453 1.789.054 0 .088-.001.093-.002l.07-.005.082.009s.112.01.3.01c.773 0 2.731-.162 4.22-1.658 1.329-1.338 1.995-3.44 1.979-6.249v-.005c0-1.633-.734-3.727-2.015-5.745-1.389-2.19-3.563-4.394-4.654-5.441M31.92 5s3.498 3.116 5.506 6.28c1.48 2.335 2.17 4.597 2.17 6.28.055 9.673-7.596 8.898-7.596 8.898s-7.648.42-7.596-8.897c0-1.507.726-3.903 2.17-6.28C28.519 8.08 31.92 5 31.92 5z"/></g></g><g fill="none" data-name="Group 716"><g data-name="Union 4"><path d="M54.991 25.524a33.394 33.394 0 0 1-3.175 6.873 13.205 13.205 0 0 1-4.476 4.423c-8.177 4.395-10.507-1.576-10.507-1.576s-3.339-5.432 4.577-9.588a14.383 14.383 0 0 1 6.17-1.233 31.727 31.727 0 0 1 7.411 1.101z"/><path fill="#00121a" d="M53.684 26.226c-1.363-.317-3.85-.81-6.1-.803-2.677.01-4.746.607-5.71 1.119-2.475 1.3-4 2.832-4.532 4.554-.554 1.793.164 3.29.314 3.572l.03.053.042.062.035.094c.007.016.038.088.096.197.259.488 1.032 1.676 2.6 2.152 1.702.516 3.858.084 6.412-1.289 1.396-.742 2.894-2.231 4.109-4.087 1.235-1.887 2.21-4.29 2.704-5.624m1.307-.702s-1.276 3.974-3.175 6.874c-1.4 2.139-3.05 3.664-4.476 4.422-8.178 4.395-10.507-1.576-10.507-1.576s-3.34-5.432 4.577-9.588c1.277-.678 3.591-1.224 6.17-1.233 3.472-.012 7.411 1.1 7.411 1.1z"/></g><path stroke="#00121a" stroke-width=".99982" d="M37.44 34.922l-5.544 2.945" data-name="Line 265"/></g><g fill="none" data-name="Group 717"><path stroke="#00121a" stroke-width=".99998" d="M26.057 34.275l6.229 3.596" data-name="Line 265"/><g data-name="Union 15"><path d="M9.141 25.496a31.991 31.991 0 0 1 7.251-1.125 12.008 12.008 0 0 1 5.86 1.285c7.643 4.36 3.84 9.548 3.84 9.548s-2.866 5.727-10.19 1.448a13.075 13.075 0 0 1-4.044-4.428 30.33 30.33 0 0 1-2.717-6.728z"/><path fill="#00121a" d="M10.39 26.21c.4 1.291 1.212 3.636 2.326 5.501 1.31 2.195 2.804 3.568 3.685 4.076l.005.003c2.207 1.29 4.16 1.723 5.805 1.287 1.85-.49 2.784-1.972 2.953-2.264l.032-.057.029-.066.057-.075c.01-.015.055-.081.12-.192.291-.505.923-1.856.486-3.47-.44-1.625-1.83-3.115-4.133-4.428l-.004-.003c-1.285-.741-3.236-1.162-5.354-1.153-2.181.008-4.669.521-6.007.84m-1.249-.713s3.918-1.114 7.252-1.127c2.459-.01 4.53.521 5.858 1.287 7.647 4.363 3.838 9.548 3.838 9.548s-2.866 5.728-10.188 1.45c-1.188-.686-2.773-2.302-4.043-4.43-1.71-2.863-2.717-6.728-2.717-6.728z"/></g></g><path fill="#fa8807" d="M46 10h2v8h-2z" data-name="Rectangle 443"/><path fill="#fa8807" d="M43 13h8v2h-8z" data-name="Rectangle 444"/><path fill="none" stroke="#00121a" stroke-miterlimit="10" d="M18.516 59v-4.42a2.226 2.226 0 0 1 2.346-2.08h22.292a2.226 2.226 0 0 1 2.346 2.08V59" data-name="Path 843"/></g></svg>