<svg xmlns="http://www.w3.org/2000/svg" viewBox="0 0 64 64"><defs><clipPath id="a"><path d="M0 0h64v64H0z"/></clipPath></defs><g data-name="Manage risk"><g clip-path="url(#a)" data-name="Group 595"><g data-name="Group 581"><g fill="none" stroke="#0a0a0d" data-name="Ellipse 103" transform="translate(27 7)"><circle cx="5" cy="5" r="5" stroke="none"/><circle cx="5" cy="5" r="4.5"/></g><g fill="none" data-name="Union 10"><path d="M5 30a7.719 7.719 0 0 1 2.22-5.392l6.409-12.56 6.237 12.651A7.708 7.708 0 0 1 22 30a8.262 8.262 0 0 1-8.5 8A8.261 8.261 0 0 1 5 30z"/><path fill="#0a0a0d" d="M13.5 37c4.135 0 7.5-3.14 7.5-7 0-1.7-.661-3.34-1.862-4.616l-.103-.109-.066-.134-5.355-10.863L8.11 25.063l-.069.134-.104.108C6.688 26.593 6 28.26 6 30c0 3.86 3.364 7 7.5 7m0 1C8.805 38 5 34.418 5 30c0-2.077.841-3.97 2.22-5.391l6.41-12.561 6.236 12.65C21.194 26.11 22 27.967 22 30c0 4.418-3.806 8-8.5 8z"/></g><path fill="none" stroke="#0a0a0d" d="M6.9 25.5h13" data-name="Line 297"/><path fill="none" stroke="#707070" d="M7.5 20.5h0" data-name="Line 298"/><g fill="none" data-name="Union 11"><path d="M42 30a7.719 7.719 0 0 1 2.22-5.392l6.409-12.56 6.237 12.651A7.708 7.708 0 0 1 59 30a8.262 8.262 0 0 1-8.5 8 8.261 8.261 0 0 1-8.5-8z"/><path fill="#0a0a0d" d="M50.5 37c4.135 0 7.5-3.14 7.5-7 0-1.7-.661-3.34-1.862-4.616l-.103-.109-.066-.134-5.355-10.863-5.503 10.785-.069.134-.104.108C43.688 26.593 43 28.26 43 30c0 3.86 3.364 7 7.5 7m0 1c-4.695 0-8.5-3.582-8.5-8 0-2.077.841-3.97 2.22-5.391l6.41-12.561 6.236 12.65C58.194 26.11 59 27.967 59 30c0 4.418-3.806 8-8.5 8z"/></g><path fill="none" stroke="#0a0a0d" d="M43.9 25.5h13" data-name="Line 299"/><path fill="none" stroke="#0a0a0d" d="M30.5 16.004v33" data-name="Path 842"/><path fill="none" stroke="#0a0a0d" d="M33.5 16.5V49" data-name="Line 301"/><path fill="#fa8807" d="M23 56v-2h18v2z" data-name="Rectangle 464"/><path fill="none" stroke="#00121a" stroke-miterlimit="10" d="M20.5 58v-4.42a2.042 2.042 0 0 1 2-2.08h19a2.042 2.042 0 0 1 2 2.08V58" data-name="Path 843"/><path fill="none" stroke="#0a0a0d" d="M13.625 12.5H27.5" data-name="Path 844"/><path fill="none" stroke="#0a0a0d" d="M36.631 12.5h14" data-name="Line 303"/></g></g></g></svg>