<svg xmlns="http://www.w3.org/2000/svg" viewBox="0 0 64 64"><defs><clipPath id="a"><path d="M0 0h64v64H0z"/></clipPath></defs><g clip-path="url(#a)" data-name="Transactional banking"><path fill="none" d="M0 0h64v64H0z" data-name="Rectangle 4"/><path fill="none" stroke="#0a0a0d" stroke-miterlimit="10" d="M47 59v-2.5a2 2 0 0 0-2-2H33a2 2 0 0 0-2 2V59" data-name="Path 5"/><path fill="#0a0a0d" stroke="rgba(0,0,0,0)" d="M23 43v-1h-4.5a3.5 3.5 0 0 1-3.5-3.5v-29A3.5 3.5 0 0 1 18.5 6H35a3.5 3.5 0 0 1 3.5 3.5v31.645l-5.7-12.836a4.129 4.129 0 0 0-7.861 2.26l1.571 11L31.463 51h1.117l-5.1-9.656-1.556-10.915a3.129 3.129 0 0 1 5.957-1.714L38.23 43l1.27-1.27V16.805l8.432 14.051a7.473 7.473 0 0 1 .873 5.559L45.412 51h1.027l3.34-14.358a8.461 8.461 0 0 0-.99-6.3L39.5 14.862V9.5A4.505 4.505 0 0 0 35 5H18.5A4.505 4.505 0 0 0 14 9.5v29a4.505 4.505 0 0 0 4.5 4.5z" data-name="Path 6"/><path fill="none" d="M14 5h36.002v54H14z" data-name="Rectangle 3"/><path fill="none" stroke="#fa9d1e" stroke-miterlimit="10" stroke-width="2" d="M19 8v32" data-name="Line 1"/><g fill="#fff" stroke="#707070" stroke-linecap="square" stroke-linejoin="bevel" data-name="Rectangle 467"><path stroke="none" d="M284-133h12v18h-12z"/><path fill="none" d="M283.5-133.5h13v19h-13z"/></g></g></svg>