<svg xmlns="http://www.w3.org/2000/svg" viewBox="0 0 64 64"><defs><clipPath id="a"><path d="M0 0h64v64H0z"/></clipPath></defs><g clip-path="url(#a)"><path fill="none" d="M0 0h64v64H0z" data-name="Rectangle 1"/><g data-name="Group 350"><path fill="none" stroke="#0a0a0d" stroke-miterlimit="10" d="M40 51.5h1.5a8 8 0 0 0 8-8v-3h2.963l1.06-2.061-3.585-7.739A20.495 20.495 0 1 0 17.5 42.223V58.5h23V55" data-name="Path 453"/><g data-name="Group 487"><path fill="none" stroke="#0a0a0d" stroke-miterlimit="10" d="M35.496 39v-2.788a12.488 12.488 0 0 0 7-11.212 12.5 12.5 0 0 0-12.5-12.5 12.5 12.5 0 0 0-12.5 12.5 12.488 12.488 0 0 0 7 11.212V39" data-name="Path 597"/><path fill="#fa9d1e" d="M24 41h12v2H24z" data-name="Rectangle 340"/><path fill="none" stroke="#0a0a0d" stroke-miterlimit="10" d="M26 44.5h8" data-name="Line 222"/><path fill="none" stroke="#0a0a0d" stroke-miterlimit="10" d="M28.496 39v-8.5l-4.5-4.5" data-name="Path 598"/><path fill="none" stroke="#0a0a0d" stroke-miterlimit="10" d="M31.496 39v-8.5l4.5-4.5" data-name="Path 599"/></g></g></g></svg>