<svg id="Layer_1" data-name="Layer 1" xmlns="http://www.w3.org/2000/svg" viewBox="0 0 67.92 72.16">
  <defs>
    <style>
      .cls-1 {
        fill: #0a0a0d;
      }
    </style>
  </defs>
  <g>
    <path class="cls-1" d="M48.57,23a3.82,3.82,0,0,1,2.1.65l2.38,1.5,2.2-.66,3.22-3.87L51.6,13.76a15.18,15.18,0,0,0-10.83-4.2h-.09a13.59,13.59,0,0,0-7.8-2.29,17.59,17.59,0,0,0-3.69.42,20.81,20.81,0,0,0,2.37,4.37C24.87,15.92,20.26,23.84,20.26,33a15.37,15.37,0,0,0,.19,2.76,8,8,0,0,1,5.1-2.24c0,4.48-2.85,8.82-2.85,8.82,7.24,0,20.17,3.41,24.79,6.54,0-2.15-4.62-7.52-9.05-10.41,0,0,13,5.65,15,15.55a13.54,13.54,0,0,0,1-5.42C54.41,33.61,35.12,34,35,21.61a10.1,10.1,0,0,1,1.31-5.37,17.42,17.42,0,0,0-.47,3.87c0,9.58,10,10,16.34,16l1.36-7.33-2.62.84L49,29.08c-2.1-.61-3.32-1.82-3.32-3.36A2.74,2.74,0,0,1,48.57,23Zm-8-7.65s1.59-.18,2.71-.18a9.16,9.16,0,0,1,5.93,2l-1.4,1.69A14.75,14.75,0,0,0,40.62,15.36Z" transform="translate(-5.41 -7.27)"/>
    <g>
      <path class="cls-1" d="M20.29,73.53l-2-2.91a6.64,6.64,0,0,0,4.56-6.2c0-3.68-3-6.21-7.41-6.21h-10l.33.51a5.73,5.73,0,0,1,1.1,3.07v13.3a5.75,5.75,0,0,1-1.1,3.07l-.33.51h5.73V62.05h4c2,0,3.3,1.1,3.3,2.71,0,1.89-1.59,3.09-6.06,4.19l4.91,7.57a6.09,6.09,0,0,0,5.27,2.91,4,4,0,0,0,2.83-.84S23.36,77.93,20.29,73.53Z" transform="translate(-5.41 -7.27)"/>
      <path class="cls-1" d="M52.76,78.67l-.34-.41a4.62,4.62,0,0,1-1.09-2.51l-1.56-14a5.3,5.3,0,0,1,.84-3.07l.28-.51h-6L39.59,69.83,34.32,58.21h-6l.28.51a5.38,5.38,0,0,1,.84,3.07l-1.56,14a4.65,4.65,0,0,1-1.1,2.51l-.33.41H32l1.24-13.26,6.38,14,6.38-14,1.24,13.26Z" transform="translate(-5.41 -7.27)"/>
      <path class="cls-1" d="M69.83,67.81a4.48,4.48,0,0,0,2.32-4.08c0-3.29-2.71-5.52-6.73-5.52h-10l.33.51a5.67,5.67,0,0,1,1.1,3.07v13.3a5.7,5.7,0,0,1-1.1,3.07l-.33.51H66.27c4.11,0,7-2.51,7-6.06A4.85,4.85,0,0,0,69.83,67.81ZM65,61.87c1.77,0,3,1,3,2.38s-1.22,2.37-3,2.37H61.13V61.87ZM65.86,75H61.13V70h4.73c1.84,0,3,1,3,2.5S67.7,75,65.86,75Z" transform="translate(-5.41 -7.27)"/>
    </g>
  </g>
</svg>
