<svg xmlns="http://www.w3.org/2000/svg" fill="none" viewBox="0 0 162 83"><g clip-path="url(#a)"><path fill="#0A0A0D" d="m8.646 70.877 24.095 10.127H12.986zM2.407 51.407l18.289 18.667-18.212-7.65zM0 41.233l13.823 14.113-9.623-24.3zM13.738 12.969l-.537 26.13-7.279-18.366zM29.54-.001l-10.216 4.13-.41 19.751zM153.355 70.877 129.26 81.004h19.755zM159.593 51.407l-18.289 18.667 18.212-7.654zM148.177 55.346 162 41.233l-4.2-10.187zM148.263 12.969l.541 26.13 7.28-18.366zM132.463-.001l10.623 23.88-.408-19.75z"/><path fill="#000" d="M100.433 53h-1.75v-7h3.08q.75 0 1.34.3t.92.85q.34.54.34 1.25 0 .48-.13.83a1.8 1.8 0 0 1-.45.65q-.31.3-.89.65l1.81 2.47h-2.09l-2.08-3.1q.99-.42 1.36-.6.37-.19.54-.38a.72.72 0 0 0 .18-.5q0-.41-.25-.56-.249-.16-.66-.16h-1.27zM95.552 51.83h-2.16l-.44 1.17h-1.89l2.71-7h1.43l2.68 7h-1.88zm-1.73-1.6h1.3l-.64-1.92zM90.004 48.71v1.6h-2.93v1.04h3.49l-.4 1.65h-4.84v-7h5.05v1.65h-3.3v1.06zM79.927 46l1.3 2.7 1.3-2.7h2l-2.44 4.58V53h-1.75v-2.47L77.927 46zM73.871 48.71v1.6h-2.93v1.04h3.49l-.4 1.65h-4.84v-7h5.05v1.65h-3.3v1.06zM63.82 46v2.65h2.52V46h1.75v7h-1.75v-2.7h-2.52V53h-1.75v-7zM57.61 47.65H55.6V46h5.77v1.65h-2.01V53h-1.75zM115.661 41v-7h5.05v1.65h-3.3v1.06h2.93l-.4 1.6h-2.53V41zM110.934 41.12q-1 0-1.84-.48a3.7 3.7 0 0 1-1.32-1.32q-.48-.84-.48-1.83 0-.98.48-1.81a3.7 3.7 0 0 1 1.32-1.32 3.6 3.6 0 0 1 1.84-.49q.97 0 1.8.49.84.49 1.33 1.32.5.83.5 1.81 0 .99-.5 1.82a3.7 3.7 0 0 1-1.32 1.32 3.5 3.5 0 0 1-1.81.49m0-1.65q.531 0 .96-.26.43-.27.67-.72.25-.46.25-1a2 2 0 0 0-.25-.99q-.24-.45-.67-.71a1.77 1.77 0 0 0-.96-.27q-.54 0-.98.27-.43.26-.67.71t-.24.99.24 1q.24.45.67.72.44.26.98.26M101.916 41l-3.45-3.95V41h-1.75v-7h1.28l3.45 3.96V34h1.75v7zM93.584 39.83h-2.16l-.44 1.17h-1.89l2.71-7h1.43l2.68 7h-1.88zm-1.73-1.6h1.3l-.64-1.92zM85.368 41.12q-1 0-1.84-.48a3.7 3.7 0 0 1-1.32-1.32q-.48-.84-.48-1.83 0-.98.48-1.81a3.7 3.7 0 0 1 1.32-1.32 3.6 3.6 0 0 1 1.84-.49q.97 0 1.8.49a3.66 3.66 0 0 1 1.33 1.32q.5.83.5 1.81a3.46 3.46 0 0 1-.5 1.82 3.7 3.7 0 0 1-1.32 1.32 3.5 3.5 0 0 1-1.81.49m0-1.65q.53 0 .96-.26.43-.27.67-.72.25-.46.25-1t-.25-.99q-.24-.45-.67-.71a1.77 1.77 0 0 0-.96-.27q-.54 0-.98.27-.43.26-.67.71t-.24.99.24 1q.24.45.67.72.44.26.98.26M77.976 39.35h3.25l-.4 1.65h-4.6v-7h1.75zM69.021 39.35h3.25l-.4 1.65h-4.6v-7h1.75zM64.18 39.83h-2.16L61.58 41h-1.89l2.71-7h1.43l2.68 7h-1.88zm-1.73-1.6h1.3l-.64-1.92zM57.136 34h1.75v7h-1.75zM54.286 41.12q-.99 0-1.83-.48a3.74 3.74 0 0 1-1.34-1.32 3.53 3.53 0 0 1-.49-1.83q0-.99.49-1.82a3.66 3.66 0 0 1 1.34-1.31q.84-.49 1.83-.49.47 0 .86.11.39.1.79.37v1.75a2 2 0 0 0-.67-.41 2.2 2.2 0 0 0-.86-.17q-.57 0-1.04.26-.46.26-.73.71-.26.45-.26 1 0 .53.24.99.25.45.68.72t.95.27q.54 0 .97-.14.44-.15.72-.43v1.77a2.2 2.2 0 0 1-.75.33q-.441.12-.9.12M46.15 41.12q-1 0-1.84-.48a3.7 3.7 0 0 1-1.32-1.32q-.48-.84-.48-1.83 0-.98.48-1.81a3.7 3.7 0 0 1 1.32-1.32 3.6 3.6 0 0 1 1.84-.49 3.5 3.5 0 0 1 1.8.49 3.66 3.66 0 0 1 1.33 1.32q.5.83.5 1.81 0 .99-.5 1.82a3.7 3.7 0 0 1-1.32 1.32 3.5 3.5 0 0 1-1.81.49m0-1.65q.53 0 .96-.26.43-.27.67-.72.25-.46.25-1t-.25-.99q-.24-.45-.67-.71a1.77 1.77 0 0 0-.96-.27q-.54 0-.98.27-.43.26-.67.71t-.24.99.24 1q.24.45.67.72.44.26.98.26M38.786 41.12q-1.34 0-2.29-.5v-1.73q.43.34 1.02.54.6.2 1.14.2.53 0 .86-.13.34-.13.34-.44 0-.24-.28-.4-.27-.17-.87-.4-.68-.26-1.13-.49-.44-.24-.77-.66-.32-.42-.32-1.05 0-.59.28-1.08.28-.5.87-.8.6-.31 1.49-.31 1.25 0 2.11.51v1.7q-.42-.34-.94-.52-.51-.19-1.02-.19-.44 0-.75.14-.3.13-.3.39 0 .25.27.41t.88.39q.69.27 1.13.51.45.23.77.66.33.43.33 1.07 0 .62-.34 1.12-.33.49-.97.78-.64.28-1.51.28"/></g><defs><clipPath id="a"><path fill="#fff" d="M0 0H162V82.525H0z"/></clipPath></defs></svg>