<svg xmlns="http://www.w3.org/2000/svg" fill="none" viewBox="0 0 162 83"><g clip-path="url(#a)"><path fill="#0A0A0D" d="m8.646 70.877 24.095 10.127H12.986zM2.407 51.407l18.289 18.667-18.212-7.65zM0 41.233l13.823 14.113-9.623-24.3zM13.738 12.969l-.537 26.13-7.279-18.366zM29.539-.001l-10.215 4.13-.411 19.751zM153.355 70.877 129.26 81.004h19.755zM159.593 51.407l-18.289 18.667 18.212-7.654zM148.177 55.346 162 41.233l-4.2-10.187zM148.263 12.969l.541 26.131 7.28-18.367zM132.463-.001l10.623 23.88-.408-19.75z"/><path fill="#000" d="m42.48 28.597.36-1.35h2.467v.999q0 .909-.36 1.557a2.3 2.3 0 0 1-1.017.972q-.657.333-1.557.333-.873 0-1.584-.441a3.1 3.1 0 0 1-1.116-1.206 3.54 3.54 0 0 1-.405-1.683q0-.855.432-1.584a3.2 3.2 0 0 1 1.17-1.17 3.16 3.16 0 0 1 1.638-.441q.63 0 1.152.171.522.162.837.405v1.62q-.288-.306-.82-.522-.53-.225-1.223-.18a1.69 1.69 0 0 0-1.395.873 1.7 1.7 0 0 0-.207.837q0 .513.198.936.207.414.558.657.351.234.783.234 1.161 0 1.332-1.017zm5.399.918h2.925L50.444 31h-4.14v-6.3h1.575zm6.652 1.593a3.3 3.3 0 0 1-1.656-.432 3.3 3.3 0 0 1-1.188-1.188 3.26 3.26 0 0 1-.432-1.647q0-.882.432-1.629.441-.747 1.188-1.188a3.23 3.23 0 0 1 1.656-.441 3.13 3.13 0 0 1 1.62.441q.756.441 1.197 1.188a3.1 3.1 0 0 1 .45 1.629q0 .891-.45 1.638-.441.747-1.188 1.188a3.15 3.15 0 0 1-1.629.441m0-1.485q.477 0 .864-.234.387-.243.603-.648.225-.414.225-.9t-.225-.891a1.63 1.63 0 0 0-.603-.639 1.6 1.6 0 0 0-.864-.243q-.486 0-.882.243a1.63 1.63 0 0 0-.603.639q-.216.405-.216.891t.216.9q.216.405.603.648.396.234.882.234M61.791 31h-3.006v-6.3h2.7q.585 0 1.008.216t.639.585q.225.369.225.828v.027q0 .414-.153.747-.144.333-.522.576.558.162.81.594t.252.918v.045q0 .522-.252.927a1.73 1.73 0 0 1-.702.621 2.24 2.24 0 0 1-1 .216m-1.431-3.843h.936a.47.47 0 0 0 .342-.144.47.47 0 0 0 .153-.342.46.46 0 0 0-.144-.351.44.44 0 0 0-.324-.135h-.963zm0 2.358h1.25q.235 0 .397-.18a.56.56 0 0 0 .162-.378v-.027a.47.47 0 0 0-.153-.36.55.55 0 0 0-.405-.153H60.36zm7.7.432h-1.944L65.72 31h-1.7l2.438-6.3h1.287l2.412 6.3h-1.692zm-1.557-1.44h1.17l-.576-1.728zm5.915 1.008h2.924L74.983 31h-4.14v-6.3h1.576zM78.938 31v-6.3h4.545v1.485h-2.97v.954h2.637l-.36 1.44h-2.277V31zm5.45-6.3h1.574V31h-1.575zm7.518 6.3-3.105-3.555V31h-1.575v-6.3h1.152l3.105 3.564V24.7h1.575V31zm5.914-1.053h-1.944L95.48 31h-1.701l2.439-6.3h1.287l2.412 6.3h-1.692zm-1.557-1.44h1.17l-.576-1.728zM105.318 31l-3.105-3.555V31h-1.575v-6.3h1.152l3.105 3.564V24.7h1.575V31zm5.482.108a3.26 3.26 0 0 1-1.647-.432 3.37 3.37 0 0 1-1.206-1.188 3.2 3.2 0 0 1-.441-1.647q0-.891.441-1.638.45-.747 1.206-1.179a3.2 3.2 0 0 1 1.647-.441q.423 0 .774.099a2.3 2.3 0 0 1 .711.333v1.575a1.8 1.8 0 0 0-.603-.369 2 2 0 0 0-.774-.153q-.513 0-.936.234a1.77 1.77 0 0 0-.657.639q-.234.405-.234.9 0 .477.216.891.225.405.612.648t.855.243q.486 0 .873-.126.396-.135.648-.387v1.593a2 2 0 0 1-.675.297 3 3 0 0 1-.81.108m6.777-3.969v1.44h-2.637v.936h3.141l-.36 1.485h-4.356v-6.3h4.545v1.485h-2.97v.954zM63.96 40.947h-1.944L61.62 42h-1.7l2.438-6.3h1.287l2.412 6.3h-1.692zm-1.557-1.44h1.17l-.576-1.728zM72.241 42l-1.314-3.474L69.613 42h-.882l-2.403-6.3h1.701l1.143 3.276 1.251-3.276h1.008l1.233 3.222 1.17-3.222h1.692L73.123 42zm7.592-1.053H77.89L77.493 42h-1.7l2.438-6.3h1.287L81.93 42h-1.692zm-1.557-1.44h1.17l-.576-1.728zM84.226 42h-1.575v-6.3h2.773q.675 0 1.205.27.532.27.828.765.307.486.306 1.125 0 .432-.117.747a1.6 1.6 0 0 1-.404.585q-.28.27-.802.585L88.07 42h-1.881l-1.872-2.79a31 31 0 0 0 1.224-.54q.332-.171.486-.342a.65.65 0 0 0 .162-.45q0-.369-.225-.504-.226-.144-.594-.144h-1.144zm7.08 0h-2.52v-6.3h2.52q.819 0 1.494.414t1.062 1.134q.396.72.396 1.602v.018q0 .864-.396 1.584a2.93 2.93 0 0 1-1.062 1.134q-.675.414-1.494.414m-.945-1.485h.864q.532 0 .855-.27.333-.279.468-.657a2.1 2.1 0 0 0 .135-.72v-.018q0-.36-.135-.738a1.45 1.45 0 0 0-.468-.657q-.323-.27-.855-.27h-.864zm6.82 1.593q-1.207 0-2.062-.45v-1.557q.387.306.918.486.54.18 1.026.18.477 0 .774-.117.306-.117.306-.396 0-.216-.252-.36-.243-.153-.783-.36a11 11 0 0 1-1.017-.441 2.25 2.25 0 0 1-.693-.594q-.288-.378-.288-.945 0-.531.252-.972.253-.45.783-.72.54-.279 1.341-.279 1.125 0 1.9.459v1.53a2.8 2.8 0 0 0-.847-.468 2.6 2.6 0 0 0-.918-.171q-.396 0-.675.126-.27.117-.27.351 0 .225.243.369t.792.351q.621.243 1.017.459.405.207.693.594.297.387.297.963 0 .558-.306 1.008-.297.441-.873.702-.576.252-1.359.252M30.9 53h-3.005v-6.3h2.7q.585 0 1.008.216t.639.585q.225.369.225.828v.027q0 .414-.153.747-.144.333-.522.576.558.162.81.594t.252.918v.045q0 .522-.252.927a1.73 1.73 0 0 1-.702.621 2.24 2.24 0 0 1-1 .216m-1.43-3.843h.936a.47.47 0 0 0 .342-.144.47.47 0 0 0 .153-.342.46.46 0 0 0-.144-.351.44.44 0 0 0-.324-.135h-.963zm0 2.358h1.25q.235 0 .397-.18a.56.56 0 0 0 .162-.378v-.027a.47.47 0 0 0-.153-.36.55.55 0 0 0-.405-.153H29.47zm8.499-2.376v1.44h-2.637v.936h3.14L38.114 53h-4.355v-6.3h4.545v1.485h-2.97v.954zm3.382 3.969q-1.206 0-2.061-.45v-1.557q.387.306.918.486.54.18 1.026.18.477 0 .774-.117.306-.117.306-.396 0-.216-.252-.36-.243-.153-.783-.36a11 11 0 0 1-1.017-.441 2.25 2.25 0 0 1-.693-.594q-.288-.378-.288-.945 0-.531.252-.972.252-.45.783-.72.54-.279 1.341-.279 1.125 0 1.899.459v1.53a2.8 2.8 0 0 0-.846-.468 2.6 2.6 0 0 0-.918-.171q-.396 0-.675.126-.27.117-.27.351 0 .225.243.369t.792.351q.621.243 1.017.459.405.207.693.594.297.387.297.963 0 .558-.306 1.008-.297.441-.873.702-.576.252-1.359.252m5.16-4.923h-1.81V46.7h5.194v1.485h-1.81V53h-1.574zm8.613 0h-1.809V46.7h5.193v1.485H56.7V53h-1.575zM61.076 53h-1.575v-6.3h2.772q.675 0 1.206.27t.828.765q.306.486.306 1.125 0 .432-.117.747a1.6 1.6 0 0 1-.405.585q-.28.27-.8.585L64.918 53h-1.88l-1.873-2.79a31 31 0 0 0 1.224-.54q.333-.171.486-.342a.65.65 0 0 0 .162-.45q0-.369-.225-.504-.225-.144-.594-.144h-1.143zm8.06-1.053h-1.943L66.797 53h-1.701l2.439-6.3h1.287l2.412 6.3h-1.692zm-1.556-1.44h1.17l-.576-1.728zM76.635 53l-3.105-3.555V53h-1.575v-6.3h1.152l3.105 3.564V46.7h1.575V53zm4.303.108q-1.206 0-2.061-.45v-1.557q.387.306.918.486.54.18 1.026.18.477 0 .774-.117.306-.117.306-.396 0-.216-.252-.36-.243-.153-.783-.36a11 11 0 0 1-1.017-.441 2.25 2.25 0 0 1-.693-.594q-.288-.378-.288-.945 0-.531.252-.972.252-.45.783-.72.54-.279 1.341-.279 1.125 0 1.899.459v1.53a2.8 2.8 0 0 0-.846-.468 2.6 2.6 0 0 0-.918-.171q-.396 0-.675.126-.27.117-.27.351 0 .225.243.369t.792.351q.621.243 1.017.459.405.207.693.594.297.387.297.963 0 .558-.306 1.008-.297.441-.873.702-.576.252-1.359.252m6.85-1.161h-1.945L85.447 53h-1.7l2.438-6.3h1.287l2.412 6.3h-1.692zm-1.558-1.44h1.17l-.576-1.728zm7.084 2.601a3.26 3.26 0 0 1-1.647-.432 3.37 3.37 0 0 1-1.206-1.188 3.2 3.2 0 0 1-.44-1.647q0-.891.44-1.638.45-.747 1.206-1.179a3.2 3.2 0 0 1 1.647-.441q.423 0 .774.099a2.3 2.3 0 0 1 .711.333v1.575a1.8 1.8 0 0 0-.603-.369 2 2 0 0 0-.774-.153q-.513 0-.936.234a1.77 1.77 0 0 0-.657.639q-.234.405-.234.9 0 .477.216.891.225.405.612.648t.855.243q.486 0 .873-.126.396-.135.648-.387v1.593a2 2 0 0 1-.675.297 3 3 0 0 1-.81.108m4.104-4.923h-1.809V46.7h5.193v1.485h-1.809V53h-1.575zm4.376-1.485h1.575V53h-1.575zm5.845 6.408a3.3 3.3 0 0 1-1.656-.432 3.3 3.3 0 0 1-1.188-1.188 3.26 3.26 0 0 1-.432-1.647q0-.882.432-1.629.441-.747 1.188-1.188a3.23 3.23 0 0 1 1.656-.441 3.13 3.13 0 0 1 1.62.441q.756.441 1.197 1.188a3.1 3.1 0 0 1 .45 1.629q0 .891-.45 1.638-.441.747-1.188 1.188a3.15 3.15 0 0 1-1.629.441m0-1.485q.477 0 .864-.234.387-.243.603-.648.225-.414.225-.9t-.225-.891a1.63 1.63 0 0 0-.603-.639 1.6 1.6 0 0 0-.864-.243q-.486 0-.882.243a1.63 1.63 0 0 0-.603.639q-.216.405-.216.891t.216.9q.216.405.603.648.396.234.882.234M116.573 53l-3.105-3.555V53h-1.575v-6.3h1.152l3.105 3.564V46.7h1.575V53zm5.913-1.053h-1.944L120.146 53h-1.701l2.439-6.3h1.287l2.412 6.3h-1.692zm-1.557-1.44h1.17l-.576-1.728zm5.915 1.008h2.925l-.36 1.485h-4.14v-6.3h1.575zM46.88 64h-3.006v-6.3h2.7q.585 0 1.008.216t.64.585q.224.369.224.828v.027q0 .414-.153.747-.144.333-.522.576.558.162.81.594t.252.918v.045q0 .522-.252.927a1.73 1.73 0 0 1-.702.621 2.24 2.24 0 0 1-.999.216m-1.43-3.843h.935a.47.47 0 0 0 .342-.144.47.47 0 0 0 .153-.342.46.46 0 0 0-.144-.351.44.44 0 0 0-.324-.135h-.963zm0 2.358h1.25q.234 0 .396-.18a.56.56 0 0 0 .162-.378v-.027a.47.47 0 0 0-.153-.36.55.55 0 0 0-.405-.153h-1.25zm7.7.432h-1.944L50.81 64h-1.701l2.439-6.3h1.287l2.412 6.3h-1.692zm-1.557-1.44h1.17l-.576-1.728zM60.648 64l-3.105-3.555V64h-1.575v-6.3h1.152l3.105 3.564V57.7H61.8V64zm3.988-6.3v3.141l1.998-3.141h1.917l-2.08 3.168L68.552 64h-1.917l-1.998-3.105v3.114H63.06V57.7zm7.425 0h1.575V64H72.06zm7.518 6.3-3.104-3.555V64H74.9v-6.3h1.151l3.105 3.564V57.7h1.575V64zm8.613-1.053h-1.944L85.85 64h-1.7l2.439-6.3h1.286l2.412 6.3h-1.691zm-1.557-1.44h1.17l-.577-1.728zM91.01 64v-6.3h4.545v1.485h-2.97v.954h2.637l-.36 1.44h-2.277V64zm7.024 0H96.46v-6.3h2.772q.675 0 1.206.27t.828.765q.306.486.306 1.125 0 .432-.117.747a1.6 1.6 0 0 1-.405.585q-.279.27-.801.585L101.877 64h-1.88l-1.873-2.79a31 31 0 0 0 1.224-.54q.333-.171.486-.342a.65.65 0 0 0 .162-.45q0-.369-.225-.504-.225-.144-.594-.144h-1.143zm4.56-6.3h1.575V64h-1.575zm5.908 6.408a3.26 3.26 0 0 1-1.647-.432 3.37 3.37 0 0 1-1.206-1.188 3.2 3.2 0 0 1-.441-1.647q0-.891.441-1.638.45-.747 1.206-1.179a3.2 3.2 0 0 1 1.647-.441q.423 0 .774.099a2.3 2.3 0 0 1 .711.333v1.575a1.8 1.8 0 0 0-.603-.369 2 2 0 0 0-.774-.153q-.513 0-.936.234a1.77 1.77 0 0 0-.657.639q-.234.405-.234.9 0 .477.216.891.225.405.612.648t.855.243q.486 0 .873-.126.396-.135.648-.387v1.593a2 2 0 0 1-.675.297 3 3 0 0 1-.81.108m6.066-1.161h-1.944L112.228 64h-1.701l2.439-6.3h1.287l2.412 6.3h-1.692zm-1.557-1.44h1.17l-.576-1.728zM69.023 81v-1.557q.342-.324 1.188-.972.918-.702 1.377-1.152.468-.459.468-.846 0-.27-.26-.405-.262-.135-.676-.135-.477 0-.936.153a2.5 2.5 0 0 0-.828.441v-1.485q.775-.459 1.9-.459 1.205 0 1.79.522t.585 1.359q0 .63-.306 1.125-.297.495-.71.837-.415.342-1.09.792-.305.198-.44.297h2.564V81zm8.386.108q-.819 0-1.512-.432a3.2 3.2 0 0 1-1.098-1.188 3.43 3.43 0 0 1-.405-1.647q0-.882.405-1.629t1.098-1.188a2.76 2.76 0 0 1 1.512-.441q.783 0 1.467.441.693.441 1.107 1.197.414.747.414 1.62 0 .882-.414 1.638a3.25 3.25 0 0 1-1.107 1.188 2.66 2.66 0 0 1-1.467.441m0-1.485q.657 0 1.035-.504.378-.513.378-1.278t-.378-1.269-1.035-.504q-.441 0-.765.234a1.54 1.54 0 0 0-.504.639q-.17.405-.17.9t.17.9q.18.405.504.648.324.234.765.234M81.25 81v-1.557q.342-.324 1.188-.972.917-.702 1.377-1.152.468-.459.468-.846 0-.27-.261-.405-.262-.135-.675-.135-.477 0-.936.153a2.5 2.5 0 0 0-.828.441v-1.485q.774-.459 1.899-.459 1.206 0 1.79.522.586.522.586 1.359 0 .63-.306 1.125-.297.495-.711.837-.415.342-1.09.792-.305.198-.44.297h2.565V81zm7.142.108q-.486 0-.82-.054a3.4 3.4 0 0 1-.467-.099l-.441-.18v-1.431q.297.171.675.297.378.117.783.117.567 0 .89-.225.334-.225.334-.684a.74.74 0 0 0-.216-.531.88.88 0 0 0-.531-.288 1.7 1.7 0 0 0-.28-.018q-.233 0-.45.054a1.7 1.7 0 0 0-.36.135l-.746-.468.71-3.033h2.97v1.476l-1.844.009-.153.702a3 3 0 0 1 .414-.027q.584 0 1.053.243.477.234.747.684.27.441.27 1.035 0 .666-.324 1.188a2.2 2.2 0 0 1-.9.81 2.9 2.9 0 0 1-1.314.288"/></g><defs><clipPath id="a"><path fill="#fff" d="M0 0H162V82.525H0z"/></clipPath></defs></svg>