<svg xmlns="http://www.w3.org/2000/svg" fill="none" viewBox="0 0 162 83"><g clip-path="url(#a)"><path fill="#0A0A0D" d="m8.646 70.877 24.095 10.127H12.986zM2.407 51.407l18.289 18.667-18.212-7.65zM0 41.233l13.823 14.113-9.623-24.3zM13.738 12.97l-.537 26.13-7.279-18.367zM29.54-.001l-10.216 4.13-.41 19.751zM153.355 70.877 129.26 81.004h19.755zM159.593 51.407l-18.289 18.667 18.212-7.654zM148.177 55.346 162 41.233l-4.2-10.187zM148.263 12.97l.541 26.13 7.28-18.367zM132.463-.001l10.623 23.88-.408-19.75z"/><path fill="#000" d="m116.695 46 1.3 2.7 1.3-2.7h2l-2.44 4.58V53h-1.75v-2.47l-2.41-4.53zM110.13 47.65h-2.01V46h5.77v1.65h-2.01V53h-1.75zM105.265 46h1.75v7h-1.75zM101.018 51.35h3.25l-.4 1.65h-4.6v-7h1.75zM96.154 46h1.75v7h-1.75zM92.98 53h-3.34v-7h3q.65 0 1.12.24t.71.65q.25.41.25.92v.03q0 .46-.17.83-.16.37-.58.64.621.18.9.66.28.48.28 1.02v.05q0 .58-.28 1.03a1.9 1.9 0 0 1-.78.69q-.489.24-1.11.24m-1.59-4.27h1.04a.52.52 0 0 0 .38-.16.53.53 0 0 0 .17-.38.51.51 0 0 0-.16-.39q-.15-.15-.36-.15h-1.07zm0 2.62h1.39a.57.57 0 0 0 .44-.2.62.62 0 0 0 .18-.42v-.03a.53.53 0 0 0-.17-.4.6.6 0 0 0-.45-.17h-1.39zM86.509 51.83h-2.16l-.44 1.17h-1.89l2.71-7h1.43l2.68 7h-1.88zm-1.73-1.6h1.3l-.64-1.92zM79.938 53l-3.45-3.95V53h-1.75v-7h1.28l3.45 3.96V46h1.75v7zM71.584 46h1.75v7h-1.75zM68.452 51.83h-2.16l-.44 1.17h-1.89l2.71-7h1.43l2.68 7h-1.88zm-1.73-1.6h1.3l-.64-1.92zM60.55 47.65h-2.01V46h5.77v1.65H62.3V53h-1.75zM54.817 53.12q-1.34 0-2.29-.5v-1.73q.429.34 1.02.54.6.2 1.14.2.53 0 .86-.13.34-.13.34-.44 0-.24-.28-.4-.27-.17-.87-.4-.68-.26-1.13-.49-.44-.24-.77-.66-.32-.42-.32-1.05 0-.59.28-1.08.279-.5.87-.8.6-.31 1.49-.31 1.25 0 2.11.51v1.7q-.42-.34-.94-.52-.51-.19-1.02-.19-.441 0-.75.14-.3.13-.3.39 0 .25.27.41t.88.39q.69.27 1.13.51.45.23.77.66.33.43.33 1.07 0 .62-.34 1.12-.33.49-.97.78-.64.28-1.51.28M48.491 53.12q-.81 0-1.52-.39-.7-.39-1.12-1.08-.42-.7-.42-1.57V46h1.75v4.11q0 .43.19.73t.49.45.62.15h.02q.31 0 .6-.14.29-.15.47-.44.19-.29.19-.7V46h1.75v4.08q0 .88-.42 1.57-.41.69-1.11 1.08-.69.39-1.49.39M41.408 53.12q-1.34 0-2.29-.5v-1.73q.43.34 1.02.54.6.2 1.14.2.53 0 .86-.13.34-.13.34-.44 0-.24-.28-.4-.27-.17-.87-.4-.68-.26-1.13-.49-.44-.24-.77-.66-.32-.42-.32-1.05 0-.59.28-1.08.28-.5.87-.8.6-.31 1.49-.31 1.25 0 2.11.51v1.7q-.42-.34-.94-.52-.51-.19-1.02-.19-.44 0-.75.14-.3.13-.3.39 0 .25.27.41t.88.39q.69.27 1.13.51.45.23.77.66.33.43.33 1.07 0 .62-.34 1.12-.33.49-.97.78-.64.28-1.51.28M113.374 33.83h1.67l-2.18 7.33h-1.67zM105.915 41l-3.45-3.95V41h-1.75v-7h1.28l3.45 3.96V34h1.75v7zM95.988 41.12q-1 0-1.84-.48a3.7 3.7 0 0 1-1.32-1.32q-.48-.84-.48-1.83 0-.98.48-1.81a3.7 3.7 0 0 1 1.32-1.32 3.6 3.6 0 0 1 1.84-.49q.97 0 1.8.49a3.66 3.66 0 0 1 1.33 1.32q.5.83.5 1.81a3.46 3.46 0 0 1-.5 1.82 3.7 3.7 0 0 1-1.32 1.32 3.5 3.5 0 0 1-1.81.49m0-1.65q.53 0 .96-.26.43-.27.67-.72.25-.46.25-1t-.25-.99q-.24-.45-.67-.71a1.77 1.77 0 0 0-.96-.27q-.54 0-.98.27-.43.26-.67.71t-.24.99.24 1q.24.45.67.72.44.26.98.26M89.494 34h1.75v7h-1.75zM84.632 35.65h-2.01V34h5.77v1.65h-2.01V41h-1.75zM79.767 34h1.75v7h-1.75zM75.744 41.12q-1.34 0-2.29-.5v-1.73q.43.34 1.02.54.6.2 1.14.2.53 0 .86-.13.34-.13.34-.44 0-.24-.28-.4-.27-.17-.87-.4-.68-.26-1.13-.49-.44-.24-.77-.66-.32-.42-.32-1.05 0-.59.28-1.08.28-.5.87-.8.6-.31 1.49-.31 1.25 0 2.11.51v1.7q-.42-.34-.94-.52-.51-.19-1.02-.19-.44 0-.75.14-.3.13-.3.39 0 .25.27.41t.88.39q.69.27 1.13.51.45.23.77.66.33.43.33 1.07 0 .62-.34 1.12-.33.49-.97.78-.64.28-1.51.28M70.963 41l-3.45-3.95V41h-1.75v-7h1.28l3.45 3.96V34h1.75v7zM62.632 39.83h-2.16l-.44 1.17h-1.89l2.71-7h1.43l2.68 7h-1.88zm-1.73-1.6h1.3l-.64-1.92zM53.676 41h-1.75v-7h3.08q.75 0 1.34.3t.92.85q.34.54.34 1.25 0 .48-.13.83a1.8 1.8 0 0 1-.45.65q-.31.3-.89.65l1.81 2.47h-2.09l-2.08-3.1q.99-.42 1.36-.6.369-.19.54-.38a.72.72 0 0 0 .18-.5q0-.41-.25-.56-.25-.16-.66-.16h-1.27zM47.063 35.65h-2.01V34h5.77v1.65h-2.01V41h-1.75zM116.034 29h-1.75v-7h3.08q.75 0 1.34.3t.92.85q.34.54.34 1.25 0 .48-.13.83a1.8 1.8 0 0 1-.45.65q-.31.3-.89.65l1.81 2.47h-2.09l-2.08-3.1q.99-.42 1.36-.6.37-.19.54-.38a.72.72 0 0 0 .18-.5q0-.41-.25-.56-.25-.16-.66-.16h-1.27zM109.557 29.12q-1 0-1.84-.48a3.7 3.7 0 0 1-1.32-1.32q-.48-.84-.48-1.83 0-.98.48-1.81a3.7 3.7 0 0 1 1.32-1.32 3.6 3.6 0 0 1 1.84-.49q.97 0 1.8.49.84.49 1.33 1.32.5.83.5 1.81 0 .99-.5 1.82a3.7 3.7 0 0 1-1.32 1.32 3.5 3.5 0 0 1-1.81.49m0-1.65q.531 0 .96-.26.43-.27.67-.72.25-.46.25-1a2 2 0 0 0-.25-.99q-.24-.45-.67-.71a1.77 1.77 0 0 0-.96-.27q-.54 0-.98.27-.43.26-.67.71t-.24.99.24 1q.24.45.67.72.44.26.98.26M100.163 29v-7h5.05v1.65h-3.3v1.06h2.93l-.4 1.6h-2.53V29zM91.913 22v3.49l2.22-3.49h2.13l-2.31 3.52 2.31 3.48h-2.13l-2.22-3.45v3.46h-1.75V22zM87.482 29l-3.45-3.95V29h-1.75v-7h1.28l3.45 3.96V22h1.75v7zM79.15 27.83h-2.16L76.55 29h-1.89l2.71-7h1.43l2.68 7H79.6zm-1.73-1.6h1.3l-.64-1.92zM72.185 29h-3.34v-7h3q.65 0 1.12.24t.71.65q.25.41.25.92v.03q0 .46-.17.83-.16.37-.58.64.62.18.9.66t.28 1.02v.05q0 .58-.28 1.03a1.9 1.9 0 0 1-.78.69q-.49.24-1.11.24m-1.59-4.27h1.04a.52.52 0 0 0 .38-.16.53.53 0 0 0 .17-.38.51.51 0 0 0-.16-.39q-.15-.15-.36-.15h-1.07zm0 2.62h1.39a.57.57 0 0 0 .44-.2.62.62 0 0 0 .18-.42v-.03a.53.53 0 0 0-.17-.4.6.6 0 0 0-.45-.17h-1.39zM60.984 23.65h-2.01V22h5.77v1.65h-2.01V29h-1.75zM55.251 29.12q-1.34 0-2.29-.5v-1.73q.43.34 1.02.54.6.2 1.14.2.53 0 .86-.13.34-.13.34-.44 0-.24-.28-.4-.27-.17-.87-.4-.68-.26-1.13-.49-.44-.24-.77-.66-.32-.42-.32-1.05 0-.59.28-1.08.28-.5.87-.8.6-.31 1.49-.31 1.25 0 2.11.51v1.7q-.42-.34-.94-.52-.51-.19-1.02-.19-.44 0-.75.14-.3.13-.3.39 0 .25.27.41t.88.39q.69.27 1.13.51.45.23.77.66.33.43.33 1.07 0 .62-.34 1.12-.33.49-.97.78-.64.28-1.51.28M51.493 24.71v1.6h-2.93v1.04h3.49l-.4 1.65h-4.84v-7h5.05v1.65h-3.3v1.06zM43.64 29H40.3v-7h3q.65 0 1.12.24t.71.65q.25.41.25.92v.03q0 .46-.17.83-.16.37-.58.64.62.18.9.66t.28 1.02v.05q0 .58-.28 1.03a1.9 1.9 0 0 1-.78.69q-.49.24-1.11.24m-1.59-4.27h1.04a.52.52 0 0 0 .38-.16.53.53 0 0 0 .17-.38.51.51 0 0 0-.16-.39q-.15-.15-.36-.15h-1.07zm0 2.62h1.39a.57.57 0 0 0 .44-.2.62.62 0 0 0 .18-.42v-.03a.53.53 0 0 0-.17-.4.6.6 0 0 0-.45-.17h-1.39zM87.109 77.23l2.5-4.23h2.18v4.08l.8.01-.01 1.53h-.79V80h-1.61v-1.38h-3.07zm1.71-.16h1.36V74.8zM81.04 80v-1.73q.381-.36 1.32-1.08 1.02-.78 1.53-1.28.52-.51.52-.94 0-.3-.29-.45t-.75-.15q-.53 0-1.04.17-.51.16-.92.49v-1.65q.86-.51 2.11-.51 1.34 0 1.99.58t.65 1.51q0 .7-.34 1.25-.33.55-.79.93t-1.21.88q-.34.22-.49.33h2.85V80zM76.775 80.12q-.91 0-1.68-.48a3.5 3.5 0 0 1-1.22-1.32q-.45-.84-.45-1.83 0-.98.45-1.81t1.22-1.32a3.07 3.07 0 0 1 1.68-.49q.87 0 1.63.49.77.49 1.23 1.33.46.83.46 1.8 0 .98-.46 1.82a3.6 3.6 0 0 1-1.23 1.32q-.76.49-1.63.49m0-1.65q.73 0 1.15-.56.42-.57.42-1.42 0-.849-.42-1.41t-1.15-.56q-.49 0-.85.26a1.7 1.7 0 0 0-.56.71q-.19.45-.19 1t.19 1q.2.45.56.72.36.26.85.26M67.457 80v-1.73q.38-.36 1.32-1.08 1.02-.78 1.53-1.28.52-.51.52-.94 0-.3-.29-.45-.291-.15-.75-.15-.53 0-1.04.17-.51.16-.92.49v-1.65q.86-.51 2.11-.51 1.34 0 1.99.58t.65 1.51q0 .7-.34 1.25-.33.55-.79.93t-1.21.88q-.34.22-.49.33h2.85V80z"/></g><defs><clipPath id="a"><path fill="#fff" d="M0 0H162V82.525H0z"/></clipPath></defs></svg>