<?xml version="1.0" encoding="UTF-8"?>
<svg xmlns="http://www.w3.org/2000/svg" viewBox="0 0 32 32" width="32" height="32"><path fill="none" d="M0 0h32v32H0z"/><path fill="#fa241c" fill-rule="evenodd" d="M13.124 19.64v-7.887l7.53 3.957zm16.532-9.252a6.1 6.1 0 0 0-1.109-2.787 3.974 3.974 0 0 0-2.791-1.188c-3.9-.283-9.75-.283-9.75-.283h-.012s-5.85 0-9.75.283a3.978 3.978 0 0 0-2.793 1.188 6.089 6.089 0 0 0-1.106 2.787 42.747 42.747 0 0 0-.279 4.542v2.128a42.7 42.7 0 0 0 .279 4.543 6.089 6.089 0 0 0 1.106 2.787 4.7 4.7 0 0 0 3.073 1.2c2.229.217 9.475.283 9.475.283s5.856-.008 9.756-.293a3.974 3.974 0 0 0 2.792-1.19 6.1 6.1 0 0 0 1.109-2.787 42.7 42.7 0 0 0 .279-4.543V14.93a42.747 42.747 0 0 0-.279-4.542z"/></svg>
