<svg xmlns="http://www.w3.org/2000/svg" fill="none" viewBox="0 0 162 83"><g clip-path="url(#a)"><path fill="#0A0A0D" d="m8.646 70.877 24.095 10.127H12.986zM2.407 51.407l18.289 18.667-18.212-7.65zM0 41.233l13.823 14.113-9.623-24.3zM13.738 12.969l-.537 26.13-7.279-18.366zM29.54-.001l-10.216 4.13-.41 19.751zM153.355 70.877 129.26 81.004h19.755zM159.593 51.407l-18.289 18.667 18.212-7.654zM148.177 55.346 162 41.233l-4.2-10.187zM148.263 12.969l.541 26.13 7.28-18.366zM132.463-.001l10.623 23.88-.408-19.75z"/><path fill="#000" d="M125.409 57.71v1.6h-2.93v1.04h3.49l-.4 1.65h-4.84v-7h5.05v1.65h-3.3v1.06zM117.879 62.12q-.99 0-1.83-.48a3.74 3.74 0 0 1-1.34-1.32 3.54 3.54 0 0 1-.49-1.83q0-.99.49-1.82.5-.83 1.34-1.31.84-.49 1.83-.49.47 0 .86.11.39.1.79.37v1.75a2 2 0 0 0-.67-.41 2.2 2.2 0 0 0-.86-.17q-.57 0-1.04.26-.46.26-.73.71-.26.45-.26 1 0 .53.24.99.25.45.68.72t.95.27q.54 0 .97-.14.441-.15.72-.43v1.77a2.2 2.2 0 0 1-.75.33q-.44.12-.9.12M111.789 62l-3.45-3.95V62h-1.75v-7h1.28l3.45 3.96V55h1.75v7zM103.457 60.83h-2.16l-.44 1.17h-1.89l2.71-7h1.43l2.68 7h-1.88zm-1.73-1.6h1.3l-.64-1.92zM96.886 62l-3.45-3.95V62h-1.75v-7h1.28l3.45 3.96V55h1.75v7zM88.532 55h1.75v7h-1.75zM82.477 62v-7h5.05v1.65h-3.3v1.06h2.93l-.4 1.6h-2.53V62zM74.617 56.65h-2.01V55h5.77v1.65h-2.01V62h-1.75zM70.057 62.12q-.99 0-1.83-.48a3.74 3.74 0 0 1-1.34-1.32 3.53 3.53 0 0 1-.49-1.83q0-.99.49-1.82a3.66 3.66 0 0 1 1.34-1.31q.84-.49 1.83-.49.47 0 .86.11.39.1.79.37v1.75a2 2 0 0 0-.67-.41 2.2 2.2 0 0 0-.86-.17q-.57 0-1.04.26-.46.26-.73.71-.26.45-.26 1 0 .53.24.99.25.45.68.72t.95.27q.54 0 .97-.14.441-.15.72-.43v1.77a2.2 2.2 0 0 1-.75.33q-.44.12-.9.12M64.99 57.71v1.6h-2.93v1.04h3.49l-.4 1.65h-4.84v-7h5.05v1.65h-3.3v1.06zM56.995 62.11q-.28.04-.44.04-.61 0-1.06-.2v-1.58q.04.02.19.08t.29.1q.141.03.27.03.11 0 .25-.03.351-.1.51-.32.16-.23.16-.61V55h1.75v4.63q0 .98-.51 1.65t-1.41.83M51.169 62.12q-1 0-1.84-.48a3.7 3.7 0 0 1-1.32-1.32q-.48-.84-.48-1.83 0-.98.48-1.81a3.7 3.7 0 0 1 1.32-1.32 3.6 3.6 0 0 1 1.84-.49q.97 0 1.8.49a3.66 3.66 0 0 1 1.33 1.32q.5.83.5 1.81 0 .99-.5 1.82a3.7 3.7 0 0 1-1.32 1.32 3.5 3.5 0 0 1-1.81.49m0-1.65q.53 0 .96-.26.43-.27.67-.72.25-.46.25-1t-.25-.99q-.24-.45-.67-.71a1.77 1.77 0 0 0-.96-.27q-.54 0-.98.27-.43.26-.67.71t-.24.99.24 1q.24.45.67.72.44.26.98.26M42.763 62h-1.75v-7h3.08q.75 0 1.34.3t.92.85q.34.54.34 1.25 0 .48-.13.83a1.8 1.8 0 0 1-.45.65q-.31.3-.89.65l1.81 2.47h-2.09l-2.08-3.1q.99-.42 1.36-.6.369-.19.54-.38a.72.72 0 0 0 .18-.5q0-.41-.25-.56-.25-.16-.66-.16h-1.27zM34.333 55h2.98q.75 0 1.34.3t.92.85q.34.54.34 1.25v.05q0 .95-.61 1.57-.6.62-1.82.83l-1.4.28V62h-1.75zm1.75 3.47 1.18-.21q.41-.06.61-.2t.24-.29q.05-.15.05-.35 0-.44-.25-.6-.24-.17-.66-.17h-1.17zM125.698 42.83h1.67l-2.18 7.33h-1.67zM122.26 45.71v1.6h-2.93v1.04h3.49l-.4 1.65h-4.84v-7h5.05v1.65h-3.3v1.06zM112.513 50h-1.75v-7h3.08q.75 0 1.34.3t.92.85q.34.54.34 1.25 0 .48-.13.83a1.8 1.8 0 0 1-.45.65q-.31.3-.89.65l1.81 2.47h-2.09l-2.08-3.1q.99-.42 1.36-.6.37-.19.54-.38a.72.72 0 0 0 .18-.5q0-.41-.25-.56-.249-.16-.66-.16h-1.27zM106.343 50.12q-.81 0-1.52-.39-.7-.39-1.12-1.08-.42-.7-.42-1.57V43h1.75v4.11q0 .43.19.73t.49.45.62.15h.02q.31 0 .6-.14.29-.15.47-.44.19-.29.19-.7V43h1.75v4.08q0 .88-.42 1.57-.41.69-1.11 1.08-.69.39-1.49.39M98.42 44.65h-2.01V43h5.771v1.65h-2.01V50h-1.75zM93.86 50.12q-.99 0-1.83-.48a3.74 3.74 0 0 1-1.34-1.32 3.53 3.53 0 0 1-.49-1.83q0-.99.49-1.82a3.66 3.66 0 0 1 1.34-1.31q.84-.49 1.83-.49.47 0 .86.11.39.1.79.37v1.75a2 2 0 0 0-.67-.41 2.2 2.2 0 0 0-.86-.17q-.57 0-1.04.26-.46.26-.73.71-.259.45-.26 1 0 .53.24.99.252.45.68.72.431.27.95.27.54 0 .97-.14.441-.15.72-.43v1.77a2.2 2.2 0 0 1-.75.33q-.438.12-.9.12M86.03 50.12q-.81 0-1.52-.39-.7-.39-1.12-1.08-.42-.7-.42-1.57V43h1.75v4.11q0 .43.19.73t.49.45.62.15h.02q.31 0 .6-.14.29-.15.47-.44a1.25 1.25 0 0 0 .19-.7V43h1.75v4.08q0 .88-.42 1.57-.41.69-1.11 1.08-.69.39-1.49.39M78.304 50h-1.75v-7h3.08q.75 0 1.34.3t.92.85q.34.54.34 1.25 0 .48-.13.83a1.8 1.8 0 0 1-.45.65q-.31.3-.89.65l1.81 2.47h-2.09l-2.08-3.1q.99-.42 1.36-.6.37-.19.54-.38a.72.72 0 0 0 .18-.5q0-.41-.25-.56-.249-.16-.66-.16h-1.27zM71.692 44.65h-2.01V43h5.77v1.65h-2.01V50h-1.75zM65.96 50.12q-1.34 0-2.29-.5v-1.73q.429.34 1.02.54.6.2 1.14.2.53 0 .86-.13.34-.13.34-.44 0-.24-.28-.4-.27-.17-.87-.4-.68-.26-1.13-.49-.44-.24-.77-.66-.32-.42-.32-1.05 0-.59.28-1.08.279-.5.87-.8.6-.31 1.49-.31 1.249 0 2.11.51v1.7q-.42-.34-.94-.52-.51-.19-1.02-.19-.441 0-.75.14-.3.13-.3.39 0 .25.27.41.269.16.88.39.69.27 1.13.51.45.23.77.66.33.43.33 1.07 0 .62-.34 1.12-.33.49-.97.78-.64.28-1.51.28M60.825 48.83h-2.16l-.44 1.17h-1.89l2.71-7h1.43l2.68 7h-1.88zm-1.73-1.6h1.3l-.64-1.92zM51.869 50h-1.75v-7h3.08q.75 0 1.34.3t.92.85q.34.54.34 1.25 0 .48-.13.83a1.8 1.8 0 0 1-.45.65q-.31.3-.89.65l1.81 2.47h-2.09l-2.08-3.1q.99-.42 1.36-.6.37-.19.54-.38a.72.72 0 0 0 .18-.5q0-.41-.25-.56-.25-.16-.66-.16h-1.27zM44.064 50v-7h5.05v1.65h-3.3v1.06h2.93l-.4 1.6h-2.53V50zM41.383 50l-3.45-3.95V50h-1.75v-7h1.28l3.45 3.96V43h1.75v7zM33.03 43h1.75v7h-1.75zM113.612 33.71v1.6h-2.93v1.04h3.49l-.4 1.65h-4.84v-7h5.05v1.65h-3.3v1.06zM104.685 36.35h3.25l-.4 1.65h-4.6v-7h1.75zM99.802 38h-3.34v-7h3q.65 0 1.12.24t.71.65q.25.41.25.92v.03q0 .46-.17.83-.16.37-.58.64.62.18.9.66t.28 1.02v.05q0 .58-.28 1.03a1.9 1.9 0 0 1-.78.69q-.49.24-1.11.24m-1.59-4.27h1.04a.52.52 0 0 0 .38-.16.53.53 0 0 0 .17-.38.51.51 0 0 0-.16-.39q-.15-.15-.36-.15h-1.07zm0 2.62h1.39a.57.57 0 0 0 .44-.2.62.62 0 0 0 .18-.42v-.03a.53.53 0 0 0-.17-.4.6.6 0 0 0-.45-.17h-1.39zM93.33 36.83h-2.16L90.73 38h-1.89l2.71-7h1.43l2.68 7h-1.88zm-1.73-1.6h1.3l-.64-1.92zM86.76 38l-3.45-3.95V38h-1.75v-7h1.28l3.45 3.96V31h1.75v7zM78.405 31h1.75v7h-1.75zM75.273 36.83h-2.16l-.44 1.17h-1.89l2.71-7h1.43l2.68 7h-1.88zm-1.73-1.6h1.3l-.64-1.92zM67.37 32.65h-2.01V31h5.77v1.65h-2.01V38h-1.75zM61.638 38.12q-1.34 0-2.29-.5v-1.73q.43.34 1.02.54.6.2 1.14.2.53 0 .86-.13.34-.13.34-.44 0-.24-.28-.4-.27-.17-.87-.4-.68-.26-1.13-.49-.44-.24-.77-.66-.32-.42-.32-1.05 0-.59.28-1.08.28-.5.87-.8.6-.31 1.49-.31 1.25 0 2.11.51v1.7q-.42-.34-.94-.52-.51-.19-1.02-.19-.44 0-.75.14-.3.13-.3.39 0 .25.27.41t.88.39q.69.27 1.13.51.45.23.77.66.33.43.33 1.07 0 .62-.34 1.12-.33.49-.97.78-.64.28-1.51.28M55.313 38.12q-.81 0-1.52-.39-.7-.39-1.12-1.08-.42-.7-.42-1.57V31h1.75v4.11q0 .43.19.73t.49.45.62.15h.02q.309 0 .6-.14.29-.15.47-.44.19-.29.19-.7V31h1.75v4.08q0 .88-.42 1.57-.411.69-1.11 1.08-.69.39-1.49.39M48.23 38.12q-1.34 0-2.29-.5v-1.73q.429.34 1.02.54.6.2 1.14.2.53 0 .86-.13.34-.13.34-.44 0-.24-.28-.4-.27-.17-.87-.4-.68-.26-1.13-.49-.44-.24-.77-.66-.32-.42-.32-1.05 0-.59.28-1.08.279-.5.87-.8.6-.31 1.49-.31 1.25 0 2.11.51v1.7q-.42-.34-.94-.52-.51-.19-1.02-.19-.441 0-.75.14-.3.13-.3.39 0 .25.27.41t.88.39q.69.27 1.13.51.45.23.77.66.33.43.33 1.07 0 .62-.34 1.12-.33.49-.97.78-.64.28-1.51.28M116.034 26h-1.75v-7h3.08q.75 0 1.34.3t.92.85q.34.54.34 1.25 0 .48-.13.83a1.8 1.8 0 0 1-.45.65q-.31.3-.89.65l1.81 2.47h-2.09l-2.08-3.1q.99-.42 1.36-.6.37-.19.54-.38a.72.72 0 0 0 .18-.5q0-.41-.25-.56-.25-.16-.66-.16h-1.27zM109.557 26.12q-1 0-1.84-.48a3.7 3.7 0 0 1-1.32-1.32q-.48-.84-.48-1.83 0-.98.48-1.81a3.7 3.7 0 0 1 1.32-1.32 3.6 3.6 0 0 1 1.84-.49q.97 0 1.8.49.84.49 1.33 1.32.5.83.5 1.81 0 .99-.5 1.82a3.7 3.7 0 0 1-1.32 1.32 3.5 3.5 0 0 1-1.81.49m0-1.65q.531 0 .96-.26.43-.27.67-.72.25-.46.25-1a2 2 0 0 0-.25-.99q-.24-.45-.67-.71a1.77 1.77 0 0 0-.96-.27q-.54 0-.98.27-.43.26-.67.71t-.24.99.24 1q.24.45.67.72.44.26.98.26M100.163 26v-7h5.05v1.65h-3.3v1.06h2.93l-.4 1.6h-2.53V26zM91.913 19v3.49l2.22-3.49h2.13l-2.31 3.52 2.31 3.48h-2.13l-2.22-3.45v3.46h-1.75V19zM87.482 26l-3.45-3.95V26h-1.75v-7h1.28l3.45 3.96V19h1.75v7zM79.15 24.83h-2.16L76.55 26h-1.89l2.71-7h1.43l2.68 7H79.6zm-1.73-1.6h1.3l-.64-1.92zM72.185 26h-3.34v-7h3q.65 0 1.12.24t.71.65q.25.41.25.92v.03q0 .46-.17.83-.16.37-.58.64.62.18.9.66t.28 1.02v.05q0 .58-.28 1.03a1.9 1.9 0 0 1-.78.69q-.49.24-1.11.24m-1.59-4.27h1.04a.52.52 0 0 0 .38-.16.53.53 0 0 0 .17-.38.51.51 0 0 0-.16-.39q-.15-.15-.36-.15h-1.07zm0 2.62h1.39a.57.57 0 0 0 .44-.2.62.62 0 0 0 .18-.42v-.03a.53.53 0 0 0-.17-.4.6.6 0 0 0-.45-.17h-1.39zM60.984 20.65h-2.01V19h5.77v1.65h-2.01V26h-1.75zM55.251 26.12q-1.34 0-2.29-.5v-1.73q.43.34 1.02.54.6.2 1.14.2.53 0 .86-.13.34-.13.34-.44 0-.24-.28-.4-.27-.17-.87-.4-.68-.26-1.13-.49-.44-.24-.77-.66-.32-.42-.32-1.05 0-.59.28-1.08.28-.5.87-.8.6-.31 1.49-.31 1.25 0 2.11.51v1.7q-.42-.34-.94-.52-.51-.19-1.02-.19-.44 0-.75.14-.3.13-.3.39 0 .25.27.41t.88.39q.69.27 1.13.51.45.23.77.66.33.43.33 1.07 0 .62-.34 1.12-.33.49-.97.78-.64.28-1.51.28M51.493 21.71v1.6h-2.93v1.04h3.49l-.4 1.65h-4.84v-7h5.05v1.65h-3.3v1.06zM43.64 26H40.3v-7h3q.65 0 1.12.24t.71.65q.25.41.25.92v.03q0 .46-.17.83-.16.37-.58.64.62.18.9.66t.28 1.02v.05q0 .58-.28 1.03a1.9 1.9 0 0 1-.78.69q-.49.24-1.11.24m-1.59-4.27h1.04a.52.52 0 0 0 .38-.16.53.53 0 0 0 .17-.38.51.51 0 0 0-.16-.39q-.15-.15-.36-.15h-1.07zm0 2.62h1.39a.57.57 0 0 0 .44-.2.62.62 0 0 0 .18-.42v-.03a.53.53 0 0 0-.17-.4.6.6 0 0 0-.45-.17h-1.39zM89.323 80.12q-.54 0-.91-.06a4 4 0 0 1-.52-.11l-.49-.2v-1.59q.33.19.75.33.42.13.87.13.63 0 .99-.25.37-.25.37-.76a.82.82 0 0 0-.24-.59.98.98 0 0 0-.59-.32 2 2 0 0 0-.31-.02q-.26 0-.5.06-.23.06-.4.15l-.83-.52.79-3.37h3.3v1.64l-2.05.01-.17.78q.24-.03.46-.03.65 0 1.17.27.53.26.83.76.3.49.3 1.15 0 .74-.36 1.32t-1 .9-1.46.32M81.388 80v-1.73q.38-.36 1.32-1.08 1.02-.78 1.53-1.28.52-.51.52-.94 0-.3-.29-.45-.291-.15-.75-.15-.53 0-1.04.17-.51.16-.92.49v-1.65q.86-.51 2.11-.51 1.34 0 1.99.58t.65 1.51q0 .7-.34 1.25-.33.55-.79.93t-1.21.88q-.34.22-.49.33h2.85V80zM77.122 80.12q-.91 0-1.68-.48a3.5 3.5 0 0 1-1.22-1.32q-.45-.84-.45-1.83 0-.98.45-1.81t1.22-1.32a3.07 3.07 0 0 1 1.68-.49q.87 0 1.63.49.77.49 1.23 1.33.46.83.46 1.8 0 .98-.46 1.82a3.6 3.6 0 0 1-1.23 1.32q-.76.49-1.63.49m0-1.65q.73 0 1.15-.56.42-.57.42-1.42 0-.849-.42-1.41t-1.15-.56q-.49 0-.85.26a1.7 1.7 0 0 0-.56.71q-.19.45-.19 1t.19 1q.2.45.56.72.36.26.85.26M67.804 80v-1.73q.38-.36 1.32-1.08 1.02-.78 1.53-1.28.52-.51.52-.94 0-.3-.29-.45-.291-.15-.75-.15-.53 0-1.04.17-.51.16-.92.49v-1.65q.86-.51 2.11-.51 1.34 0 1.99.58t.65 1.51q0 .7-.34 1.25-.33.55-.79.93t-1.21.88q-.34.22-.49.33h2.85V80z"/></g><defs><clipPath id="a"><path fill="#fff" d="M0 0H162V82.525H0z"/></clipPath></defs></svg>