<svg xmlns="http://www.w3.org/2000/svg" fill="none" viewBox="0 0 400 200"><g clip-path="url(#a)"><path fill="#05171D" d="m21.34 175 59.5 25H32.06zM5.94 126.93l45.16 46.11-44.97-18.9zM10.36 76.66l23.77 60L0 101.81zM33.92 32.02l-1.33 64.52-17.97-45.35zM72.93 0 46.7 58.96l1.01-48.76z"/><path fill="#000" d="M117.959 47.92q.032 3.2-1.216 5.568-1.216 2.368-3.584 3.648-2.368 1.248-5.632 1.248-3.136 0-5.664-1.536-2.496-1.568-3.936-4.256-1.44-2.72-1.44-5.984 0-3.008 1.472-5.6a11.5 11.5 0 0 1 4.096-4.192q2.592-1.568 5.728-1.6 2.304-.032 4.192.576 1.92.576 3.104 1.472v4.768q-1.056-1.087-2.944-1.824-1.856-.768-4.256-.64a7.2 7.2 0 0 0-3.456 1.056 6.75 6.75 0 0 0-2.432 2.528q-.864 1.568-.864 3.456 0 2.08.832 3.776.833 1.665 2.304 2.656 1.472.96 3.328.96 2.656 0 4.096-1.312 1.44-1.344 1.696-3.68h-5.344l1.088-3.968h8.832zM120.671 35.6h18.336v4.352h-6.88V58h-4.608V39.952h-6.848zM161.801 58h-5.504l-6.784-9.888q2.976-1.184 4.224-1.76 1.248-.608 1.888-1.344.672-.736.672-1.888 0-1.472-.96-2.24-.928-.8-2.784-.8h-4.768V58h-4.608V38.8q0-.672-.192-1.568a14 14 0 0 0-.448-1.632h10.144q2.4 0 4.256.928 1.888.895 2.912 2.592 1.056 1.664 1.056 3.936 0 1.6-.512 2.752-.512 1.12-1.6 2.048-1.088.929-3.008 1.952zM193.271 58h-4.928l-1.696-4.352h-7.936L177.015 58h-4.96l8.192-20.96q-.128-.416-.608-1.44h4.96zm-10.592-16.32-2.848 7.776h5.664zM216.713 49.04l4.736-13.44h4.96l-8.32 22.4h-2.656l-5.12-14.112L205.193 58h-2.624l-8.352-22.4h4.992l4.672 13.568 4.352-12-.48-1.568h4.032zM248.584 58h-4.928l-1.696-4.352h-7.936L232.328 58h-4.96l8.192-20.96q-.128-.416-.608-1.44h4.96zm-10.592-16.32-2.848 7.776h5.664zM270.426 58h-5.504l-6.784-9.888q2.976-1.184 4.224-1.76 1.248-.608 1.888-1.344.672-.736.672-1.888 0-1.472-.96-2.24-.929-.8-2.784-.8h-4.768V58h-4.608V38.8q0-.672-.192-1.568a14 14 0 0 0-.448-1.632h10.144q2.4 0 4.256.928 1.888.895 2.912 2.592 1.056 1.664 1.056 3.936 0 1.6-.512 2.752-.512 1.12-1.6 2.048-1.088.929-3.008 1.952zM281.838 35.6q2.913 0 5.28 1.472t3.712 4.032q1.344 2.56 1.344 5.696v.064q0 3.072-1.344 5.632-1.344 2.528-3.712 4.032Q284.751 58 281.838 58h-8.864V38.8q0-.672-.192-1.568a14 14 0 0 0-.448-1.632zm5.76 11.2a8.3 8.3 0 0 0-.64-3.168 6.1 6.1 0 0 0-1.952-2.624q-1.344-1.056-3.392-1.056h-4.032v13.696h4.032q2.048 0 3.392-1.056a6.1 6.1 0 0 0 1.952-2.624q.64-1.568.64-3.104zM302.443 58.384q-4.16-.032-7.296-1.792v-4.576q1.44 1.12 3.36 1.76 1.952.64 3.808.64 1.952 0 3.2-.576t1.248-1.856q0-1.088-1.088-1.728-1.056-.672-3.36-1.536-2.272-.832-3.68-1.568a7.6 7.6 0 0 1-2.432-2.016q-1.024-1.28-1.024-3.2 0-1.855.928-3.36.929-1.536 2.784-2.432 1.856-.928 4.48-.928 4 0 6.816 1.664v4.48a10.2 10.2 0 0 0-3.008-1.6 9.8 9.8 0 0 0-3.328-.576q-1.697 0-2.88.576-1.184.544-1.184 1.696 0 1.088 1.056 1.76 1.056.64 3.36 1.504 2.272.832 3.68 1.568a7.3 7.3 0 0 1 2.464 2.048q1.024 1.28 1.024 3.232 0 1.984-1.088 3.552-1.088 1.536-3.104 2.4t-4.736.864M100.651 72.6q2.912 0 5.28 1.472t3.712 4.032 1.344 5.696v.064q0 3.072-1.344 5.632-1.344 2.528-3.712 4.032Q103.563 95 100.651 95h-8.864V75.8q0-.671-.192-1.568a14 14 0 0 0-.448-1.632zm5.76 11.2a8.3 8.3 0 0 0-.64-3.168 6.1 6.1 0 0 0-1.952-2.624q-1.344-1.056-3.392-1.056h-4.032v13.696h4.032q2.048 0 3.392-1.056a6.1 6.1 0 0 0 1.952-2.624q.64-1.568.64-3.104zM119.207 90.648h11.776L129.895 95h-15.296V75.8q0-.671-.192-1.568a14 14 0 0 0-.448-1.632h16.608v4.352h-11.36v4.768h10.176v4.224h-10.176zM153.896 95h-4.928l-1.696-4.352h-7.936L137.64 95h-4.96l8.192-20.96q-.128-.416-.608-1.44h4.96zm-10.592-16.32-2.848 7.776h5.664zM171.066 95h-14.528V72.6h4.608v18.048h11.008zM182.193 95.384q-4.16-.032-7.296-1.792v-4.576q1.44 1.12 3.36 1.76 1.952.64 3.808.64 1.952 0 3.2-.576t1.248-1.856q0-1.087-1.088-1.728-1.056-.672-3.36-1.536-2.272-.832-3.68-1.568a7.6 7.6 0 0 1-2.432-2.016q-1.024-1.28-1.024-3.2 0-1.856.928-3.36.929-1.536 2.784-2.432 1.856-.928 4.48-.928 4 0 6.816 1.664v4.48a10.2 10.2 0 0 0-3.008-1.6 9.8 9.8 0 0 0-3.328-.576q-1.697 0-2.88.576-1.184.544-1.184 1.696 0 1.088 1.056 1.76 1.056.64 3.36 1.504 2.272.832 3.68 1.568a7.3 7.3 0 0 1 2.464 2.048q1.024 1.28 1.024 3.232 0 1.985-1.088 3.552-1.088 1.536-3.104 2.4t-4.736.864M215.257 95.384q-3.2 0-5.888-1.536a11.8 11.8 0 0 1-4.224-4.224q-1.536-2.688-1.536-5.856 0-3.135 1.536-5.792a11.53 11.53 0 0 1 4.224-4.192q2.688-1.568 5.888-1.568 3.103 0 5.76 1.568a11.46 11.46 0 0 1 4.256 4.192q1.568 2.655 1.568 5.792 0 3.168-1.568 5.824a11.8 11.8 0 0 1-4.224 4.224q-2.656 1.568-5.792 1.568m0-4.352q1.952 0 3.552-.96a6.94 6.94 0 0 0 2.496-2.656q.928-1.664.928-3.648t-.928-3.616a6.7 6.7 0 0 0-2.496-2.624q-1.6-.96-3.552-.96-1.984 0-3.616.96a6.95 6.95 0 0 0-2.528 2.624q-.896 1.632-.896 3.616t.896 3.648a7.2 7.2 0 0 0 2.528 2.656q1.632.96 3.616.96M246.285 76.952h-11.296v4.704h10.048l-1.088 4.224h-8.96V95h-4.608V75.8q0-.671-.192-1.568a14 14 0 0 0-.448-1.632h16.544zM258.171 72.6h18.336v4.352h-6.88V95h-4.608V76.952h-6.848zM292.523 81.528V72.6h4.608V95h-4.608v-9.12h-9.728V95h-4.608V72.6h4.608v8.928zM305.332 90.648h11.776L316.02 95h-15.296V75.8q0-.671-.192-1.568a14 14 0 0 0-.448-1.632h16.608v4.352h-11.36v4.768h10.176v4.224h-10.176zM177.147 109.6h5.248l-7.968 14.624V132h-4.608v-7.872l-7.936-14.528h5.28l4.992 9.664zM189.629 127.648h11.776L200.317 132h-15.296v-19.2a7.6 7.6 0 0 0-.192-1.568 14 14 0 0 0-.448-1.632h16.608v4.352h-11.36v4.768h10.176v4.224h-10.176zM224.318 132h-4.928l-1.696-4.352h-7.936L208.062 132h-4.96l8.192-20.96q-.128-.416-.608-1.44h4.96zm-10.592-16.32-2.848 7.776h5.664zM246.16 132h-5.504l-6.784-9.888q2.976-1.184 4.224-1.76 1.248-.608 1.888-1.344.672-.736.672-1.888 0-1.472-.96-2.24-.927-.8-2.784-.8h-4.768V132h-4.608v-19.2a7.6 7.6 0 0 0-.192-1.568 14 14 0 0 0-.448-1.632h10.144q2.4 0 4.256.928 1.889.895 2.912 2.592 1.056 1.663 1.056 3.936 0 1.6-.512 2.752-.511 1.12-1.6 2.048t-3.008 1.952zM109.066 194.816q2.052-1.98 5.472-4.716 2.628-2.16 4.032-3.42 1.404-1.296 2.304-2.556.936-1.296.864-2.412 0-1.512-1.26-2.196t-2.916-.684q-1.944 0-3.816.612a10.3 10.3 0 0 0-3.348 1.872v-4.932q1.512-.972 3.42-1.476 1.908-.54 3.996-.54 4.5 0 6.84 2.016t2.268 5.292q0 2.34-1.08 4.248a13.9 13.9 0 0 1-2.7 3.348q-1.62 1.476-4.5 3.6l-2.844 2.232h11.196V200h-17.928zM142.22 200.432q-3.24 0-6.012-1.764t-4.392-4.752-1.62-6.552q0-3.528 1.62-6.516t4.392-4.752 6.012-1.764q3.132 0 5.868 1.764 2.772 1.764 4.392 4.752 1.656 2.988 1.656 6.516 0 3.564-1.656 6.588-1.62 2.988-4.392 4.752-2.736 1.728-5.868 1.728m0-4.896q1.98 0 3.492-1.08 1.548-1.116 2.376-2.952.864-1.872.864-4.14 0-2.232-.864-4.104-.828-1.872-2.376-2.952-1.512-1.08-3.492-1.08t-3.564 1.08q-1.548 1.08-2.412 2.952t-.864 4.104.864 4.104 2.412 2.988q1.584 1.08 3.564 1.08M157.511 194.816q2.052-1.98 5.472-4.716 2.628-2.16 4.032-3.42 1.404-1.296 2.304-2.556.936-1.296.864-2.412 0-1.512-1.26-2.196t-2.916-.684q-1.944 0-3.816.612a10.3 10.3 0 0 0-3.348 1.872v-4.932q1.512-.972 3.42-1.476 1.908-.54 3.996-.54 4.5 0 6.84 2.016t2.268 5.292q0 2.34-1.08 4.248a13.9 13.9 0 0 1-2.7 3.348q-1.62 1.476-4.5 3.6l-2.844 2.232h11.196V200h-17.928zM188.532 200h-5.184v-19.872l-4.5 1.044v-4.932l6.048-1.44h3.636zM205.805 190.964h-12.42v-4.608h12.42zM209.859 194.816q2.052-1.98 5.472-4.716 2.628-2.16 4.032-3.42 1.404-1.296 2.304-2.556.936-1.296.864-2.412 0-1.512-1.26-2.196t-2.916-.684q-1.944 0-3.816.612a10.3 10.3 0 0 0-3.348 1.872v-4.932q1.512-.972 3.42-1.476 1.908-.54 3.996-.54 4.5 0 6.84 2.016t2.268 5.292q0 2.34-1.08 4.248a13.9 13.9 0 0 1-2.7 3.348q-1.62 1.476-4.5 3.6l-2.844 2.232h11.196V200h-17.928zM243.013 200.432q-3.24 0-6.012-1.764t-4.392-4.752-1.62-6.552q0-3.528 1.62-6.516t4.392-4.752 6.012-1.764q3.132 0 5.868 1.764 2.772 1.764 4.392 4.752 1.656 2.988 1.656 6.516 0 3.564-1.656 6.588-1.62 2.988-4.392 4.752-2.736 1.728-5.868 1.728m0-4.896q1.98 0 3.492-1.08 1.548-1.116 2.376-2.952.864-1.872.864-4.14 0-2.232-.864-4.104-.828-1.872-2.376-2.952-1.512-1.08-3.492-1.08t-3.564 1.08q-1.548 1.08-2.412 2.952t-.864 4.104.864 4.104 2.412 2.988q1.584 1.08 3.564 1.08M258.304 194.816q2.052-1.98 5.472-4.716 2.628-2.16 4.032-3.42 1.404-1.296 2.304-2.556.936-1.296.864-2.412 0-1.512-1.26-2.196t-2.916-.684q-1.944 0-3.816.612a10.3 10.3 0 0 0-3.348 1.872v-4.932q1.512-.972 3.42-1.476 1.908-.54 3.996-.54 4.5 0 6.84 2.016t2.268 5.292q0 2.34-1.08 4.248a13.9 13.9 0 0 1-2.7 3.348q-1.62 1.476-4.5 3.6l-2.844 2.232h11.196V200h-17.928zM296.212 174.8v15.372l3.024.036-.036 4.536h-2.988V200h-4.788v-5.256h-11.772v-4.14l10.08-15.804zm-4.788 5.004-6.66 10.332h6.66z"/><path fill="#05171D" d="m378.66 175-59.5 25h48.78zM394.06 126.93l-45.16 46.11 44.97-18.9zM389.64 76.66l-23.77 60L400 101.81zM366.08 32.02l1.33 64.52 17.97-45.35zM327.07 0l26.23 58.96-1.01-48.76z"/></g><defs><clipPath id="a"><path fill="#fff" d="M0 0H400V200H0z"/></clipPath></defs></svg>