<svg xmlns="http://www.w3.org/2000/svg" fill="none" viewBox="0 0 162 83"><g clip-path="url(#a)"><path fill="#0A0A0D" d="m8.646 70.877 24.095 10.127H12.986zM2.407 51.407l18.289 18.667-18.212-7.65zM0 41.233l13.823 14.113-9.623-24.3zM13.738 12.969l-.537 26.13-7.279-18.366zM29.54-.001l-10.216 4.13-.41 19.751zM153.355 70.877 129.26 81.004h19.755zM159.593 51.407l-18.289 18.667 18.212-7.654zM148.177 55.346 162 41.233l-4.2-10.187zM148.263 12.969l.541 26.13 7.28-18.366zM132.463-.001l10.623 23.88-.408-19.75z"/><path fill="#000" d="M113.571 57.12q-1.34 0-2.29-.5v-1.73q.43.34 1.02.54.6.2 1.14.2.53 0 .86-.13.34-.13.34-.44 0-.24-.28-.4-.27-.17-.87-.4-.68-.26-1.13-.49-.44-.24-.77-.66-.32-.42-.32-1.05 0-.59.28-1.08.28-.5.87-.8.6-.31 1.49-.31 1.25 0 2.11.51v1.7q-.42-.34-.94-.52-.51-.19-1.02-.19-.44 0-.75.14-.3.13-.3.39 0 .25.27.41t.88.39q.69.27 1.13.51.45.23.77.66.33.43.33 1.07 0 .62-.34 1.12-.33.49-.97.78-.64.28-1.51.28M107.045 57h-2.8v-7h2.8q.91 0 1.66.46t1.18 1.26q.44.8.44 1.78v.02q0 .96-.44 1.76-.43.8-1.18 1.26t-1.66.46m-1.05-1.65h.96q.59 0 .95-.3.37-.31.52-.73t.15-.8v-.02q0-.4-.15-.82-.15-.43-.52-.73-.36-.3-.95-.3h-.96zM101.564 57l-3.45-3.95V57h-1.75v-7h1.28l3.45 3.96V50h1.75v7zM91.638 57.12q-1 0-1.84-.48a3.7 3.7 0 0 1-1.32-1.32q-.48-.84-.48-1.83 0-.98.48-1.81a3.7 3.7 0 0 1 1.32-1.32 3.6 3.6 0 0 1 1.84-.49 3.5 3.5 0 0 1 1.8.49 3.66 3.66 0 0 1 1.33 1.32q.5.83.5 1.81 0 .99-.5 1.82a3.7 3.7 0 0 1-1.32 1.32 3.5 3.5 0 0 1-1.81.49m0-1.65q.53 0 .96-.26.43-.27.67-.72.25-.46.25-1t-.25-.99q-.24-.45-.67-.71a1.77 1.77 0 0 0-.96-.27q-.54 0-.98.27-.43.26-.67.71t-.24.99.24 1q.24.45.67.72.44.26.98.26M85.124 57h-3.34v-7h3q.65 0 1.12.24t.71.65q.25.41.25.92v.03q0 .46-.17.83-.16.37-.58.64.62.18.9.66t.28 1.02v.05q0 .58-.28 1.03a1.9 1.9 0 0 1-.78.69 2.5 2.5 0 0 1-1.11.24m-1.59-4.27h1.04a.52.52 0 0 0 .38-.16.53.53 0 0 0 .17-.38.51.51 0 0 0-.16-.39q-.15-.15-.36-.15h-1.07zm0 2.62h1.39a.57.57 0 0 0 .44-.2.62.62 0 0 0 .18-.42v-.03a.53.53 0 0 0-.17-.4.6.6 0 0 0-.45-.17h-1.39zM76.105 57l-3.45-3.95V57h-1.75v-7h1.28l3.45 3.96V50h1.75v7zM69.247 52.71v1.6h-2.93v1.04h3.49l-.4 1.65h-4.84v-7h5.05v1.65h-3.3v1.06zM62.91 52.71v1.6h-2.93v1.04h3.49l-.4 1.65h-4.84v-7h5.05v1.65h-3.3v1.06zM53.163 57h-1.75v-7h3.08q.75 0 1.34.3t.92.85q.34.54.34 1.25 0 .48-.13.83a1.8 1.8 0 0 1-.45.65q-.31.3-.89.65l1.81 2.47h-2.09l-2.08-3.1q.99-.42 1.36-.6.37-.19.54-.38a.72.72 0 0 0 .18-.5q0-.41-.25-.56-.25-.16-.66-.16h-1.27zM47.125 54.33l.4-1.5h2.74v1.11q0 1.01-.4 1.73-.39.71-1.13 1.08-.73.37-1.73.37a3.27 3.27 0 0 1-1.76-.49 3.44 3.44 0 0 1-1.24-1.34q-.45-.85-.45-1.87 0-.95.48-1.76.48-.82 1.3-1.3a3.5 3.5 0 0 1 1.82-.49q.7 0 1.28.19.58.18.93.45v1.8q-.32-.34-.91-.58-.59-.25-1.36-.2a1.88 1.88 0 0 0-1.55.97q-.23.42-.23.93 0 .57.22 1.04.23.46.62.73.39.26.87.26 1.29 0 1.48-1.13zM86.102 45h-1.75v-7h3.08q.75 0 1.34.3t.92.85q.34.54.34 1.25 0 .48-.13.83a1.8 1.8 0 0 1-.45.65q-.31.3-.89.65l1.81 2.47h-2.09l-2.08-3.1q.99-.42 1.36-.6.37-.19.54-.38a.72.72 0 0 0 .18-.5q0-.41-.25-.56-.249-.16-.66-.16h-1.27zM79.626 45.12q-1 0-1.84-.48a3.7 3.7 0 0 1-1.32-1.32q-.48-.84-.48-1.83 0-.98.48-1.81a3.7 3.7 0 0 1 1.32-1.32 3.6 3.6 0 0 1 1.84-.49q.969 0 1.8.49a3.66 3.66 0 0 1 1.33 1.32q.5.83.5 1.81a3.46 3.46 0 0 1-.5 1.82 3.7 3.7 0 0 1-1.32 1.32 3.5 3.5 0 0 1-1.81.49m0-1.65q.53 0 .96-.26.43-.27.67-.72.25-.46.25-1t-.25-.99q-.24-.45-.67-.71a1.77 1.77 0 0 0-.96-.27q-.54 0-.98.27-.43.26-.67.71t-.24.99.24 1q.24.45.67.72.44.26.98.26M70.231 45v-7h5.05v1.65h-3.3v1.06h2.93l-.4 1.6h-2.53V45zM103.881 26v3.49l2.22-3.49h2.13l-2.31 3.52 2.31 3.48h-2.13l-2.22-3.45v3.46h-1.75V26zM99.45 33 96 29.05V33h-1.75v-7h1.28l3.45 3.96V26h1.75v7zM91.118 31.83h-2.16l-.44 1.17h-1.89l2.71-7h1.43l2.68 7h-1.88zm-1.73-1.6h1.3l-.64-1.92zM84.152 33h-3.34v-7h3q.65 0 1.12.24t.71.65q.25.41.25.92v.03q0 .46-.17.83-.16.37-.58.64.621.18.9.66.28.48.28 1.02v.05q0 .58-.28 1.03a1.9 1.9 0 0 1-.78.69q-.489.24-1.11.24m-1.59-4.27h1.04a.52.52 0 0 0 .38-.16.53.53 0 0 0 .17-.38.51.51 0 0 0-.16-.39q-.15-.15-.36-.15h-1.07zm0 2.62h1.39a.57.57 0 0 0 .44-.2.62.62 0 0 0 .18-.42v-.03a.53.53 0 0 0-.17-.4.6.6 0 0 0-.45-.17h-1.39zM72.952 27.65h-2.01V26h5.77v1.65h-2.01V33h-1.75zM67.219 33.12q-1.34 0-2.29-.5v-1.73q.43.34 1.02.54.6.2 1.14.2.53 0 .86-.13.34-.13.34-.44 0-.24-.28-.4-.27-.17-.87-.4-.68-.26-1.13-.49-.44-.24-.77-.66-.32-.42-.32-1.05 0-.59.28-1.08.28-.5.87-.8.6-.31 1.49-.31 1.25 0 2.11.51v1.7q-.42-.34-.94-.52-.51-.19-1.02-.19-.44 0-.75.14-.3.13-.3.39 0 .25.27.41t.88.39q.69.27 1.13.51.45.23.77.66.33.43.33 1.07 0 .62-.34 1.12-.33.49-.97.78-.64.28-1.51.28M63.461 28.71v1.6h-2.93v1.04h3.49l-.4 1.65h-4.84v-7h5.05v1.65h-3.3v1.06zM55.607 33h-3.34v-7h3q.65 0 1.12.24t.71.65q.25.41.25.92v.03q0 .46-.17.83-.16.37-.58.64.621.18.9.66.28.48.28 1.02v.05q0 .58-.28 1.03a1.9 1.9 0 0 1-.78.69 2.5 2.5 0 0 1-1.11.24m-1.59-4.27h1.04a.52.52 0 0 0 .38-.16.53.53 0 0 0 .17-.38.51.51 0 0 0-.16-.39q-.15-.15-.36-.15h-1.07zm0 2.62h1.39a.57.57 0 0 0 .44-.2.62.62 0 0 0 .18-.42v-.03a.53.53 0 0 0-.17-.4.6.6 0 0 0-.45-.17h-1.39zM89.323 80.12q-.54 0-.91-.06a4 4 0 0 1-.52-.11l-.49-.2v-1.59q.33.19.75.33.42.13.87.13.63 0 .99-.25.37-.25.37-.76a.82.82 0 0 0-.24-.59.98.98 0 0 0-.59-.32 2 2 0 0 0-.31-.02q-.26 0-.5.06-.23.06-.4.15l-.83-.52.79-3.37h3.3v1.64l-2.05.01-.17.78q.24-.03.46-.03.65 0 1.17.27.53.26.83.76.3.49.3 1.15 0 .74-.36 1.32t-1 .9-1.46.32M81.388 80v-1.73q.38-.36 1.32-1.08 1.02-.78 1.53-1.28.52-.51.52-.94 0-.3-.29-.45-.291-.15-.75-.15-.53 0-1.04.17-.51.16-.92.49v-1.65q.86-.51 2.11-.51 1.34 0 1.99.58t.65 1.51q0 .7-.34 1.25-.33.55-.79.93t-1.21.88q-.34.22-.49.33h2.85V80zM77.122 80.12q-.91 0-1.68-.48a3.5 3.5 0 0 1-1.22-1.32q-.45-.84-.45-1.83 0-.98.45-1.81t1.22-1.32a3.07 3.07 0 0 1 1.68-.49q.87 0 1.63.49.77.49 1.23 1.33.46.83.46 1.8 0 .98-.46 1.82a3.6 3.6 0 0 1-1.23 1.32q-.76.49-1.63.49m0-1.65q.73 0 1.15-.56.42-.57.42-1.42 0-.849-.42-1.41t-1.15-.56q-.49 0-.85.26a1.7 1.7 0 0 0-.56.71q-.19.45-.19 1t.19 1q.2.45.56.72.36.26.85.26M67.804 80v-1.73q.38-.36 1.32-1.08 1.02-.78 1.53-1.28.52-.51.52-.94 0-.3-.29-.45-.291-.15-.75-.15-.53 0-1.04.17-.51.16-.92.49v-1.65q.86-.51 2.11-.51 1.34 0 1.99.58t.65 1.51q0 .7-.34 1.25-.33.55-.79.93t-1.21.88q-.34.22-.49.33h2.85V80z"/></g><defs><clipPath id="a"><path fill="#fff" d="M0 0H162V82.525H0z"/></clipPath></defs></svg>