<svg xmlns="http://www.w3.org/2000/svg" fill="none" viewBox="0 0 162 83"><g clip-path="url(#a)"><path fill="#0A0A0D" d="m8.646 70.877 24.095 10.127H12.986zM2.407 51.407l18.289 18.667-18.212-7.65zM0 41.233l13.823 14.113-9.623-24.3zM13.738 12.969l-.537 26.13-7.279-18.366zM29.54-.001l-10.216 4.13-.41 19.751zM153.355 70.877 129.26 81.004h19.755zM159.593 51.407l-18.289 18.667 18.212-7.654zM148.177 55.346 162 41.233l-4.2-10.187zM148.263 12.969l.541 26.13 7.28-18.366zM132.463-.001l10.623 23.88-.408-19.75z"/><path fill="#000" d="M95.732 60.83h-2.16l-.44 1.17h-1.89l2.71-7h1.43l2.68 7h-1.88zm-1.73-1.6h1.3l-.64-1.92zM88.993 62.12q-.99 0-1.83-.48a3.74 3.74 0 0 1-1.34-1.32 3.53 3.53 0 0 1-.49-1.83q0-.99.49-1.82a3.66 3.66 0 0 1 1.34-1.31q.84-.49 1.83-.49.47 0 .86.11.39.1.79.37v1.75a2 2 0 0 0-.67-.41 2.2 2.2 0 0 0-.86-.17q-.57 0-1.04.26-.46.26-.73.71-.26.45-.26 1 0 .53.24.99.25.45.68.72t.95.27q.54 0 .97-.14.44-.15.72-.43v1.77a2.2 2.2 0 0 1-.75.33q-.441.12-.9.12M82.429 55h1.75v7h-1.75zM77.362 62h-1.75v-7h3.08q.75 0 1.34.3t.92.85q.34.54.34 1.25 0 .48-.13.83a1.8 1.8 0 0 1-.45.65q-.31.3-.89.65l1.81 2.47h-2.09l-2.08-3.1q.99-.42 1.36-.6.37-.19.54-.38a.72.72 0 0 0 .18-.5q0-.41-.25-.56-.25-.16-.66-.16h-1.27zM69.557 62v-7h5.05v1.65h-3.3v1.06h2.93l-.4 1.6h-2.53V62zM66.426 60.83h-2.16l-.44 1.17h-1.89l2.71-7h1.43l2.68 7h-1.88zm-1.73-1.6h1.3l-.64-1.92zM131.403 50l-3.45-3.95V50h-1.75v-7h1.28l3.45 3.96V43h1.75v7zM123.049 43h1.75v7h-1.75zM118.393 45.71v1.6h-2.93v1.04h3.49l-.4 1.65h-4.84v-7h5.05v1.65h-3.3v1.06zM110.863 50.12q-.99 0-1.83-.48a3.74 3.74 0 0 1-1.34-1.32 3.53 3.53 0 0 1-.49-1.83q0-.99.49-1.82.5-.83 1.34-1.31.84-.49 1.83-.49.47 0 .86.11.39.1.79.37v1.75a2 2 0 0 0-.67-.41 2.2 2.2 0 0 0-.86-.17q-.57 0-1.04.26-.46.26-.73.71-.26.45-.26 1 0 .53.24.99.25.45.68.72t.95.27q.54 0 .97-.14.44-.15.72-.43v1.77a2.2 2.2 0 0 1-.75.33q-.44.12-.9.12M104.772 50l-3.45-3.95V50h-1.75v-7h1.28l3.45 3.96V43h1.75v7zM96.44 48.83h-2.16L93.84 50h-1.89l2.71-7h1.43l2.68 7h-1.88zm-1.73-1.6h1.3l-.64-1.92zM89.87 50l-3.45-3.95V50h-1.75v-7h1.28l3.45 3.96V43h1.75v7zM81.515 43h1.75v7h-1.75zM75.46 50v-7h5.05v1.65h-3.3v1.06h2.93l-.4 1.6h-2.53V50zM67.6 44.65h-2.01V43h5.77v1.65h-2.01V50H67.6zM63.04 50.12q-.99 0-1.83-.48a3.74 3.74 0 0 1-1.34-1.32 3.53 3.53 0 0 1-.49-1.83q0-.99.49-1.82a3.66 3.66 0 0 1 1.34-1.31q.84-.49 1.83-.49.47 0 .86.11.39.1.79.37v1.75a2 2 0 0 0-.67-.41 2.2 2.2 0 0 0-.86-.17q-.57 0-1.04.26-.46.26-.73.71-.26.45-.26 1 0 .53.24.99.25.45.68.72t.95.27q.54 0 .97-.14.441-.15.72-.43v1.77a2.2 2.2 0 0 1-.75.33q-.44.12-.9.12M57.973 45.71v1.6h-2.93v1.04h3.49l-.4 1.65h-4.84v-7h5.05v1.65h-3.3v1.06zM49.979 50.11q-.28.04-.44.04-.61 0-1.06-.2v-1.58q.04.02.19.08t.29.1q.14.03.27.03.11 0 .25-.03.35-.1.51-.32.16-.23.16-.61V43h1.75v4.63q0 .98-.51 1.65t-1.41.83M44.152 50.12q-1 0-1.84-.48a3.7 3.7 0 0 1-1.32-1.32q-.48-.84-.48-1.83 0-.98.48-1.81a3.7 3.7 0 0 1 1.32-1.32 3.6 3.6 0 0 1 1.84-.49q.97 0 1.8.49a3.66 3.66 0 0 1 1.33 1.32q.5.83.5 1.81 0 .99-.5 1.82a3.7 3.7 0 0 1-1.32 1.32 3.5 3.5 0 0 1-1.81.49m0-1.65q.53 0 .96-.26.43-.27.67-.72.25-.46.25-1t-.25-.99q-.24-.45-.67-.71a1.77 1.77 0 0 0-.96-.27q-.54 0-.98.27-.43.26-.67.71t-.24.99.24 1q.24.45.67.72.44.26.98.26M35.746 50h-1.75v-7h3.08q.75 0 1.34.3t.92.85q.34.54.34 1.25 0 .48-.13.83a1.8 1.8 0 0 1-.45.65q-.31.3-.89.65l1.81 2.47h-2.09l-2.08-3.1q.99-.42 1.36-.6.369-.19.54-.38a.72.72 0 0 0 .18-.5q0-.41-.25-.56-.25-.16-.66-.16h-1.27zM27.316 43h2.98q.75 0 1.34.3t.92.85q.34.54.34 1.25v.05q0 .95-.61 1.57-.6.62-1.82.83l-1.4.28V50h-1.75zm1.75 3.47 1.18-.21q.41-.06.61-.2t.24-.29q.05-.15.05-.35 0-.44-.25-.6-.24-.17-.66-.17h-1.17zM112.113 33.71v1.6h-2.93v1.04h3.49l-.4 1.65h-4.84v-7h5.05v1.65h-3.3v1.06zM103.186 36.35h3.25l-.4 1.65h-4.6v-7h1.75zM98.303 38h-3.34v-7h3q.65 0 1.12.24t.71.65q.25.41.25.92v.03q0 .46-.17.83-.16.37-.58.64.62.18.9.66t.28 1.02v.05q0 .58-.28 1.03a1.9 1.9 0 0 1-.78.69q-.49.24-1.11.24m-1.59-4.27h1.04a.52.52 0 0 0 .38-.16.53.53 0 0 0 .17-.38.51.51 0 0 0-.16-.39q-.15-.15-.36-.15h-1.07zm0 2.62h1.39a.57.57 0 0 0 .44-.2.62.62 0 0 0 .18-.42v-.03a.53.53 0 0 0-.17-.4.6.6 0 0 0-.45-.17h-1.39zM91.831 36.83h-2.16l-.44 1.17h-1.89l2.71-7h1.43l2.68 7h-1.88zm-1.73-1.6h1.3l-.64-1.92zM85.26 38l-3.45-3.95V38h-1.75v-7h1.28l3.45 3.96V31h1.75v7zM76.906 31h1.75v7h-1.75zM73.774 36.83h-2.16l-.44 1.17h-1.89l2.71-7h1.43l2.68 7h-1.88zm-1.73-1.6h1.3l-.64-1.92zM65.872 32.65h-2.01V31h5.77v1.65h-2.01V38h-1.75zM60.139 38.12q-1.34 0-2.29-.5v-1.73q.43.34 1.02.54.6.2 1.14.2.53 0 .86-.13.34-.13.34-.44 0-.24-.28-.4-.27-.17-.87-.4-.68-.26-1.13-.49-.44-.24-.77-.66-.32-.42-.32-1.05 0-.59.28-1.08.28-.5.87-.8.6-.31 1.49-.31 1.25 0 2.11.51v1.7q-.42-.34-.94-.52-.51-.19-1.02-.19-.44 0-.75.14-.3.13-.3.39 0 .25.27.41t.88.39q.69.27 1.13.51.45.23.77.66.33.43.33 1.07 0 .62-.34 1.12-.33.49-.97.78-.64.28-1.51.28M53.814 38.12q-.81 0-1.52-.39-.7-.39-1.12-1.08-.42-.7-.42-1.57V31h1.75v4.11q0 .43.19.73t.49.45.62.15h.02q.309 0 .6-.14.29-.15.47-.44a1.25 1.25 0 0 0 .19-.7V31h1.75v4.08q0 .88-.42 1.57-.411.69-1.11 1.08-.69.39-1.49.39M46.73 38.12q-1.34 0-2.29-.5v-1.73q.43.34 1.02.54.6.2 1.14.2.53 0 .86-.13.34-.13.34-.44 0-.24-.28-.4-.27-.17-.87-.4-.68-.26-1.13-.49-.44-.24-.77-.66-.32-.42-.32-1.05 0-.59.28-1.08.28-.5.87-.8.6-.31 1.49-.31 1.25 0 2.11.51v1.7q-.42-.34-.94-.52-.51-.19-1.02-.19-.44 0-.75.14-.3.13-.3.39 0 .25.27.41t.88.39q.69.27 1.13.51.45.23.77.66.33.43.33 1.07 0 .62-.34 1.12-.33.49-.97.78-.64.28-1.51.28M114.923 26l-3.45-3.95V26h-1.75v-7h1.28l3.45 3.96V19h1.75v7zM106.569 19h1.75v7h-1.75zM96.891 19h2.98q.75 0 1.34.3t.92.85q.34.54.34 1.25v.05q0 .95-.61 1.57-.6.62-1.82.83l-1.4.28V26h-1.75zm1.75 3.47 1.18-.21q.41-.06.61-.2.201-.14.24-.29.05-.15.05-.35 0-.44-.25-.6-.24-.17-.66-.17h-1.17zM93.737 19h1.75v7h-1.75zM88.268 19v2.65h2.52V19h1.75v7h-1.75v-2.7h-2.52V26h-1.75v-7zM82.595 26.12q-1.34 0-2.29-.5v-1.73q.43.34 1.02.54.6.2 1.14.2.53 0 .86-.13.34-.13.34-.44 0-.24-.28-.4-.27-.17-.87-.4-.68-.26-1.13-.49-.44-.24-.77-.66-.32-.42-.32-1.05 0-.59.28-1.08.28-.5.87-.8.6-.31 1.49-.31 1.25 0 2.11.51v1.7q-.42-.34-.94-.52-.51-.19-1.02-.19-.44 0-.75.14-.3.13-.3.39 0 .25.27.41t.88.39q.69.27 1.13.51.45.23.77.66.33.43.33 1.07 0 .62-.34 1.12-.33.49-.97.78-.64.28-1.51.28M75.429 26h-1.75v-7h3.08q.75 0 1.34.3t.92.85q.34.54.34 1.25 0 .48-.13.83a1.8 1.8 0 0 1-.45.65q-.31.3-.89.65l1.81 2.47h-2.09l-2.08-3.1q.99-.42 1.36-.6.369-.19.54-.38a.72.72 0 0 0 .18-.5q0-.41-.25-.56-.25-.16-.66-.16h-1.27zM72.02 21.71v1.6h-2.93v1.04h3.49l-.4 1.65h-4.84v-7h5.05v1.65h-3.3v1.06zM62.914 26h-2.8v-7h2.8q.91 0 1.66.46t1.18 1.26q.44.8.44 1.78v.02q0 .96-.44 1.76-.43.8-1.18 1.26t-1.66.46m-1.05-1.65h.96q.59 0 .95-.3.37-.31.52-.73t.15-.8v-.02q0-.4-.15-.82-.15-.43-.52-.73-.36-.3-.95-.3h-.96zM56.982 24.83h-2.16l-.44 1.17h-1.89l2.71-7h1.43l2.68 7h-1.88zm-1.73-1.6h1.3l-.64-1.92zM51.435 21.71v1.6h-2.93v1.04h3.49l-.4 1.65h-4.84v-7h5.05v1.65h-3.3v1.06zM42.508 24.35h3.25l-.4 1.65h-4.6v-7h1.75zM113.781 11.33l.4-1.5h2.74v1.11q0 1.01-.4 1.73-.39.71-1.13 1.08-.73.37-1.73.37a3.27 3.27 0 0 1-1.76-.49 3.43 3.43 0 0 1-1.24-1.34q-.45-.85-.45-1.87 0-.95.48-1.76.48-.82 1.3-1.3a3.5 3.5 0 0 1 1.82-.49q.7 0 1.28.19.579.18.93.45v1.8q-.32-.34-.91-.58-.59-.25-1.36-.2a1.88 1.88 0 0 0-1.78 1.9q0 .57.22 1.04.23.46.62.73.39.26.87.26 1.29 0 1.48-1.13zM107.78 14l-3.45-3.95V14h-1.75V7h1.28l3.45 3.96V7h1.75v7zM99.426 7h1.75v7h-1.75zM94.999 14h-2.8V7h2.8q.91 0 1.66.46t1.18 1.26q.44.8.44 1.78v.02q0 .96-.44 1.76-.43.8-1.18 1.26t-1.66.46m-1.05-1.65h.96q.59 0 .95-.3.37-.31.52-.73t.15-.8v-.02q0-.4-.15-.82a1.6 1.6 0 0 0-.52-.73q-.36-.3-.95-.3h-.96zM89.518 14l-3.45-3.95V14h-1.75V7h1.28l3.45 3.96V7h1.75v7zM81.187 12.83h-2.16l-.44 1.17h-1.89l2.71-7h1.43l2.68 7h-1.88zm-1.73-1.6h1.3l-.64-1.92zM73.284 8.65h-2.01V7h5.77v1.65h-2.01V14h-1.75zM67.551 14.12q-1.34 0-2.29-.5v-1.73q.43.34 1.02.54.6.2 1.14.2.53 0 .86-.13.34-.13.34-.44 0-.24-.28-.4-.27-.17-.87-.4-.68-.26-1.13-.49-.44-.24-.77-.66-.32-.42-.32-1.05 0-.59.28-1.08.28-.5.87-.8.6-.31 1.49-.31 1.25 0 2.11.51v1.7q-.42-.34-.94-.52-.51-.19-1.02-.19-.44 0-.75.14-.3.13-.3.39 0 .25.27.41t.88.39q.69.27 1.13.51.45.23.77.66.33.43.33 1.07 0 .62-.34 1.12-.33.49-.97.78-.64.28-1.51.28M60.589 8.65h-2.01V7h5.77v1.65h-2.01V14h-1.75zM54.458 14.12q-.81 0-1.52-.39-.7-.39-1.12-1.08-.42-.7-.42-1.57V7h1.75v4.11q0 .43.19.73t.49.45.62.15h.02q.31 0 .6-.14.29-.15.47-.44.19-.29.19-.7V7h1.75v4.08q0 .88-.42 1.57-.41.69-1.11 1.08-.69.39-1.49.39M46.672 14.12q-1 0-1.84-.48a3.7 3.7 0 0 1-1.32-1.32q-.48-.84-.48-1.83 0-.98.48-1.81a3.7 3.7 0 0 1 1.32-1.32 3.6 3.6 0 0 1 1.84-.49q.969 0 1.8.49.84.49 1.33 1.32.5.83.5 1.81a3.46 3.46 0 0 1-.5 1.82 3.7 3.7 0 0 1-1.32 1.32 3.5 3.5 0 0 1-1.81.49m0-1.65q.53 0 .96-.26.43-.27.67-.72.25-.46.25-1t-.25-.99q-.24-.45-.67-.71a1.77 1.77 0 0 0-.96-.27q-.54 0-.98.27-.43.26-.67.71t-.24.99.24 1q.24.45.67.72.44.26.98.26M87.242 80v-1.73q.38-.36 1.32-1.08 1.02-.78 1.53-1.28.52-.51.52-.94 0-.3-.29-.45t-.75-.15q-.53 0-1.04.17-.51.16-.92.49v-1.65q.86-.51 2.11-.51 1.34 0 1.99.58t.65 1.51q0 .7-.34 1.25-.33.55-.79.93t-1.21.88q-.34.22-.49.33h2.85V80zM81.226 80v-1.73q.381-.36 1.32-1.08 1.02-.78 1.53-1.28.52-.51.52-.94 0-.3-.29-.45t-.75-.15q-.53 0-1.04.17-.51.16-.92.49v-1.65q.86-.51 2.11-.51 1.34 0 1.99.58t.65 1.51q0 .7-.34 1.25-.33.55-.79.93t-1.21.88q-.34.22-.49.33h2.85V80zM76.96 80.12q-.909 0-1.68-.48a3.5 3.5 0 0 1-1.22-1.32q-.45-.84-.45-1.83 0-.98.45-1.81t1.22-1.32a3.07 3.07 0 0 1 1.68-.49q.87 0 1.63.49.771.49 1.23 1.33.46.83.46 1.8 0 .98-.46 1.82a3.6 3.6 0 0 1-1.23 1.32q-.76.49-1.63.49m0-1.65q.73 0 1.15-.56.42-.57.42-1.42 0-.849-.42-1.41t-1.15-.56q-.49 0-.85.26a1.7 1.7 0 0 0-.56.71q-.19.45-.19 1t.19 1q.2.45.56.72.36.26.85.26M67.642 80v-1.73q.381-.36 1.32-1.08 1.02-.78 1.53-1.28.52-.51.52-.94 0-.3-.29-.45t-.75-.15q-.53 0-1.04.17-.51.16-.92.49v-1.65q.86-.51 2.11-.51 1.34 0 1.99.58t.65 1.51q0 .7-.34 1.25-.33.55-.79.93t-1.21.88q-.34.22-.49.33h2.85V80z"/></g><defs><clipPath id="a"><path fill="#fff" d="M0 0H162V82.525H0z"/></clipPath></defs></svg>