<svg xmlns="http://www.w3.org/2000/svg" fill="none" viewBox="0 0 400 200"><g clip-path="url(#a)"><path fill="#05171D" d="m21.34 175 59.5 25H32.06zM5.94 126.93l45.16 46.11-44.97-18.9zM10.36 76.66l23.77 60L0 101.81zM33.92 32.02l-1.33 64.52-17.97-45.35zM72.93 0 46.7 58.96l1.01-48.76z"/><path fill="#000" d="M118.839 24.55q.03 3-1.14 5.22a7.92 7.92 0 0 1-3.36 3.42q-2.22 1.17-5.28 1.17-2.94 0-5.31-1.44-2.34-1.47-3.69-3.99-1.35-2.55-1.35-5.61 0-2.82 1.38-5.25 1.41-2.46 3.84-3.93t5.37-1.5q2.16-.03 3.93.54 1.8.54 2.91 1.38v4.47q-.99-1.02-2.76-1.71-1.74-.72-3.99-.6-1.77.09-3.24.99a6.33 6.33 0 0 0-2.28 2.37q-.81 1.47-.81 3.24 0 1.95.78 3.54.78 1.56 2.16 2.49 1.38.9 3.12.9 2.49 0 3.84-1.23 1.35-1.26 1.59-3.45h-5.01l1.02-3.72h8.28zM121.382 13h17.19v4.08h-6.45V34h-4.32V17.08h-6.42zM159.941 34h-5.16l-6.36-9.27q2.79-1.11 3.96-1.65 1.17-.57 1.77-1.26.63-.69.63-1.77 0-1.38-.9-2.1-.87-.75-2.61-.75h-4.47V34h-4.32V16q0-.63-.18-1.47t-.42-1.53h9.51q2.25 0 3.99.87 1.77.84 2.73 2.43.99 1.56.99 3.69 0 1.5-.48 2.58-.48 1.05-1.5 1.92t-2.82 1.83zM189.445 34h-4.62l-1.59-4.08h-7.44l-1.59 4.08h-4.65l7.68-19.65q-.12-.39-.57-1.35h4.65zm-9.93-15.3-2.67 7.29h5.31zM211.422 25.6l4.44-12.6h4.65l-7.8 21h-2.49l-4.8-13.23-4.8 13.23h-2.46l-7.83-21h4.68l4.38 12.72 4.08-11.25-.45-1.47h3.78zM241.3 34h-4.62l-1.59-4.08h-7.44L226.06 34h-4.65l7.68-19.65q-.12-.39-.57-1.35h4.65zm-9.93-15.3-2.67 7.29h5.31zM261.777 34h-5.16l-6.36-9.27q2.79-1.11 3.96-1.65 1.17-.57 1.77-1.26.63-.69.63-1.77 0-1.38-.9-2.1-.87-.75-2.61-.75h-4.47V34h-4.32V16q0-.63-.18-1.47t-.42-1.53h9.51q2.25 0 3.99.87 1.77.84 2.73 2.43.99 1.56.99 3.69 0 1.5-.48 2.58-.48 1.05-1.5 1.92t-2.82 1.83zM272.476 13q2.73 0 4.95 1.38t3.48 3.78 1.26 5.34v.06q0 2.88-1.26 5.28a9.9 9.9 0 0 1-3.48 3.78q-2.22 1.38-4.95 1.38h-8.31V16q0-.63-.18-1.47t-.42-1.53zm5.4 10.5q0-1.5-.6-2.97a5.7 5.7 0 0 0-1.83-2.46q-1.26-.99-3.18-.99h-3.78v12.84h3.78q1.92 0 3.18-.99a5.7 5.7 0 0 0 1.83-2.46q.6-1.47.6-2.91zM291.793 34.36q-3.9-.03-6.84-1.68v-4.29q1.35 1.05 3.15 1.65 1.83.6 3.57.6 1.83 0 3-.54t1.17-1.74q0-1.02-1.02-1.62-.99-.63-3.15-1.44-2.13-.78-3.45-1.47a7.1 7.1 0 0 1-2.28-1.89q-.96-1.2-.96-3 0-1.74.87-3.15.87-1.44 2.61-2.28 1.74-.87 4.2-.87 3.75 0 6.39 1.56v4.2q-1.29-.99-2.82-1.5-1.5-.54-3.12-.54-1.59 0-2.7.54-1.11.51-1.11 1.59 0 1.02.99 1.65.99.6 3.15 1.41 2.13.78 3.45 1.47 1.35.69 2.31 1.92.96 1.2.96 3.03 0 1.86-1.02 3.33-1.02 1.44-2.91 2.25t-4.44.81M125.949 52.9q1.86.54 2.76 1.98t.9 3.12v.12q0 1.71-.84 3.06-.81 1.35-2.28 2.1-1.44.72-3.27.72h-9.99V46q0-.63-.18-1.47t-.42-1.53h9.75q1.83 0 3.18.72 1.35.69 2.07 1.92.72 1.2.72 2.7v.09q0 3.06-2.4 4.47m-8.4-5.82v4.38l4.29.03q.93 0 1.56-.63.66-.66.66-1.59t-.63-1.56-1.5-.63zm7.74 10.2q0-.99-.69-1.65t-1.83-.66l-5.22-.03v4.98h5.19q1.08 0 1.8-.78.75-.78.75-1.77zM137.031 59.92h11.04l-1.02 4.08h-14.34V46q0-.63-.18-1.47t-.42-1.53h15.57v4.08h-10.65v4.47h9.54v3.96h-9.54zM157.672 64.36q-3.9-.03-6.84-1.68v-4.29q1.35 1.05 3.15 1.65 1.83.6 3.57.6 1.83 0 3-.54t1.17-1.74q0-1.02-1.02-1.62-.99-.63-3.15-1.44-2.13-.78-3.45-1.47a7.1 7.1 0 0 1-2.28-1.89q-.96-1.2-.96-3 0-1.74.87-3.15.87-1.44 2.61-2.28 1.74-.87 4.2-.87 3.75 0 6.39 1.56v4.2q-1.29-.99-2.82-1.5-1.5-.54-3.12-.54-1.59 0-2.7.54-1.11.51-1.11 1.59 0 1.02.99 1.65.99.6 3.15 1.41 2.13.78 3.45 1.47 1.35.69 2.31 1.92.96 1.2.96 3.03 0 1.86-1.02 3.33-1.02 1.44-2.91 2.25t-4.44.81M168.725 43h17.19v4.08h-6.45V64h-4.32V47.08h-6.42zM197.319 43h17.19v4.08h-6.45V64h-4.32V47.08h-6.42zM235.879 64h-5.16l-6.36-9.27q2.79-1.11 3.96-1.65 1.17-.57 1.77-1.26.63-.69.63-1.77 0-1.38-.9-2.1-.87-.75-2.61-.75h-4.47V64h-4.32V46q0-.63-.18-1.47t-.42-1.53h9.51q2.25 0 3.99.87 1.77.84 2.73 2.43.99 1.56.99 3.69 0 1.5-.48 2.58-.48 1.05-1.5 1.92t-2.82 1.83zM256.447 64h-4.62l-1.59-4.08h-7.44l-1.59 4.08h-4.65l7.68-19.65q-.12-.39-.57-1.35h4.65zm-9.93-15.3-2.67 7.29h5.31zM267.174 43q2.73 0 4.95 1.38t3.48 3.78 1.26 5.34v.06q0 2.88-1.26 5.28a9.9 9.9 0 0 1-3.48 3.78q-2.22 1.38-4.95 1.38h-8.31V46q0-.63-.18-1.47t-.42-1.53zm5.4 10.5q0-1.5-.6-2.97a5.7 5.7 0 0 0-1.83-2.46q-1.26-.99-3.18-.99h-3.78v12.84h3.78q1.92 0 3.18-.99a5.7 5.7 0 0 0 1.83-2.46q.6-1.47.6-2.91zM284.57 59.92h11.04L294.59 64h-14.34V46q0-.63-.18-1.47t-.42-1.53h15.57v4.08h-10.65v4.47h9.54v3.96h-9.54zM105.156 77.08h-10.59v4.41h9.42l-1.02 3.96h-8.4V94h-4.32V76q0-.63-.18-1.47t-.42-1.53h15.51zM112.524 94h-4.32V73h4.32zM131.25 73h4.32v21h-3.18l-11.34-13.47V94h-4.32V76q0-.63-.18-1.47t-.42-1.53h3.78l11.34 13.47zM157.877 94h-4.62l-1.59-4.08h-7.44l-1.59 4.08h-4.65l7.68-19.65q-.12-.39-.57-1.35h4.65zm-9.93-15.3-2.67 7.29h5.31zM174.814 73h4.32v21h-3.18l-11.34-13.47V94h-4.32V76q0-.63-.18-1.47t-.42-1.53h3.78l11.34 13.47zM193.522 94.36q-2.97 0-5.49-1.44-2.52-1.47-3.99-3.96t-1.47-5.49q0-2.97 1.47-5.43 1.47-2.49 3.99-3.93 2.52-1.47 5.49-1.47 1.41 0 2.58.33 1.2.33 2.43 1.08v4.35q-.87-.75-2.1-1.2-1.23-.48-2.58-.48-1.95 0-3.54.9-1.59.87-2.52 2.43-.9 1.53-.9 3.42 0 1.83.84 3.42a6.75 6.75 0 0 0 2.37 2.49q1.5.9 3.33.9 1.56 0 2.88-.42 1.32-.45 2.22-1.23v4.38q-.99.66-2.34.99-1.32.36-2.67.36M206.597 89.92h11.04l-1.02 4.08h-14.34V76q0-.63-.18-1.47t-.42-1.53h15.57v4.08h-10.65v4.47h9.54v3.96h-9.54zM242.712 82.9q1.86.54 2.76 1.98t.9 3.12v.12q0 1.71-.84 3.06-.81 1.35-2.28 2.1-1.44.72-3.27.72h-9.99V76q0-.63-.18-1.47t-.42-1.53h9.75q1.83 0 3.18.72 1.35.69 2.07 1.92.72 1.2.72 2.7v.09q0 3.06-2.4 4.47m-8.4-5.82v4.38l4.29.03q.93 0 1.56-.63.66-.66.66-1.59t-.63-1.56-1.5-.63zm7.74 10.2q0-.99-.69-1.65t-1.83-.66l-5.22-.03v4.98h5.19q1.08 0 1.8-.78.75-.78.75-1.77zM267.301 94h-4.62l-1.59-4.08h-7.44l-1.59 4.08h-4.65l7.68-19.65q-.12-.39-.57-1.35h4.65zm-9.93-15.3-2.67 7.29h5.31zM284.238 73h4.32v21h-3.18l-11.34-13.47V94h-4.32V76q0-.63-.18-1.47t-.42-1.53h3.78l11.34 13.47zM304.956 73h5.28l-8.1 10.53 8.1 10.47h-5.28l-7.89-10.32v10.35h-4.32V73h4.32v10.44zM129.503 124.36q-3.9-.03-6.84-1.68v-4.29q1.35 1.05 3.15 1.65 1.83.6 3.57.6 1.83 0 3-.54t1.17-1.74q0-1.02-1.02-1.62-.99-.63-3.15-1.44-2.13-.78-3.45-1.47a7.1 7.1 0 0 1-2.28-1.89q-.96-1.2-.96-3 0-1.74.87-3.15.87-1.44 2.61-2.28 1.74-.87 4.2-.87 3.75 0 6.39 1.56v4.2q-1.29-.99-2.82-1.5-1.5-.54-3.12-.54-1.59 0-2.7.54-1.11.51-1.11 1.59 0 1.02.99 1.65.99.6 3.15 1.41 2.13.78 3.45 1.47 1.35.69 2.31 1.92.96 1.2.96 3.03 0 1.86-1.02 3.33-1.02 1.44-2.91 2.25t-4.44.81M151.506 124.36q-3 0-5.52-1.44-2.49-1.47-3.96-3.96-1.44-2.52-1.44-5.49 0-2.94 1.44-5.43 1.47-2.49 3.96-3.93 2.52-1.47 5.52-1.47 2.91 0 5.4 1.47 2.52 1.44 3.99 3.93t1.47 5.43q0 2.97-1.47 5.46t-3.96 3.96-5.43 1.47m0-4.08q1.83 0 3.33-.9 1.5-.93 2.34-2.49.87-1.56.87-3.42t-.87-3.39a6.3 6.3 0 0 0-2.34-2.46q-1.5-.9-3.33-.9-1.86 0-3.39.9-1.5.9-2.37 2.46-.84 1.53-.84 3.39t.84 3.42a6.75 6.75 0 0 0 2.37 2.49q1.53.9 3.39.9M174.655 124.36q-2.37 0-4.44-1.11a8.76 8.76 0 0 1-3.3-3.15q-1.23-2.01-1.23-4.56V103h4.32v12.6q0 1.44.66 2.49.69 1.02 1.74 1.56 1.08.54 2.22.54h.06q1.11 0 2.16-.51 1.05-.54 1.71-1.53.66-1.02.66-2.4V103h4.32v12.54q0 2.55-1.23 4.56a8.6 8.6 0 0 1-3.24 3.15 9 9 0 0 1-4.38 1.11zM186.846 103h17.19v4.08h-6.45V124h-4.32v-16.92h-6.42zM219.051 111.37V103h4.32v21h-4.32v-8.55h-9.12V124h-4.32v-21h4.32v8.37zM231.06 119.92h11.04l-1.02 4.08h-14.34v-18q0-.63-.18-1.47t-.42-1.53h15.57v4.08h-10.65v4.47h9.54v3.96h-9.54zM263.52 124h-5.16l-6.36-9.27q2.79-1.11 3.96-1.65 1.17-.57 1.77-1.26.63-.69.63-1.77 0-1.38-.9-2.1-.87-.75-2.61-.75h-4.47V124h-4.32v-18q0-.63-.18-1.47t-.42-1.53h9.51q2.25 0 3.99.87 1.77.84 2.73 2.43.99 1.56.99 3.69 0 1.5-.48 2.58-.48 1.05-1.5 1.92t-2.82 1.83zM280.43 103h4.32v21h-3.18l-11.34-13.47V124h-4.32v-18q0-.63-.18-1.47t-.42-1.53h3.78l11.34 13.47zM170.739 154h-4.62l-1.59-4.08h-7.44l-1.59 4.08h-4.65l7.68-19.65q-.12-.39-.57-1.35h4.65zm-9.93-15.3-2.67 7.29h5.31zM188.066 137.08h-10.59v4.41h9.42l-1.02 3.96h-8.4V154h-4.32v-18q0-.63-.18-1.47t-.42-1.53h15.51zM209.175 154h-5.16l-6.36-9.27q2.79-1.11 3.96-1.65 1.17-.57 1.77-1.26.63-.69.63-1.77 0-1.38-.9-2.1-.87-.75-2.61-.75h-4.47V154h-4.32v-18q0-.63-.18-1.47t-.42-1.53h9.51q2.25 0 3.99.87 1.77.84 2.73 2.43.99 1.56.99 3.69 0 1.5-.48 2.58-.48 1.05-1.5 1.92t-2.82 1.83zM215.884 154h-4.32v-21h4.32zM230.289 154.36q-2.97 0-5.49-1.44-2.52-1.47-3.99-3.96t-1.47-5.49q0-2.97 1.47-5.43 1.47-2.49 3.99-3.93 2.52-1.47 5.49-1.47 1.41 0 2.58.33 1.2.33 2.43 1.08v4.35q-.87-.75-2.1-1.2-1.23-.48-2.58-.48-1.95 0-3.54.9-1.59.87-2.52 2.43-.9 1.53-.9 3.42 0 1.83.84 3.42a6.75 6.75 0 0 0 2.37 2.49q1.5.9 3.33.9 1.56 0 2.88-.42 1.32-.45 2.22-1.23v4.38q-.99.66-2.34.99-1.32.36-2.67.36M257.164 154h-4.62l-1.59-4.08h-7.44l-1.59 4.08h-4.65l7.68-19.65q-.12-.39-.57-1.35h4.65zm-9.93-15.3-2.67 7.29h5.31zM106.904 194.816q2.052-1.98 5.472-4.716 2.628-2.16 4.032-3.42 1.404-1.296 2.304-2.556.936-1.296.864-2.412 0-1.512-1.26-2.196t-2.916-.684q-1.944 0-3.816.612a10.3 10.3 0 0 0-3.348 1.872v-4.932q1.512-.972 3.42-1.476 1.908-.54 3.996-.54 4.5 0 6.84 2.016t2.268 5.292q0 2.34-1.08 4.248a13.9 13.9 0 0 1-2.7 3.348q-1.62 1.476-4.5 3.6l-2.844 2.232h11.196V200h-17.928zM140.058 200.432q-3.24 0-6.012-1.764t-4.392-4.752-1.62-6.552q0-3.528 1.62-6.516t4.392-4.752 6.012-1.764q3.132 0 5.868 1.764 2.772 1.764 4.392 4.752 1.656 2.988 1.656 6.516 0 3.564-1.656 6.588-1.62 2.988-4.392 4.752-2.736 1.728-5.868 1.728m0-4.896q1.98 0 3.492-1.08 1.548-1.116 2.376-2.952.864-1.872.864-4.14 0-2.232-.864-4.104-.828-1.872-2.376-2.952-1.512-1.08-3.492-1.08t-3.564 1.08q-1.548 1.08-2.412 2.952t-.864 4.104.864 4.104 2.412 2.988q1.584 1.08 3.564 1.08M164.748 200h-5.184v-19.872l-4.5 1.044v-4.932l6.048-1.44h3.636zM179.197 200.432q-3.888 0-6.48-1.8-2.556-1.8-2.916-4.896a5.4 5.4 0 0 1-.036-.72q0-2.052 1.26-3.708a6.5 6.5 0 0 1 3.312-2.268 5.83 5.83 0 0 1-2.916-2.16q-1.08-1.584-1.08-3.42 0-3.456 2.412-5.256 2.448-1.836 6.336-1.836 3.852 0 6.336 1.764 2.52 1.728 2.664 5.004.072 1.908-1.044 3.6-1.116 1.656-2.952 2.304 2.196.576 3.456 2.448 1.26 1.836 1.08 4.032-.288 3.276-2.772 5.112-2.448 1.8-6.66 1.8m0-15.804q1.728 0 2.772-.792 1.08-.828 1.08-2.088 0-1.368-1.044-2.124-1.044-.792-2.808-.792-1.8 0-2.844.792-1.008.792-1.008 2.124 0 1.296 1.044 2.088t2.808.792m0 11.34q2.052 0 3.168-.9t1.116-2.376q0-1.512-1.116-2.376-1.116-.9-3.168-.9t-3.168.9-1.116 2.376 1.116 2.376q1.152.9 3.168.9M208.142 191H192.59v-4.608h15.552zM212.021 194.816q2.052-1.98 5.472-4.716 2.628-2.16 4.032-3.42 1.404-1.296 2.304-2.556.936-1.296.864-2.412 0-1.512-1.26-2.196t-2.916-.684q-1.944 0-3.816.612a10.3 10.3 0 0 0-3.348 1.872v-4.932q1.512-.972 3.42-1.476 1.908-.54 3.996-.54 4.5 0 6.84 2.016t2.268 5.292q0 2.34-1.08 4.248a13.9 13.9 0 0 1-2.7 3.348q-1.62 1.476-4.5 3.6l-2.844 2.232h11.196V200h-17.928zM245.176 200.432q-3.24 0-6.012-1.764t-4.392-4.752-1.62-6.552q0-3.528 1.62-6.516t4.392-4.752 6.012-1.764q3.132 0 5.868 1.764 2.772 1.764 4.392 4.752 1.656 2.988 1.656 6.516 0 3.564-1.656 6.588-1.62 2.988-4.392 4.752-2.736 1.728-5.868 1.728m0-4.896q1.98 0 3.492-1.08 1.548-1.116 2.376-2.952.864-1.872.864-4.14 0-2.232-.864-4.104-.828-1.872-2.376-2.952-1.512-1.08-3.492-1.08t-3.564 1.08q-1.548 1.08-2.412 2.952t-.864 4.104.864 4.104 2.412 2.988q1.584 1.08 3.564 1.08M260.466 194.816q2.052-1.98 5.472-4.716 2.628-2.16 4.032-3.42 1.404-1.296 2.304-2.556.936-1.296.864-2.412 0-1.512-1.26-2.196t-2.916-.684q-1.944 0-3.816.612a10.3 10.3 0 0 0-3.348 1.872v-4.932q1.512-.972 3.42-1.476 1.908-.54 3.996-.54 4.5 0 6.84 2.016t2.268 5.292q0 2.34-1.08 4.248a13.9 13.9 0 0 1-2.7 3.348q-1.62 1.476-4.5 3.6l-2.844 2.232h11.196V200h-17.928zM298.375 174.8v15.372l3.024.036-.036 4.536h-2.988V200h-4.788v-5.256h-11.772v-4.14l10.08-15.804zm-4.788 5.004-6.66 10.332h6.66z"/><path fill="#05171D" d="m378.66 175-59.5 25h48.78zM394.06 126.93l-45.16 46.11 44.97-18.9zM389.64 76.66l-23.77 60L400 101.81zM366.08 32.02l1.33 64.52 17.97-45.35zM327.07 0l26.23 58.96-1.01-48.76z"/></g><defs><clipPath id="a"><path fill="#fff" d="M0 0H400V200H0z"/></clipPath></defs></svg>