<svg xmlns="http://www.w3.org/2000/svg" fill="none" viewBox="0 0 400 200"><g clip-path="url(#a)"><path fill="#05171D" d="m21.34 175 59.5 25H32.06zM5.94 126.93l45.16 46.11-44.97-18.9zM10.36 76.66l23.77 60L0 101.81zM33.92 32.02l-1.33 64.52-17.97-45.35zM72.93 0 46.7 58.96l1.01-48.76z"/><path fill="#000" d="M117.959 28.92q.032 3.2-1.216 5.568-1.216 2.368-3.584 3.648-2.368 1.248-5.632 1.248-3.136 0-5.664-1.536-2.496-1.568-3.936-4.256-1.44-2.72-1.44-5.984 0-3.008 1.472-5.6a11.5 11.5 0 0 1 4.096-4.192q2.592-1.568 5.728-1.6 2.304-.032 4.192.576 1.92.576 3.104 1.472v4.768q-1.056-1.087-2.944-1.824-1.856-.768-4.256-.64a7.2 7.2 0 0 0-3.456 1.056 6.75 6.75 0 0 0-2.432 2.528q-.864 1.567-.864 3.456 0 2.08.832 3.776.833 1.665 2.304 2.656 1.472.96 3.328.96 2.656 0 4.096-1.312 1.44-1.344 1.696-3.68h-5.344l1.088-3.968h8.832zM120.671 16.6h18.336v4.352h-6.88V39h-4.608V20.952h-6.848zM161.801 39h-5.504l-6.784-9.888q2.976-1.184 4.224-1.76 1.248-.608 1.888-1.344.672-.735.672-1.888 0-1.472-.96-2.24-.928-.8-2.784-.8h-4.768V39h-4.608V19.8q0-.671-.192-1.568a14 14 0 0 0-.448-1.632h10.144q2.4 0 4.256.928 1.888.895 2.912 2.592 1.056 1.664 1.056 3.936 0 1.6-.512 2.752-.512 1.12-1.6 2.048-1.088.929-3.008 1.952zM193.271 39h-4.928l-1.696-4.352h-7.936L177.015 39h-4.96l8.192-20.96q-.128-.416-.608-1.44h4.96zm-10.592-16.32-2.848 7.776h5.664zM216.713 30.04l4.736-13.44h4.96l-8.32 22.4h-2.656l-5.12-14.112L205.193 39h-2.624l-8.352-22.4h4.992l4.672 13.568 4.352-12-.48-1.568h4.032zM248.584 39h-4.928l-1.696-4.352h-7.936L232.328 39h-4.96l8.192-20.96q-.128-.416-.608-1.44h4.96zm-10.592-16.32-2.848 7.776h5.664zM270.426 39h-5.504l-6.784-9.888q2.976-1.184 4.224-1.76 1.248-.608 1.888-1.344.672-.735.672-1.888 0-1.472-.96-2.24-.929-.8-2.784-.8h-4.768V39h-4.608V19.8q0-.671-.192-1.568a14 14 0 0 0-.448-1.632h10.144q2.4 0 4.256.928 1.888.895 2.912 2.592 1.056 1.664 1.056 3.936 0 1.6-.512 2.752-.512 1.12-1.6 2.048-1.088.929-3.008 1.952zM281.838 16.6q2.913 0 5.28 1.472t3.712 4.032q1.344 2.56 1.344 5.696v.064q0 3.072-1.344 5.632-1.344 2.528-3.712 4.032Q284.751 39 281.838 39h-8.864V19.8q0-.671-.192-1.568a14 14 0 0 0-.448-1.632zm5.76 11.2a8.3 8.3 0 0 0-.64-3.168 6.1 6.1 0 0 0-1.952-2.624q-1.344-1.056-3.392-1.056h-4.032v13.696h4.032q2.048 0 3.392-1.056a6.1 6.1 0 0 0 1.952-2.624q.64-1.568.64-3.104zM302.443 39.384q-4.16-.032-7.296-1.792v-4.576q1.44 1.12 3.36 1.76 1.952.64 3.808.64 1.952 0 3.2-.576t1.248-1.856q0-1.087-1.088-1.728-1.056-.672-3.36-1.536-2.272-.832-3.68-1.568a7.6 7.6 0 0 1-2.432-2.016q-1.024-1.28-1.024-3.2 0-1.855.928-3.36.929-1.536 2.784-2.432 1.856-.928 4.48-.928 4 0 6.816 1.664v4.48a10.2 10.2 0 0 0-3.008-1.6 9.8 9.8 0 0 0-3.328-.576q-1.697 0-2.88.576-1.184.544-1.184 1.696 0 1.088 1.056 1.76 1.056.64 3.36 1.504 2.272.832 3.68 1.568a7.3 7.3 0 0 1 2.464 2.048q1.024 1.28 1.024 3.232 0 1.984-1.088 3.552-1.088 1.536-3.104 2.4t-4.736.864M120.746 64.16q1.984.576 2.944 2.112t.96 3.328v.128q0 1.824-.896 3.264-.864 1.44-2.432 2.24-1.536.768-3.488.768h-10.656V56.8q0-.671-.192-1.568a14 14 0 0 0-.448-1.632h10.4q1.952 0 3.392.768 1.44.735 2.208 2.048.768 1.28.768 2.88v.096q0 3.264-2.56 4.768m-8.96-6.208v4.672l4.576.032q.992 0 1.664-.672.704-.705.704-1.696 0-.992-.672-1.664a2.19 2.19 0 0 0-1.6-.672zm8.256 10.88q0-1.055-.736-1.76-.737-.704-1.952-.704l-5.568-.032v5.312h5.536q1.152 0 1.92-.832.8-.832.8-1.888zM132.567 71.648h11.776L143.255 76h-15.296V56.8q0-.671-.192-1.568a14 14 0 0 0-.448-1.632h16.608v4.352h-11.36v4.768h10.176v4.224h-10.176zM154.584 76.384q-4.161-.032-7.296-1.792v-4.576q1.44 1.12 3.36 1.76 1.951.64 3.808.64 1.952 0 3.2-.576t1.248-1.856q0-1.087-1.088-1.728-1.056-.672-3.36-1.536-2.273-.832-3.68-1.568a7.6 7.6 0 0 1-2.432-2.016q-1.024-1.28-1.024-3.2 0-1.856.928-3.36.927-1.536 2.784-2.432 1.855-.928 4.48-.928 3.999 0 6.816 1.664v4.48a10.2 10.2 0 0 0-3.008-1.6 9.8 9.8 0 0 0-3.328-.576q-1.696 0-2.88.576-1.184.544-1.184 1.696 0 1.088 1.056 1.76 1.056.64 3.36 1.504 2.271.832 3.68 1.568a7.3 7.3 0 0 1 2.464 2.048q1.024 1.28 1.024 3.232 0 1.984-1.088 3.552-1.088 1.536-3.104 2.4t-4.736.864M166.374 53.6h18.336v4.352h-6.88V76h-4.608V57.952h-6.848zM196.874 53.6h18.336v4.352h-6.88V76h-4.608V57.952h-6.848zM238.004 76H232.5l-6.784-9.888q2.976-1.185 4.224-1.76 1.248-.608 1.888-1.344.672-.736.672-1.888 0-1.472-.96-2.24-.928-.8-2.784-.8h-4.768V76h-4.608V56.8q0-.671-.192-1.568a14 14 0 0 0-.448-1.632h10.144q2.4 0 4.256.928 1.888.895 2.912 2.592 1.056 1.664 1.056 3.936 0 1.6-.512 2.752-.512 1.12-1.6 2.048-1.088.929-3.008 1.952zM259.943 76h-4.928l-1.696-4.352h-7.936L243.687 76h-4.96l8.192-20.96q-.128-.416-.608-1.44h4.96zm-10.592-16.32-2.848 7.776h5.664zM271.385 53.6q2.913 0 5.28 1.472t3.712 4.032 1.344 5.696v.064q0 3.072-1.344 5.632-1.344 2.528-3.712 4.032Q274.298 76 271.385 76h-8.864V56.8q0-.671-.192-1.568a14 14 0 0 0-.448-1.632zm5.76 11.2a8.3 8.3 0 0 0-.64-3.168 6.1 6.1 0 0 0-1.952-2.624q-1.344-1.056-3.392-1.056h-4.032v13.696h4.032q2.048 0 3.392-1.056a6.1 6.1 0 0 0 1.952-2.624q.64-1.568.64-3.104zM289.942 71.648h11.776L300.63 76h-15.296V56.8q0-.671-.192-1.568a14 14 0 0 0-.448-1.632h16.608v4.352h-11.36v4.768h10.176v4.224h-10.176zM103.363 94.952H92.067v4.704h10.048l-1.088 4.224h-8.96V113h-4.608V93.8q0-.671-.192-1.568a14 14 0 0 0-.448-1.632h16.544zM111.223 113h-4.608V90.6h4.608zM131.197 90.6h4.608V113h-3.392l-12.096-14.368V113h-4.608V93.8q0-.671-.192-1.568a14 14 0 0 0-.448-1.632h4.032l12.096 14.368zM159.599 113h-4.928l-1.696-4.352h-7.936L143.343 113h-4.96l8.192-20.96q-.128-.416-.608-1.44h4.96zm-10.592-16.32-2.848 7.776h5.664zM177.666 90.6h4.608V113h-3.392l-12.096-14.368V113h-4.608V93.8q0-.671-.192-1.568a14 14 0 0 0-.448-1.632h4.032l12.096 14.368zM197.62 113.384q-3.168 0-5.856-1.536a11.7 11.7 0 0 1-4.256-4.224q-1.568-2.657-1.568-5.856 0-3.168 1.568-5.792a11.46 11.46 0 0 1 4.256-4.192q2.688-1.568 5.856-1.568 1.504 0 2.752.352 1.28.353 2.592 1.152v4.64q-.928-.8-2.24-1.28a7.5 7.5 0 0 0-2.752-.512q-2.08 0-3.776.96a6.97 6.97 0 0 0-2.688 2.592q-.96 1.632-.96 3.648 0 1.952.896 3.648a7.2 7.2 0 0 0 2.528 2.656q1.6.96 3.552.96 1.663 0 3.072-.448 1.408-.48 2.368-1.312v4.672q-1.056.703-2.496 1.056a10.8 10.8 0 0 1-2.848.384M211.567 108.648h11.776L222.255 113h-15.296V93.8q0-.671-.192-1.568a14 14 0 0 0-.448-1.632h16.608v4.352h-11.36v4.768h10.176v4.224h-10.176zM250.089 101.16q1.984.576 2.944 2.112t.96 3.328v.128q0 1.824-.896 3.264-.863 1.44-2.432 2.24-1.536.768-3.488.768h-10.656V93.8q0-.671-.192-1.568a14 14 0 0 0-.448-1.632h10.4q1.952 0 3.392.768 1.44.735 2.208 2.048.768 1.28.768 2.88v.096q0 3.264-2.56 4.768m-8.96-6.208v4.672l4.576.032q.993 0 1.664-.672.705-.705.704-1.696 0-.992-.672-1.664a2.18 2.18 0 0 0-1.6-.672zm8.256 10.88q0-1.056-.736-1.76-.735-.704-1.952-.704l-5.568-.032v5.312h5.536q1.152 0 1.92-.832.8-.832.8-1.888zM276.318 113h-4.928l-1.696-4.352h-7.936L260.062 113h-4.96l8.192-20.96q-.128-.416-.608-1.44h4.96zm-10.592-16.32-2.848 7.776h5.664zM294.384 90.6h4.608V113H295.6l-12.096-14.368V113h-4.608V93.8q0-.671-.192-1.568a14 14 0 0 0-.448-1.632h4.032l12.096 14.368zM316.483 90.6h5.632l-8.64 11.232 8.64 11.168h-5.632l-8.416-11.008v11.04h-4.608V90.6h4.608v11.136zM156.287 150h-4.928l-1.696-4.352h-7.936L140.031 150h-4.96l8.192-20.96q-.129-.416-.608-1.44h4.96zm-10.592-16.32-2.848 7.776h5.664zM174.353 127.6h4.608V150h-3.392l-12.096-14.368V150h-4.608v-19.2a7.6 7.6 0 0 0-.192-1.568 14 14 0 0 0-.448-1.632h4.032l12.096 14.368zM204.1 139.92q.032 3.2-1.216 5.568-1.217 2.368-3.584 3.648-2.368 1.248-5.632 1.248-3.137 0-5.664-1.536-2.496-1.568-3.936-4.256-1.44-2.72-1.44-5.984 0-3.008 1.472-5.6a11.5 11.5 0 0 1 4.096-4.192q2.592-1.568 5.728-1.6 2.304-.031 4.192.576 1.92.576 3.104 1.472v4.768q-1.056-1.088-2.944-1.824-1.856-.768-4.256-.64a7.2 7.2 0 0 0-3.456 1.056 6.75 6.75 0 0 0-2.432 2.528q-.864 1.567-.864 3.456 0 2.08.832 3.776.831 1.664 2.304 2.656 1.471.96 3.328.96 2.656 0 4.096-1.312 1.44-1.344 1.696-3.68h-5.344l1.088-3.968h8.832zM218.804 150.384q-3.2 0-5.888-1.536a11.8 11.8 0 0 1-4.224-4.224q-1.536-2.688-1.536-5.856 0-3.136 1.536-5.792a11.53 11.53 0 0 1 4.224-4.192q2.688-1.568 5.888-1.568 3.103 0 5.76 1.568a11.47 11.47 0 0 1 4.256 4.192q1.568 2.656 1.568 5.792 0 3.168-1.568 5.824a11.8 11.8 0 0 1-4.224 4.224q-2.657 1.568-5.792 1.568m0-4.352q1.952 0 3.552-.96a6.96 6.96 0 0 0 2.496-2.656q.928-1.663.928-3.648 0-1.984-.928-3.616a6.7 6.7 0 0 0-2.496-2.624q-1.6-.96-3.552-.96-1.984 0-3.616.96a6.94 6.94 0 0 0-2.528 2.624q-.897 1.632-.896 3.616 0 1.984.896 3.648a7.2 7.2 0 0 0 2.528 2.656q1.632.96 3.616.96M248.52 150h-14.528v-22.4h4.608v18.048h11.008zM272.943 150h-4.928l-1.696-4.352h-7.936L256.687 150h-4.96l8.192-20.96q-.128-.416-.608-1.44h4.96zm-10.592-16.32-2.848 7.776h5.664zM111.544 194.816q2.052-1.98 5.472-4.716 2.628-2.16 4.032-3.42 1.404-1.296 2.304-2.556.936-1.296.864-2.412 0-1.512-1.26-2.196t-2.916-.684q-1.944 0-3.816.612a10.3 10.3 0 0 0-3.348 1.872v-4.932q1.512-.972 3.42-1.476 1.908-.54 3.996-.54 4.5 0 6.84 2.016t2.268 5.292q0 2.34-1.08 4.248a13.9 13.9 0 0 1-2.7 3.348q-1.62 1.476-4.5 3.6l-2.844 2.232h11.196V200h-17.928zM144.699 200.432q-3.24 0-6.012-1.764t-4.392-4.752-1.62-6.552q0-3.528 1.62-6.516t4.392-4.752 6.012-1.764q3.132 0 5.868 1.764 2.772 1.764 4.392 4.752 1.656 2.988 1.656 6.516 0 3.564-1.656 6.588-1.62 2.988-4.392 4.752-2.736 1.728-5.868 1.728m0-4.896q1.98 0 3.492-1.08 1.548-1.116 2.376-2.952.864-1.872.864-4.14 0-2.232-.864-4.104-.828-1.872-2.376-2.952-1.512-1.08-3.492-1.08t-3.564 1.08q-1.548 1.08-2.412 2.952t-.864 4.104.864 4.104 2.412 2.988q1.584 1.08 3.564 1.08M169.389 200h-5.184v-19.872l-4.5 1.044v-4.932l6.048-1.44h3.636zM184.322 191.216a9 9 0 0 1-2.16.252q-2.268 0-4.176-1.08a8.4 8.4 0 0 1-3.024-2.988q-1.116-1.872-1.116-4.14 0-2.556 1.296-4.572a9 9 0 0 1 3.528-3.168q2.196-1.152 4.752-1.152t4.716 1.152a8.73 8.73 0 0 1 3.492 3.168q1.332 2.016 1.332 4.572 0 1.26-.288 2.268-.288.972-1.008 2.268-.684 1.26-2.52 4.248a440 440 0 0 0-4.788 7.956h-5.616zm-.936-3.78q1.116 0 2.124-.504a4.6 4.6 0 0 0 1.692-1.476q.648-.936.648-2.196 0-1.404-.648-2.376a4.1 4.1 0 0 0-1.692-1.512 4.43 4.43 0 0 0-2.124-.54q-1.8 0-3.168 1.188-1.332 1.188-1.332 3.24 0 1.26.648 2.232a4.35 4.35 0 0 0 1.656 1.44 5 5 0 0 0 2.196.504M212.325 191h-15.552v-4.608h15.552zM216.205 194.816q2.052-1.98 5.472-4.716 2.628-2.16 4.032-3.42 1.404-1.296 2.304-2.556.936-1.296.864-2.412 0-1.512-1.26-2.196t-2.916-.684q-1.944 0-3.816.612a10.3 10.3 0 0 0-3.348 1.872v-4.932q1.512-.972 3.42-1.476 1.908-.54 3.996-.54 4.5 0 6.84 2.016t2.268 5.292q0 2.34-1.08 4.248a13.9 13.9 0 0 1-2.7 3.348q-1.62 1.476-4.5 3.6l-2.844 2.232h11.196V200h-17.928zM249.359 200.432q-3.24 0-6.012-1.764t-4.392-4.752-1.62-6.552q0-3.528 1.62-6.516t4.392-4.752 6.012-1.764q3.132 0 5.868 1.764 2.772 1.764 4.392 4.752 1.656 2.988 1.656 6.516 0 3.564-1.656 6.588-1.62 2.988-4.392 4.752-2.736 1.728-5.868 1.728m0-4.896q1.98 0 3.492-1.08 1.548-1.116 2.376-2.952.864-1.872.864-4.14 0-2.232-.864-4.104-.828-1.872-2.376-2.952-1.512-1.08-3.492-1.08t-3.564 1.08q-1.548 1.08-2.412 2.952t-.864 4.104.864 4.104 2.412 2.988q1.584 1.08 3.564 1.08M264.65 194.816q2.052-1.98 5.472-4.716 2.628-2.16 4.032-3.42 1.404-1.296 2.304-2.556.936-1.296.864-2.412 0-1.512-1.26-2.196t-2.916-.684q-1.944 0-3.816.612a10.3 10.3 0 0 0-3.348 1.872v-4.932q1.512-.972 3.42-1.476 1.908-.54 3.996-.54 4.5 0 6.84 2.016t2.268 5.292q0 2.34-1.08 4.248a13.9 13.9 0 0 1-2.7 3.348q-1.62 1.476-4.5 3.6l-2.844 2.232h11.196V200H264.65zM295.67 200h-5.184v-19.872l-4.5 1.044v-4.932l6.048-1.44h3.636z"/><path fill="#05171D" d="m378.66 175-59.5 25h48.78zM394.06 126.93l-45.16 46.11 44.97-18.9zM389.64 76.66l-23.77 60L400 101.81zM366.08 32.02l1.33 64.52 17.97-45.35zM327.07 0l26.23 58.96-1.01-48.76z"/></g><defs><clipPath id="a"><path fill="#fff" d="M0 0H400V200H0z"/></clipPath></defs></svg>