<?xml version="1.0" encoding="UTF-8"?>
<svg xmlns="http://www.w3.org/2000/svg" viewBox="0 0 32 32" width="32" height="32"><defs><linearGradient id="a" x1=".96" x2=".067" y1=".037" y2=".969" gradientUnits="objectBoundingBox"><stop offset="0" stop-color="#49479b"/><stop offset=".305" stop-color="#90469a"/><stop offset=".591" stop-color="#b6293f"/><stop offset=".847" stop-color="#e19f37"/><stop offset="1" stop-color="#eed940"/></linearGradient></defs><path fill="none" d="M0 0h32v32H0z"/><path fill="url(#a)" d="M16 2c-3.8 0-4.279.016-5.773.084a10.279 10.279 0 0 0-3.4.651A6.841 6.841 0 0 0 4.35 4.35a6.841 6.841 0 0 0-1.615 2.48 10.279 10.279 0 0 0-.651 3.4C2.016 11.721 2 12.2 2 16s.016 4.279.084 5.773a10.279 10.279 0 0 0 .651 3.4A6.841 6.841 0 0 0 4.35 27.65a6.841 6.841 0 0 0 2.48 1.615 10.279 10.279 0 0 0 3.4.651c1.491.068 1.97.084 5.77.084s4.279-.016 5.773-.084a10.279 10.279 0 0 0 3.4-.651 7.155 7.155 0 0 0 4.1-4.1 10.279 10.279 0 0 0 .651-3.4C29.984 20.279 30 19.8 30 16s-.016-4.279-.084-5.773a10.279 10.279 0 0 0-.651-3.4A6.841 6.841 0 0 0 27.65 4.35a6.841 6.841 0 0 0-2.48-1.615 10.279 10.279 0 0 0-3.4-.651C20.279 2.016 19.8 2 16 2zm0 2.522c3.738 0 4.181.014 5.658.082a7.714 7.714 0 0 1 2.6.483 4.339 4.339 0 0 1 1.61 1.045 4.368 4.368 0 0 1 1.045 1.61 7.714 7.714 0 0 1 .483 2.6c.068 1.477.082 1.92.082 5.658s-.014 4.181-.082 5.658a7.714 7.714 0 0 1-.483 2.6 4.614 4.614 0 0 1-2.655 2.655 7.714 7.714 0 0 1-2.6.483c-1.477.068-1.92.082-5.658.082s-4.181-.014-5.658-.082a7.714 7.714 0 0 1-2.6-.483 4.614 4.614 0 0 1-2.655-2.655 7.714 7.714 0 0 1-.483-2.6c-.068-1.477-.082-1.92-.082-5.658s.014-4.181.082-5.658a7.714 7.714 0 0 1 .483-2.6 4.614 4.614 0 0 1 2.655-2.655 7.714 7.714 0 0 1 2.6-.483c1.477-.068 1.92-.082 5.658-.082zm0 4.289A7.189 7.189 0 1 0 23.189 16 7.188 7.188 0 0 0 16 8.811zm0 11.856A4.667 4.667 0 1 1 20.667 16 4.665 4.665 0 0 1 16 20.667zm9.154-12.14a1.68 1.68 0 1 1-1.68-1.68 1.68 1.68 0 0 1 1.68 1.679z"/></svg>
