<svg xmlns="http://www.w3.org/2000/svg" fill="none" viewBox="0 0 162 83"><g clip-path="url(#a)"><path fill="#0A0A0D" d="m8.646 70.877 24.095 10.127H12.986zM2.407 51.407l18.289 18.667-18.212-7.65zM0 41.233l13.823 14.113-9.623-24.3zM13.738 12.97l-.537 26.13-7.279-18.367zM29.54-.001l-10.216 4.13-.41 19.751zM153.355 70.877 129.26 81.004h19.755zM159.593 51.407l-18.289 18.667 18.212-7.654zM148.177 55.346 162 41.233l-4.2-10.187zM148.263 12.97l.541 26.13 7.28-18.367zM132.463-.001l10.623 23.88-.408-19.75z"/><path fill="#000" d="M102.749 54.83h-2.16l-.44 1.17h-1.89l2.71-7h1.43l2.68 7h-1.88zm-1.73-1.6h1.3l-.64-1.92zM96.01 56.12q-.99 0-1.83-.48a3.74 3.74 0 0 1-1.34-1.32 3.53 3.53 0 0 1-.49-1.83q0-.99.49-1.82a3.66 3.66 0 0 1 1.34-1.31q.84-.49 1.83-.49.47 0 .86.11.39.1.79.37v1.75a2 2 0 0 0-.67-.41 2.2 2.2 0 0 0-.86-.17q-.57 0-1.04.26-.46.26-.73.71-.26.45-.26 1 0 .53.24.99.25.45.68.72t.95.27q.54 0 .97-.14.44-.15.72-.43v1.77a2.2 2.2 0 0 1-.75.33q-.441.12-.9.12M89.445 49h1.75v7h-1.75zM84.379 56h-1.75v-7h3.08q.75 0 1.34.3t.92.85q.34.54.34 1.25 0 .48-.13.83a1.8 1.8 0 0 1-.45.65q-.31.3-.89.65l1.81 2.47h-2.09l-2.08-3.1q.99-.42 1.36-.6.369-.19.54-.38a.72.72 0 0 0 .18-.5q0-.41-.25-.56-.25-.16-.66-.16h-1.27zM76.574 56v-7h5.05v1.65h-3.3v1.06h2.93l-.4 1.6h-2.53V56zM73.442 54.83h-2.16l-.44 1.17h-1.89l2.71-7h1.43l2.68 7h-1.88zm-1.73-1.6h1.3l-.64-1.92zM63.874 56l-3.45-3.95V56h-1.75v-7h1.28l3.45 3.96V49h1.75v7zM55.52 49h1.75v7h-1.75zM123.763 44h-1.75v-7h3.08q.75 0 1.34.3t.92.85q.34.54.34 1.25 0 .48-.13.83a1.8 1.8 0 0 1-.45.65q-.31.3-.89.65l1.81 2.47h-2.09l-2.08-3.1q.99-.42 1.36-.6.37-.19.54-.38a.72.72 0 0 0 .18-.5q0-.41-.25-.56-.249-.16-.66-.16h-1.27zM118.882 42.83h-2.16l-.44 1.17h-1.89l2.71-7h1.43l2.68 7h-1.88zm-1.73-1.6h1.3l-.64-1.92zM113.334 39.71v1.6h-2.93v1.04h3.49l-.4 1.65h-4.84v-7h5.05v1.65h-3.3v1.06zM103.257 37l1.3 2.7 1.3-2.7h2l-2.44 4.58V44h-1.75v-2.47l-2.41-4.53zM97.201 39.71v1.6h-2.93v1.04h3.49l-.4 1.65h-4.84v-7h5.05v1.65h-3.3v1.06zM87.15 37v2.65h2.52V37h1.75v7h-1.75v-2.7h-2.52V44H85.4v-7zM80.94 38.65h-2.01V37h5.77v1.65h-2.01V44h-1.75zM70.178 44v-7h5.05v1.65h-3.3v1.06h2.93l-.4 1.6h-2.53V44zM65.451 44.12q-1 0-1.84-.48a3.7 3.7 0 0 1-1.32-1.32q-.48-.84-.48-1.83 0-.98.48-1.81a3.7 3.7 0 0 1 1.32-1.32 3.6 3.6 0 0 1 1.84-.49q.97 0 1.8.49a3.66 3.66 0 0 1 1.33 1.32q.5.83.5 1.81a3.46 3.46 0 0 1-.5 1.82 3.7 3.7 0 0 1-1.32 1.32 3.5 3.5 0 0 1-1.81.49m0-1.65q.53 0 .96-.26.43-.27.67-.72.25-.46.25-1t-.25-.99q-.24-.45-.67-.71a1.77 1.77 0 0 0-.96-.27q-.54 0-.98.27-.43.26-.67.71t-.24.99.24 1q.24.45.67.72.44.26.98.26M54.866 42.35h3.25l-.4 1.65h-4.6v-7h1.75zM50.024 42.83h-2.16l-.44 1.17h-1.89l2.71-7h1.43l2.68 7h-1.88zm-1.73-1.6h1.3l-.64-1.92zM44.477 39.71v1.6h-2.93v1.04h3.49l-.4 1.65h-4.84v-7h5.05v1.65h-3.3v1.06zM35.37 44h-2.8v-7h2.8q.91 0 1.66.46t1.18 1.26q.44.8.44 1.78v.02q0 .96-.44 1.76-.43.8-1.18 1.26t-1.66.46m-1.05-1.65h.96q.59 0 .95-.3.37-.31.52-.73t.15-.8v-.02q0-.4-.15-.82a1.6 1.6 0 0 0-.52-.73q-.36-.3-.95-.3h-.96zM108.829 28.09h3.45v1.55h-3.45zM103.812 32h-1.75v-7h3.08q.75 0 1.34.3t.92.85q.34.54.34 1.25 0 .48-.13.83a1.8 1.8 0 0 1-.45.65q-.31.3-.89.65l1.81 2.47h-2.09l-2.08-3.1q.99-.42 1.36-.6.37-.19.54-.38a.72.72 0 0 0 .18-.5q0-.41-.25-.56-.249-.16-.66-.16h-1.27zM100.404 27.71v1.6h-2.93v1.04h3.49l-.4 1.65h-4.84v-7h5.05v1.65h-3.3v1.06zM90.472 25v3.49l2.22-3.49h2.13l-2.31 3.52 2.31 3.48h-2.13l-2.22-3.45v3.46h-1.75V25zM86.042 32l-3.45-3.95V32h-1.75v-7h1.28l3.45 3.96V25h1.75v7zM77.71 30.83h-2.16L75.11 32h-1.89l2.71-7h1.43l2.68 7h-1.88zm-1.73-1.6h1.3l-.64-1.92zM70.744 32h-3.34v-7h3q.65 0 1.12.24t.71.65q.25.41.25.92v.03q0 .46-.17.83-.16.37-.58.64.62.18.9.66t.28 1.02v.05q0 .58-.28 1.03a1.9 1.9 0 0 1-.78.69q-.49.24-1.11.24m-1.59-4.27h1.04a.52.52 0 0 0 .38-.16.53.53 0 0 0 .17-.38.51.51 0 0 0-.16-.39q-.15-.15-.36-.15h-1.07zm0 2.62h1.39a.57.57 0 0 0 .44-.2.62.62 0 0 0 .18-.42v-.03a.53.53 0 0 0-.17-.4.6.6 0 0 0-.45-.17h-1.39zM62.748 27.71v1.6h-2.93v1.04h3.49l-.4 1.65h-4.84v-7h5.05v1.65h-3.3v1.06zM52.697 25v2.65h2.52V25h1.75v7h-1.75v-2.7h-2.52V32h-1.75v-7zM46.487 26.65h-2.01V25h5.77v1.65h-2.01V32h-1.75zM89.49 80.12q-.56 0-.95-.06a4 4 0 0 1-.54-.11q-.16-.06-.49-.2v-1.59q.31.18.8.32.49.13 1 .13.55 0 .91-.25.37-.26.37-.61 0-.47-.57-.72-.56-.25-1.37-.23v-.81l1.52-1.39h-2.33V73h4.21l-.01 1.58-1.29 1.27q.77.17 1.18.72.41.54.41 1.27 0 .68-.36 1.2-.35.51-1 .8-.64.28-1.49.28M81.295 80v-1.73q.38-.36 1.32-1.08 1.02-.78 1.53-1.28.52-.51.52-.94 0-.3-.29-.45-.291-.15-.75-.15-.53 0-1.04.17-.51.16-.92.49v-1.65q.86-.51 2.11-.51 1.34 0 1.99.58t.65 1.51q0 .7-.34 1.25-.33.55-.79.93t-1.21.88q-.34.22-.49.33h2.85V80zM77.029 80.12q-.91 0-1.68-.48a3.5 3.5 0 0 1-1.22-1.32q-.45-.84-.45-1.83 0-.98.45-1.81t1.22-1.32a3.07 3.07 0 0 1 1.68-.49q.87 0 1.63.49.77.49 1.23 1.33.46.83.46 1.8 0 .98-.46 1.82a3.6 3.6 0 0 1-1.23 1.32q-.76.49-1.63.49m0-1.65q.73 0 1.15-.56.42-.57.42-1.42 0-.849-.42-1.41t-1.15-.56q-.49 0-.85.26a1.7 1.7 0 0 0-.56.71q-.19.45-.19 1t.19 1q.2.45.56.72.36.26.85.26M67.71 80v-1.73q.381-.36 1.32-1.08 1.02-.78 1.53-1.28.52-.51.52-.94 0-.3-.29-.45t-.75-.15q-.53 0-1.04.17-.51.16-.92.49v-1.65q.86-.51 2.11-.51 1.34 0 1.99.58t.65 1.51q0 .7-.34 1.25-.33.55-.79.93t-1.21.88q-.34.22-.49.33h2.85V80z"/></g><defs><clipPath id="a"><path fill="#fff" d="M0 0H162V82.525H0z"/></clipPath></defs></svg>