<svg xmlns="http://www.w3.org/2000/svg" viewBox="0 0 170.08 113.38"><defs><style>.cls-1{fill:#fff;}.cls-2{fill:#01a616;}.cls-3{fill:#0132bf;}.cls-4{fill:#fafdff;fill-rule:evenodd;}</style></defs><title>country-lesotho</title><g id="Layer_2" data-name="Layer 2"><g id="Layer_1-2" data-name="Layer 1"><rect class="cls-1" width="170.08" height="113.38"/><rect class="cls-2" y="79.37" width="170.08" height="34.02"/><rect class="cls-3" width="170.08" height="34.02"/><path d="M85,36.12a2.23,2.23,0,0,1,1.31.67v.47a5.82,5.82,0,0,1,3.38,1.52,8.35,8.35,0,0,1,2.18,5c.51,3.58-1.66,8.81-2.52,10.7l9.38,12.41,1.51-.66,3.08,6.29c-8.82,6.31-27.1,6-36.28.21l3-6.37,1.71.59,9.2-12.39c-.83-1.75-3.15-7-2.75-10.59h0a8.21,8.21,0,0,1,2.08-5,6.06,6.06,0,0,1,3.46-1.75v-.42A2.19,2.19,0,0,1,85,36.12Zm1.31,2,0,6.31,2.66,2.5H87v4.52l1.77,2.33c.92-2.09,2.71-6.68,2.27-9.84a7.6,7.6,0,0,0-1.93-4.54,5,5,0,0,0-2.81-1.28ZM81.45,53.84l1.8-2.43,0-4.38h-2l2.42-2.53,0-6.39a5.16,5.16,0,0,0-2.86,1.49A7.42,7.42,0,0,0,79,44.09h0C78.62,47.27,80.53,51.86,81.45,53.84Z"/><path class="cls-4" d="M69.89,71.09,71,69l.57,1.74-1.65.35Zm28.92.44,1-1.44.83,1.66-1.66.56-.13-.78Zm-2.22-2.27L98,71.05l1.35-2-.48-.69-2.27.91ZM94.2,72.92l2-1.48,1.27,1.7-2.7.7-.52-.92Zm-1.79-2.31,1.26,1.57,2-1.61-.7-.74-2.61.78Zm-3.23,3.1,2.44-1.22,1.45,1.75-3.23.51-.66-1Zm-1.56-2.57,1,1.74,2.47-1.13-.65-1-2.83.35ZM83.56,74l3-1.13L88.05,75l-3.83.13L83.56,74Zm-1.78-2.92L83,73.18l3.09-1.13-.35-.83-4-.17ZM78.6,73.62l2.26-.78L82.26,75,79,74.54l-.35-.92Zm-1.39-3.27,1,2.4,2.13-.83-.7-1-2.43-.53Zm-3.14,2.18,2-.65,1.14,2.39-2.84-.69-.3-1ZM75.72,71l-2.13.61L72.72,69l2.44.75L75.72,71Zm-5.53,1,1.74-.57.35,1.4Z"/></g></g></svg>