<svg xmlns="http://www.w3.org/2000/svg" viewBox="0 0 170.09 113.38"><defs><style>.cls-1{fill:#f30004;}.cls-2{fill:#ffdb00;fill-rule:evenodd;}</style></defs><title>country-angola</title><g id="Layer_2" data-name="Layer 2"><g id="Layer_1-2" data-name="Layer 1"><rect y="56.69" width="170.09" height="56.69"/><rect class="cls-1" width="170.09" height="56.69"/><path class="cls-2" d="M87.72,34.54a22.11,22.11,0,0,1,11.8,38.84l6,4.45c.18-.17.36-.34.53-.52.69-.69,1.34-1.41,2-2.16l-1.63-1.33a27.62,27.62,0,0,0,3-4.41l1.84,1c.45-.85.87-1.73,1.25-2.63s.7-1.83,1-2.75l-2-.6a27.32,27.32,0,0,0,1-5.21l2.08.2a28.21,28.21,0,0,0,0-5.81l-2.08.2a27.32,27.32,0,0,0-1-5.21l2-.6c-.28-.92-.61-1.84-1-2.74s-.8-1.79-1.25-2.64l-1.84,1a27.62,27.62,0,0,0-3-4.41L108,37.86c-.62-.75-1.27-1.47-2-2.16s-1.42-1.35-2.16-2l-1.33,1.63a28.08,28.08,0,0,0-4.41-3l1-1.84a29,29,0,0,0-2.64-1.25c-.9-.37-1.82-.7-2.74-1l-.6,2a27.13,27.13,0,0,0-4.87-1c-.21,1.9-.42,3.88-.56,5.19Zm-2.86,1.8,2.25,7h7.32L88.5,47.59l2.27,7-5.91-4.32-5.92,4.32,2.28-7L75.29,43.3h7.32l2.25-7Zm23.61,45.39-2.64,3.34A9,9,0,0,1,110,86.94c1.84,1.56,3.49,4.23,4.54,5.27s3.26.57,2.77-1.53-3.09-4.93-8.84-9ZM75.26,53.14c1,3.46,6.07,7.94,9.3,10.6S108,81.32,108,81.32l-.75.92c-2.1-1.49-14.48-10.29-16.08-11.4-1-.72-3.61-2.65-5.84-4.46a33.32,33.32,0,0,1-3.35-3,.28.28,0,1,0-.42.37,32.3,32.3,0,0,0,3.42,3c2.23,1.81,4.84,3.76,5.87,4.48,1.51,1.06,13.85,9.82,16.05,11.38l-1.33,1.64s-19.79-12-23.7-14.23c-8-4.53-9.55-8.71-6.58-17Zm34.4,30.68a.4.4,0,1,1-.4.4.4.4,0,0,1,.4-.4Zm5.27,4.88a.4.4,0,0,1,.4.4.39.39,0,0,1-.4.39.38.38,0,0,1-.39-.39.39.39,0,0,1,.39-.4Zm-2.35-2.55a.4.4,0,1,1-.4.39.4.4,0,0,1,.4-.39Zm-21-8.47,3.48,1.88,1,4.3c-.77.3-1.54.57-2.32.81l-.61-2a27.78,27.78,0,0,1-5.21,1l.21,2.09c-1,.09-1.93.14-2.91.14s-2-.05-2.91-.14l.21-2.09a28.1,28.1,0,0,1-5.21-1l-.61,2c-.92-.28-1.83-.61-2.74-1s-1.78-.79-2.63-1.25l1-1.84a27.34,27.34,0,0,1-4.06-2.67l3.16-4.15a22.14,22.14,0,0,0,20.2,3.9Z"/></g></g></svg>