<svg xmlns="http://www.w3.org/2000/svg" xmlns:xlink="http://www.w3.org/1999/xlink" viewBox="0 0 170.08 113.39"><defs><style>.cls-1{fill:#554aa0;}.cls-2{fill:#ffdb00;}.cls-3{fill:#a0001f;}.cls-4,.cls-9{fill:#fff;}.cls-10,.cls-11,.cls-12,.cls-13,.cls-14,.cls-4,.cls-9{fill-rule:evenodd;}.cls-11,.cls-5{fill:#000001;}.cls-12,.cls-6,.cls-8{fill:none;}.cls-12,.cls-6,.cls-8,.cls-9{stroke:#000001;}.cls-6,.cls-8,.cls-9{stroke-miterlimit:22.93;}.cls-12,.cls-6,.cls-9{stroke-width:0.31px;}.cls-7{fill:#fcd700;}.cls-8{stroke-width:0.31px;}.cls-10{fill:url(#GradientFill_31);}.cls-12{stroke-linecap:round;stroke-linejoin:round;}.cls-13{fill:#474fa0;}.cls-14{fill:#ae1d22;}</style><linearGradient id="GradientFill_31" x1="56.78" y1="63.98" x2="90.55" y2="55.57" gradientUnits="userSpaceOnUse"><stop offset="0" stop-color="#000001"/><stop offset="0.47" stop-color="#231f20"/><stop offset="0.6" stop-color="#231f20"/><stop offset="1" stop-color="#000001"/></linearGradient></defs><title>country-swaziland</title><g id="Layer_2" data-name="Layer 2"><g id="Layer_1-2" data-name="Layer 1"><rect class="cls-1" width="170.08" height="113.39"/><path class="cls-2" d="M0,20.25H170.08v8.1H0v-8.1ZM170.08,85v8.1H0V85Z"/><rect class="cls-3" y="28.35" width="170.08" height="56.69"/><polygon class="cls-4" points="120.18 50.73 125.14 52.6 120.18 54.47 115.22 52.6 120.18 50.73"/><path class="cls-5" d="M125,52.88l-5-1.87.22-.57,4.95,1.87v.57Zm.21-.57.77.29-.77.28v-.57Zm-5.17,1.87,5-1.87.21.57-4.95,1.87h-.22v-.57Zm.22.57-.11,0-.11,0Zm-5-2.44,5,1.87-.22.57-5-1.87v-.57Zm-.22.57-.76-.28.76-.29v.57ZM120.29,51l-5,1.87-.22-.57,5-1.87h.22V51Zm-.22-.57.11,0,.11,0Z"/><polygon class="cls-4" points="124.82 47.26 129.77 49.13 124.82 51 119.86 49.13 124.82 47.26"/><path class="cls-5" d="M129.66,49.42l-5-1.87.21-.58,5,1.87v.58Zm.22-.58.76.29-.76.29v-.58Zm-5.17,1.87,5-1.87.22.58-5,1.87h-.21v-.58Zm.21.58-.1,0-.11,0Zm-5-2.45,5,1.87-.21.58-5-1.87v-.58Zm-.22.58-.76-.29.76-.29v.58Zm5.17-1.87-5,1.87-.22-.58,5-1.87h.21v.58Zm-.21-.58.11,0,.1,0Z"/><path class="cls-6" d="M36.71,57.49a.83.83,0,0,1,0-1.65h98.21a.83.83,0,0,1,0,1.65Z"/><path class="cls-7" d="M36.71,57.49a.83.83,0,0,1,0-1.65h98.21a.83.83,0,0,1,0,1.65Z"/><path class="cls-8" d="M45,53.16a.52.52,0,0,1,0-1h71.84a.52.52,0,1,1,0,1Z"/><path class="cls-7" d="M45,53.16a.52.52,0,0,1,0-1h71.84a.52.52,0,1,1,0,1Z"/><path class="cls-6" d="M49.51,49.59a.52.52,0,0,1,0-1h71.84a.52.52,0,1,1,0,1Z"/><path class="cls-7" d="M49.51,49.59a.52.52,0,0,1,0-1h71.84a.52.52,0,1,1,0,1Z"/><path class="cls-9" d="M114.76,56.78c-.2-.45-14.55-17.87-28.59-17.81S62.63,49.45,55.79,56.78c6.84,7.33,16.33,17.74,30.38,17.8S114.56,57.22,114.76,56.78Z"/><path class="cls-10" d="M85.13,39c-13.48.55-22.67,10.63-29.34,17.78,6.84,7.33,16.33,17.74,30.38,17.8a19.5,19.5,0,0,0,5.22-.72,6.63,6.63,0,0,0-.45-1c-.83-1.57-3.65-2.26-5.22-2.91s-1.94-1.23-1.23-1.66,3.82-.71,4.46-1.14-.09-.74-1-1.2-3.36-1-3-2,1.79-1.8,2.15-2.28.28-1,.5-2.28,1.45-1.71,2.09-2.11.41-.67-.39-1.1a2.3,2.3,0,0,1-1.48-1.61c-.43-1.1.31-3.45-.06-4.25s-.49-.24-1.36-1-.12-1.3-1-1.48-1-.25-1.42-1.54-1.29-1.54-1.11-3.45c.11-1.18,1.2-2.61,2.33-3.83ZM81,58.21h1.48v4.71H81V58.21Zm-2.84,0h1.48v4.71H78.2V58.21Zm-2.83,0h1.48v4.71H75.37V58.21Zm-2.84,0H74v4.71H72.53V58.21Zm-2.83,0h1.48v4.71H69.7V58.21Zm-2.83,0h1.47v4.71H66.87V58.21ZM81,50.45h1.48v4.71H81V50.45Zm-2.84,0h1.48v4.71H78.2V50.45Zm-2.83,0h1.48v4.71H75.37V50.45Zm-2.84,0H74v4.71H72.53V50.45Zm-2.83,0h1.48v4.71H69.7V50.45Zm-2.83,0h1.47v4.71H66.87Z"/><path class="cls-11" d="M88.49,50.45H90v4.71H88.49V50.45Zm14.17,7.76h1.48v4.71h-1.48V58.21Zm-2.83,0h1.48v4.71H99.83V58.21Zm-2.84,0h1.48v4.71H97V58.21Zm-2.83,0h1.48v4.71H94.16V58.21Zm-2.83,0H92.8v4.71H91.33V58.21Zm-2.84,0H90v4.71H88.49V58.21Zm14.17-7.76h1.48v4.71h-1.48V50.45Zm-2.83,0h1.48v4.71H99.83V50.45Zm-2.84,0h1.48v4.71H97V50.45Zm-2.83,0h1.48v4.71H94.16V50.45Zm-2.83,0H92.8v4.71H91.33Z"/><path class="cls-12" d="M75.43,42.55a8.07,8.07,0,0,0-3.79,5.23,4.45,4.45,0,0,1,1-.61s-.83,1.72-.34,2.59l.62-.84a3.94,3.94,0,0,0,1.48,2.44s.34-1.11.64-1.3a1.85,1.85,0,0,0,.44,1.48,12.24,12.24,0,0,0,1.07,1s0-.8.4-.83c0,0,1.42,1.75,2.84,1.91a2.44,2.44,0,0,1,.15-1.48A1.91,1.91,0,0,0,80,50.43a2.54,2.54,0,0,1,1.18.62,6.15,6.15,0,0,0-.3-.83,2.14,2.14,0,0,1-.19-1.15,1.17,1.17,0,0,0,.4.57,3.18,3.18,0,0,0,.6.29,6.44,6.44,0,0,0-1.91-3.48,9.68,9.68,0,0,0,2.37,1.06,5,5,0,0,0-4.61-4.44C75.89,43,75.52,43.26,75.43,42.55Z"/><path class="cls-13" d="M75.43,42.55a8.07,8.07,0,0,0-3.79,5.23,4.45,4.45,0,0,1,1-.61s-.83,1.72-.34,2.59l.62-.84a3.94,3.94,0,0,0,1.48,2.44s.34-1.11.64-1.3a1.85,1.85,0,0,0,.44,1.48,12.24,12.24,0,0,0,1.07,1s0-.8.4-.83c0,0,1.42,1.75,2.84,1.91a2.44,2.44,0,0,1,.15-1.48A1.91,1.91,0,0,0,80,50.43a2.54,2.54,0,0,1,1.18.62,6.15,6.15,0,0,0-.3-.83,2.14,2.14,0,0,1-.19-1.15,1.17,1.17,0,0,0,.4.57,3.18,3.18,0,0,0,.6.29,6.44,6.44,0,0,0-1.91-3.48,9.68,9.68,0,0,0,2.37,1.06,5,5,0,0,0-4.61-4.44C75.89,43,75.52,43.26,75.43,42.55Z"/><path class="cls-14" d="M73.8,49.89a19.65,19.65,0,0,0,.48-2.07,9.35,9.35,0,0,1,.15-1.77c.16-.31.54-.51.65-.17a5.29,5.29,0,0,1-.14,1.83A4.79,4.79,0,0,1,73.8,49.89Z"/><path class="cls-14" d="M75.85,48.59a10.43,10.43,0,0,1,.26,1.67c0,.44-.06,1.47-.06,1.47a4.45,4.45,0,0,0,.57-1.44,5.64,5.64,0,0,0-.11-1.67C76.34,48.1,75.8,48.07,75.85,48.59Z"/><path class="cls-14" d="M77.57,51.12a7.31,7.31,0,0,0,.67,1.3,14.61,14.61,0,0,0,1.15,1s-.64-1-.75-1.24A10.06,10.06,0,0,1,78.16,51C78.11,50.7,77.38,50.18,77.57,51.12Z"/><path class="cls-14" d="M78.23,48a5.93,5.93,0,0,0,1.57,1.13,9.83,9.83,0,0,0,1.31.23A9.8,9.8,0,0,1,80,48.66a16.11,16.11,0,0,1-1.34-1.11C78.41,47.28,77.67,47.33,78.23,48Z"/><path class="cls-14" d="M76.91,45.36a9.84,9.84,0,0,0,1.89,1,10.64,10.64,0,0,0,2,.14A13.32,13.32,0,0,1,79,45.78c-.47-.27-1.4-.87-1.86-1.08S76.34,45,76.91,45.36Z"/><path class="cls-12" d="M41,56.44a.52.52,0,0,1-.64.67l0,.55s-.8-.77-2.14,1a4.94,4.94,0,0,0-1.28,2.89,3.91,3.91,0,0,1,.6-.48,2.65,2.65,0,0,0,0,1.13,3.82,3.82,0,0,1,.24.9,3.33,3.33,0,0,0,.55-.77s.54,1.88.54,2a5.91,5.91,0,0,1,.28-.75,6.5,6.5,0,0,1,1.06,1.73,2,2,0,0,0,1,1.37s.22-.57.48-.6.32.37.74.55a1.75,1.75,0,0,0,.51.19s0-.51.66-.83a2.94,2.94,0,0,0,1.45-1.3l.23.37a3.28,3.28,0,0,1,.26-1.23,7.62,7.62,0,0,0,.4-1l.22.44s.17-1.69.15-2.19a7.8,7.8,0,0,0-.25-1.8c-.12-.26.7.78.7.78s.36-1.85-.4-2.5A2.32,2.32,0,0,0,44.2,57a6.41,6.41,0,0,1-2.42-.29C41.43,56.59,41,56.44,41,56.44Z"/><path class="cls-13" d="M41,56.44a.52.52,0,0,1-.64.67l0,.55s-.8-.77-2.14,1a4.94,4.94,0,0,0-1.28,2.89,3.91,3.91,0,0,1,.6-.48,2.65,2.65,0,0,0,0,1.13,3.82,3.82,0,0,1,.24.9,3.33,3.33,0,0,0,.55-.77s.54,1.88.54,2a5.91,5.91,0,0,1,.28-.75,6.5,6.5,0,0,1,1.06,1.73,2,2,0,0,0,1,1.37s.22-.57.48-.6.32.37.74.55a1.75,1.75,0,0,0,.51.19s0-.51.66-.83a2.94,2.94,0,0,0,1.45-1.3l.23.37a3.28,3.28,0,0,1,.26-1.23,7.62,7.62,0,0,0,.4-1l.22.44s.17-1.69.15-2.19a7.8,7.8,0,0,0-.25-1.8c-.12-.26.7.78.7.78s.36-1.85-.4-2.5A2.32,2.32,0,0,0,44.2,57a6.41,6.41,0,0,1-2.42-.29C41.43,56.59,41,56.44,41,56.44Z"/><path class="cls-14" d="M40,59c-.21.4-.33,1-.71,1.73s-.74,1.4-.74,1.4a5.25,5.25,0,0,0,1.26-1.17,4.59,4.59,0,0,0,.72-1.67C40.53,58.81,40.16,58.29,40,59Z"/><path class="cls-14" d="M42.1,58.83a4.69,4.69,0,0,0,1.65,1.55,4.49,4.49,0,0,0,1.46.4s-1.17-.87-1.54-1.17a8.61,8.61,0,0,1-1.11-1.17C42.32,58.13,41.92,58.33,42.1,58.83Z"/><path class="cls-14" d="M40.54,61.49a5.14,5.14,0,0,1-.18,1.39c-.15.35-.45,1.35-.45,1.35a4.27,4.27,0,0,0,.9-1.21,6.29,6.29,0,0,0,.26-1.4C41.05,61.31,40.58,61,40.54,61.49Z"/><path class="cls-14" d="M42.58,61.42a4.33,4.33,0,0,0,1,1.43l1.16.66a6.4,6.4,0,0,1-.93-1.08c-.23-.41-.61-.92-.77-1.31S42.43,60.66,42.58,61.42Z"/><path class="cls-14" d="M41.85,63.22a10,10,0,0,1,0,1.32c-.06.49-.21,1.3-.21,1.3a5.1,5.1,0,0,0,.64-1.32,6,6,0,0,0,.08-1.29C42.32,63.05,41.89,62.59,41.85,63.22Z"/><path class="cls-12" d="M128.45,56.22c-1.6.65-3.3,2-4.41,5.3a6.91,6.91,0,0,1,1.13-.75,3.59,3.59,0,0,0,0,2.27c.35,1.43.57,2.18.57,2.18s.49-.33.82-.58A1.47,1.47,0,0,0,127,64a8.08,8.08,0,0,0,1.57,2.17c1.05,1,1.48,1.39,1.48,1.39s1.08-1.63,1.45-2.22a.82.82,0,0,0,.25.47,3.77,3.77,0,0,1,.34-.85,1,1,0,0,0,.14-.61l.71.58a3.45,3.45,0,0,1,0-.85,3,3,0,0,0,0-1s.21-.06.41.22.29.31.29.31a6.37,6.37,0,0,1-.13-1.32,9.44,9.44,0,0,0,0-1.39,6.44,6.44,0,0,0,.39.8,1.76,1.76,0,0,0,.34.38s-.27-1-.31-1.28-.12-.51.12-.81l.4.49c0-2.34-3.12-3.67-5.08-3.67-.68,0-.48,0-.76-.08S128.45,56.22,128.45,56.22Z"/><path class="cls-13" d="M128.45,56.22c-1.6.65-3.3,2-4.41,5.3a6.91,6.91,0,0,1,1.13-.75,3.59,3.59,0,0,0,0,2.27c.35,1.43.57,2.18.57,2.18s.49-.33.82-.58A1.47,1.47,0,0,0,127,64a8.08,8.08,0,0,0,1.57,2.17c1.05,1,1.48,1.39,1.48,1.39s1.08-1.63,1.45-2.22a.82.82,0,0,0,.25.47,3.77,3.77,0,0,1,.34-.85,1,1,0,0,0,.14-.61l.71.58a3.45,3.45,0,0,1,0-.85,3,3,0,0,0,0-1s.21-.06.41.22.29.31.29.31a6.37,6.37,0,0,1-.13-1.32,9.44,9.44,0,0,0,0-1.39,6.44,6.44,0,0,0,.39.8,1.76,1.76,0,0,0,.34.38s-.27-1-.31-1.28-.12-.51.12-.81l.4.49c0-2.34-3.12-3.67-5.08-3.67-.68,0-.48,0-.76-.08S128.45,56.22,128.45,56.22Z"/><path class="cls-14" d="M126.81,61c-.12.22-.39,1-.58,1.34s-.78,1.14-.78,1.14a3.4,3.4,0,0,0,1.26-1,4.16,4.16,0,0,0,.68-1.26C127.45,61,127.06,60.44,126.81,61Z"/><path class="cls-14" d="M127.83,63.49a2.8,2.8,0,0,1,.11,1c0,.28-.06.55-.06.55a1.63,1.63,0,0,0,.52-.6,2.06,2.06,0,0,0,0-1.05C128.31,63.15,127.8,63,127.83,63.49Z"/><path class="cls-14" d="M129.34,63.77a4.8,4.8,0,0,1,.32,1.46c.05.66.05,1.17.05,1.17a3.36,3.36,0,0,0,.34-1.2,4.9,4.9,0,0,0-.11-1.46C129.8,63.3,129.24,63.09,129.34,63.77Z"/><path class="cls-14" d="M130,62.24a2.15,2.15,0,0,0,.56.93c.25.15.88.42.88.42a2.12,2.12,0,0,1-.59-.71c-.1-.32-.3-.62-.35-.87S129.85,61.55,130,62.24Z"/><path class="cls-14" d="M129.74,60.21a2,2,0,0,0,1.88.77,3.2,3.2,0,0,1-.78-.43,9.09,9.09,0,0,0-.75-.66C129.88,59.75,129.38,59.71,129.74,60.21Z"/><path class="cls-5" d="M119.33,48.62a.21.21,0,1,1,.24-.34,1,1,0,0,1,0,1.57.21.21,0,1,1-.3-.28C119.84,49,119.33,48.62,119.33,48.62Z"/><path class="cls-5" d="M120,48.62a.22.22,0,0,1,0-.29.21.21,0,0,1,.29,0,1,1,0,0,1,0,1.57.21.21,0,0,1-.29,0,.2.2,0,0,1,0-.29C120.53,49,120,48.62,120,48.62Z"/><path class="cls-5" d="M120.72,48.62a.2.2,0,0,1,0-.29.2.2,0,0,1,.28,0,1,1,0,0,1,0,1.57.21.21,0,0,1-.29,0,.21.21,0,0,1,0-.29C121.22,49,120.72,48.62,120.72,48.62Z"/><path class="cls-5" d="M114.71,52.16a.21.21,0,0,1,.24-.34,1,1,0,0,1,0,1.57.21.21,0,0,1-.31-.27C115.21,52.51,114.71,52.16,114.71,52.16Z"/><path class="cls-5" d="M115.4,52.16a.21.21,0,0,1,.24-.34,1,1,0,0,1,0,1.57.21.21,0,0,1-.29,0,.21.21,0,0,1,0-.29C115.91,52.51,115.41,52.16,115.4,52.16Z"/><path class="cls-5" d="M116.1,52.16a.2.2,0,0,1,0-.29.2.2,0,0,1,.28,0,1,1,0,0,1,0,1.57.22.22,0,0,1-.29,0,.21.21,0,0,1,0-.29C116.6,52.51,116.1,52.16,116.1,52.16Z"/></g></g></svg>