<svg xmlns="http://www.w3.org/2000/svg" xmlns:xlink="http://www.w3.org/1999/xlink" viewBox="0 0 170.08 113.38"><defs><style>.cls-1,.cls-6{fill:#fff;}.cls-2{fill:#01a616;}.cls-3,.cls-5{fill:#ffdb00;}.cls-4{fill:#f30004;}.cls-4,.cls-5,.cls-6,.cls-8{fill-rule:evenodd;}.cls-6{stroke:#231f20;stroke-miterlimit:22.93;stroke-width:0.19px;}.cls-7{fill:#231f20;}.cls-8{fill:url(#GradientFill_31);}</style><linearGradient id="GradientFill_31" x1="8.03" y1="50.27" x2="43.84" y2="60.54" gradientUnits="userSpaceOnUse"><stop offset="0" stop-color="#000001"/><stop offset="0.47" stop-color="#231f20"/><stop offset="0.6" stop-color="#231f20"/><stop offset="1" stop-color="#000001"/></linearGradient></defs><title>country-mozambique</title><g id="Layer_2" data-name="Layer 2"><g id="Layer_1-2" data-name="Layer 1"><rect y="38.97" width="170.08" height="35.43"/><rect class="cls-1" y="35.43" width="170.08" height="3.54"/><rect class="cls-2" width="170.08" height="35.43"/><rect class="cls-1" y="74.36" width="170.08" height="3.59"/><rect class="cls-3" y="77.95" width="170.08" height="35.43"/><polygon class="cls-4" points="0 0 0 113.39 74.41 56.69 0 0"/><polygon class="cls-5" points="24.87 35.56 30.1 51.76 47.12 51.73 33.33 61.7 38.62 77.89 24.87 67.85 11.12 77.89 16.41 61.7 2.62 51.73 19.64 51.76 24.87 35.56"/><path class="cls-6" d="M15.29,55.8l1.28-1.17S22.92,52.7,25,54c1.82-.91,5.82-.72,8.51.83l1,1.09,3.15,11s-6.46-1.93-10.5-.27c0,0-2.36,2-4.38,0l-10-.1Z"/><path class="cls-7" d="M16.69,54.63,14.94,64c6.75-.66,9.29.51,9.87.85l.12-11h.19l-.12,11a10.65,10.65,0,0,1,4-1,32.68,32.68,0,0,1,6.29.07l-1.83-9.25.19,0L35.46,64l2.26,2.78-.15.12-2.23-2.76A33.15,33.15,0,0,0,29,64.07a10.76,10.76,0,0,0-3.86,1,7.75,7.75,0,0,1,2.06,1.53l-.16.1A8,8,0,0,0,25,65.13h0l0,0h0a7.68,7.68,0,0,0-1.08.66,4.65,4.65,0,0,0-.95.81l-.16-.1a4.81,4.81,0,0,1,1-.87,7.1,7.1,0,0,1,1-.62c-.58-.34-3.08-1.48-9.81-.82h0l-2,2.35-.14-.13,2-2.32h0v-.07h0l1.76-9.46Z"/><path class="cls-8" d="M6.29,67.7a22.7,22.7,0,0,1,3.49-3.15A3.23,3.23,0,0,1,11.46,64l2-2.09h.69l3.74-3.42.26.26.42-.32.07-.37,2.75-2.45-.13-.07-3,2.48-.35-.26v.33l-4,3.31c-.08.07-.24.08-.22-.08s.12-1.47.13-1.55.11-.09.16-.11l.33,0,6.27-5.15.05-.35,2.07-1.72c.06,0,.2,0,.21.15a1.64,1.64,0,0,0,.21.67,3.94,3.94,0,0,0,.63.5l.68-.55-.2-.23-.47.36-.57-.63.44-.41-3.6-4.09a4.19,4.19,0,0,1-1.25.09,14.44,14.44,0,0,1-1.2-1.3s-.15,1.84-.18,2S11.08,57,11.08,57l-3-3.8c.87-1.36,5-7.26,5.25-7.56s.75-.3,1.17-.3a9,9,0,0,0,1.74-.15c.38-.11.34-1.21.87-1.51a2.44,2.44,0,0,1,1.77-.16,29.83,29.83,0,0,1,2.64,2.6l-.24.78L24.92,51l1.46-1.38.37.51.53-.85,1.84-1.82,1.6,0,1.92-1.8,0-.72-.38-.61.34-.26.66.77.8.32.66-.41.45.45-.13.36.21.21s7.48-5.35,7.8-5.56.23.15.12.29S36.33,47.14,36,47.33a1,1,0,0,1-.79,0S31.15,50.77,31,50.92s-.25,0-.34-.15a6.93,6.93,0,0,0-.79-.58l-1.54,1.36a1.29,1.29,0,0,1-.27.65l-1.13,1L40.56,68.86s.06.68-.26.9a3.93,3.93,0,0,1-.85.4L25.61,54.43l-.57.51c-.55.45-1.55,1.27-1.7,1.37s-.24-.17-.45-.34a7.64,7.64,0,0,1-.66-.72v.28l.47.93a3.6,3.6,0,0,0-.79.28.94.94,0,0,0-.44.93c.1.38.76.73,1.82.94s4.19.74,4.19.74l-.13,2.76s-.64.6-2.7-.08a42.1,42.1,0,0,1-5.24-2.41l-.32.4s.47.69.53.81,0,.22-.11.38L18,62.81s.65,2.37.69,2.5a.4.4,0,0,1-.13.4l-1,.6s-.14.15-.28-.12-.88-2.43-.88-2.43l-.58-.51a.16.16,0,0,1,0-.26c.09-.1,1.39-1.26,1.39-1.26a1.54,1.54,0,0,1,.33,0c.17,0,.48,0,.48,0l.63-.8-.37-.45a6.5,6.5,0,0,0-.52.41c0,.07-.09.2.08.25s.25.11.22.17-.11.11-.25.09l-.42,0-2.73,2.42a1,1,0,0,1-.08.55c-.13.24-4.73,5.75-5,6s-.72.62-1.16.18S6.4,68,6.32,67.92s-.06-.2,0-.22ZM25.83,52l1.07-.85L26.72,51l-1.08.82Z"/></g></g></svg>