<svg xmlns="http://www.w3.org/2000/svg" width="894.135" height="364.383" viewBox="0 0 894.135 364.383">
  <g id="Group_669" data-name="Group 669" transform="translate(-2644.18 240.192)">
    <path id="Path_1029" data-name="Path 1029" d="M386.405,288.329a30.156,30.156,0,0,1,16.414,5.082l18.575,11.683,17.115-5.082,25.118-30.258-53.565-53.565c-21.087-21.087-51.345-32.77-84.524-32.77h-.759c-15.48-11.274-37.735-17.875-60.808-17.875a136.918,136.918,0,0,0-28.8,3.271c3.972,11.449,12.15,24.767,18.459,34.055-52.1,30.2-88.029,91.943-88.029,163.09,0,14.194,1.46,21.5,1.46,21.5s17.174-17.466,39.78-17.466c0,34.99-22.2,68.87-22.2,68.87,56.486,0,157.366,26.578,193.407,50.995,0-16.765-36.041-58.647-70.68-81.253,0,0,101.639,44.1,116.944,121.325,0,0,7.652-16.005,7.652-42.233,0-116.593-150.473-113.264-151.525-210.172-.35-25.877,10.222-41.882,10.222-41.882a136.979,136.979,0,0,0-3.622,30.258c0,74.652,78.332,77.982,127.517,124.946l10.573-57.187L404.747,340.2l-14.954-4.381c-16.414-4.731-25.877-14.194-25.877-26.228s9.463-21.146,22.606-21.146m-62.094-59.757s12.384-1.46,21.146-1.46c18.225,0,35.691,6.192,46.263,15.655l-10.923,13.143c-9.463-10.923-40.072-25.877-56.486-27.337" transform="translate(2478.578 -405.735)" fill="#0a0a0d"/>
    <path id="Path_1030" data-name="Path 1030" d="M645.995,384.419l-15.888-22.664c22.256-8.82,35.632-26.637,35.632-48.366,0-28.739-23.541-48.483-57.829-48.483h-78.04l2.57,3.972c5.608,8.587,8.587,16.531,8.587,23.95V396.569c0,7.36-2.979,15.363-8.587,23.95l-2.57,3.972h44.686V294.813h31.31c15.363,0,25.76,8.587,25.76,21.146,0,14.779-12.384,24.125-47.257,32.712l38.319,59.056c9.58,14.779,23.95,22.723,41.123,22.723,15.772,0,22.139-6.6,22.139-6.6s-15.947-5.2-39.9-39.488" transform="translate(2478.578 -405.735)" fill="#0a0a0d"/>
    <path id="Path_1031" data-name="Path 1031" d="M899.276,424.549l-2.57-3.213c-5.608-6.776-8-13.552-8.587-19.569l-12.15-108.941c-.818-7.36,1.811-15.187,6.6-23.95l2.22-3.972h-47.14l-41.123,90.658L755.4,264.905H708.322l2.22,3.972c4.79,8.762,7.36,16.531,6.6,23.95l-12.15,108.941a36.115,36.115,0,0,1-8.587,19.569l-2.57,3.213H737.12l9.7-103.45,49.71,109.408L846.294,321.1l9.7,103.45Z" transform="translate(2478.578 -405.735)" fill="#0a0a0d"/>
    <path id="Path_1032" data-name="Path 1032" d="M1032.458,339.791c11.624-6.659,18.05-17.582,18.05-31.777,0-25.76-21.146-43.109-52.455-43.109H919.9l2.57,3.972c5.608,8.353,8.587,16.531,8.587,23.95V396.569c0,7.36-2.979,15.538-8.587,23.95l-2.57,3.972h84.758c32.127,0,55.084-19.569,55.084-47.257,0-18.05-9.7-31.018-27.221-37.443m-37.969-46.322c13.786,0,23.365,7.594,23.365,18.575s-9.58,18.575-23.365,18.575H964.64V293.469Zm7.01,102.516H964.64V356.906h36.917c14.37,0,23.716,7.594,23.716,19.569s-9.4,19.569-23.716,19.569" transform="translate(2478.578 -405.735)" fill="#0a0a0d"/>
  </g>
</svg>
